<?xml version="1.0" encoding="iso-8859-1"?>
<!-- Generator: Adobe Illustrator 19.0.0, SVG Export Plug-In . SVG Version: 6.00 Build 0)  -->
<svg version="1.1" id="Layer_1" xmlns="http://www.w3.org/2000/svg" xmlns:xlink="http://www.w3.org/1999/xlink" x="0px" y="0px"
	 viewBox="0 0 390.141 390.141" style="enable-background:new 0 0 390.141 390.141;" xml:space="preserve">
<path style="fill:#FFC10D;" d="M281.988,143.58l-89.406,207.58l-44.994-110.545h18.424c5.947,0,10.861-4.848,10.861-10.861
	c0-5.947-4.848-10.861-10.861-10.861h-27.604l-9.762-23.273h58.505c5.947,0,10.861-4.913,10.861-10.861
	c0-5.947-4.848-10.861-10.861-10.861h-66.65l-12.477-30.319H281.988z"/>
<path style="fill:#56ACE0;" d="M197.43,121.859h-93.156c4.848-21.657,23.855-37.366,46.61-37.366
	C173.64,84.493,192.582,100.202,197.43,121.859z"/>
<path style="fill:#FFC10D;" d="M195.297,78.545c11.895-9.762,26.57-15.192,42.279-15.709c-3.232-23.273-23.273-41.18-47.709-41.18
	s-44.412,18.424-47.709,41.762c2.715-0.517,5.947-0.517,8.663-0.517C167.628,62.772,183.402,68.784,195.297,78.545z"/>
<path style="fill:#FFFFFF;" d="M239.709,84.493c-10.861,0-21.657,3.814-29.802,10.279c4.848,8.145,8.663,16.808,10.279,26.57h66.651
	C281.471,100.202,262.529,84.493,239.709,84.493z"/>
<path style="fill:#194F82;" d="M309.139,132.202c0-31.418-21.139-58.505-49.842-66.651C257.099,29.22,226.78,0,189.931,0
	c-38.465,0-69.883,31.418-69.883,69.883l0,0c-23.273,11.378-39.046,35.232-39.046,62.319l0,0c0,1.616,0,2.715,0.517,4.331
	l100.202,247.079c1.616,3.814,5.43,6.529,9.762,6.529l0,0c4.331,0,8.145-2.715,9.762-6.529l106.214-247.143
	C309.139,135.434,309.139,133.818,309.139,132.202L309.139,132.202z M239.709,84.493c22.756,0,41.762,15.709,46.61,37.366h-66.651
	c-1.616-9.762-4.848-18.941-10.279-26.57C218.053,88.242,228.913,84.493,239.709,84.493z M189.867,21.592
	c24.372,0,43.895,17.907,47.709,41.18c-15.709,0.517-30.319,5.947-42.279,15.709c-11.895-9.762-27.669-15.709-44.412-15.709
	c-2.715,0-5.947,0-8.663,0.517C145.455,40.016,165.495,21.592,189.867,21.592z M150.885,84.493c22.756,0,41.762,15.709,46.61,37.366
	h-93.22C109.123,100.202,128.065,84.493,150.885,84.493z M192.582,351.095L147.588,240.55h18.424
	c5.947,0,10.861-4.848,10.861-10.861c0-5.947-4.848-10.861-10.861-10.861h-27.604l-9.762-23.273h58.505
	c5.947,0,10.861-4.848,10.861-10.861c0-5.947-4.848-10.861-10.861-10.861h-66.65l-12.477-30.255h173.964L192.582,351.095z"/>
<g>
</g>
<g>
</g>
<g>
</g>
<g>
</g>
<g>
</g>
<g>
</g>
<g>
</g>
<g>
</g>
<g>
</g>
<g>
</g>
<g>
</g>
<g>
</g>
<g>
</g>
<g>
</g>
<g>
</g>
</svg>
