<?xml version="1.0" encoding="iso-8859-1"?>
<!-- Generator: Adobe Illustrator 19.0.0, SVG Export Plug-In . SVG Version: 6.00 Build 0)  -->
<svg version="1.1" id="Layer_1" xmlns="http://www.w3.org/2000/svg" xmlns:xlink="http://www.w3.org/1999/xlink" x="0px" y="0px"
	 viewBox="0 0 437.982 437.982" style="enable-background:new 0 0 437.982 437.982;" xml:space="preserve">
<g>
	<path style="fill:#BC6491;" d="M323.759,104.768c0,10.545-1.555,20.728-4.462,30.322c-12.997,43.078-52.98,74.446-100.306,74.446
		c-47.312,0-87.309-31.367-100.306-74.446c-2.908-9.594-4.462-19.777-4.462-30.322c0-2.398,0.08-4.824,0.255-7.195
		C118.163,43.078,163.545,0,218.991,0S319.82,43.078,323.504,97.573C323.678,99.944,323.759,102.37,323.759,104.768z"/>
	<path style="fill:#FFFFFF;" d="M191.468,25.891c-2.313,0-4.465-1.47-5.225-3.787c-0.947-2.886,0.625-5.994,3.512-6.94
		c4.308-1.414,8.756-2.521,13.22-3.293c2.995-0.516,5.839,1.49,6.356,4.483c0.518,2.993-1.489,5.839-4.482,6.356
		c-3.939,0.681-7.863,1.658-11.665,2.906C192.614,25.802,192.036,25.891,191.468,25.891z"/>
	<path style="fill:#FFFFFF;" d="M133.234,87.373c-0.47,0-0.948-0.061-1.424-0.188c-2.935-0.785-4.677-3.8-3.893-6.734
		c6.054-22.64,20.318-42.154,40.165-54.948c2.553-1.646,5.957-0.91,7.603,1.643s0.911,5.957-1.643,7.603
		c-17.544,11.31-30.151,28.55-35.498,48.544C137.886,85.751,135.663,87.373,133.234,87.373z"/>
	<path style="fill:#FFD41D;" d="M322.906,134.022l-0.34,1.07l-6.27,19.71l-6.32,19.92h-0.02l-81.44,256.29
		c-1.47,4.65-5.49,6.97-9.52,6.97c-4.02,0-8.06-2.32-9.53-6.97l-38.67-121.68l-49.11-154.53l-1.83-5.75l-4.44-13.96l-0.18-0.57
		l-0.16-0.5L322.906,134.022L322.906,134.022z"/>
	<path style="fill:#92496A;" d="M323.759,104.768c0,10.545-1.555,20.728-4.462,30.322c-12.997,43.078-52.98,74.446-100.306,74.446V0
		c55.446,0,100.829,43.078,104.513,97.573C323.678,99.944,323.759,102.37,323.759,104.768z"/>
	<path style="fill:#FFA91F;" d="M322.901,134.018l-12.93,40.707h-0.013l-81.44,256.286c-1.474,4.65-5.494,6.968-9.527,6.968v-303.96
		h103.91V134.018z"/>
	<path style="fill:#BC6491;" d="M338.605,115.876c0,9.446-6.753,17.285-15.704,18.973c-0.549,0.107-1.112,0.188-1.675,0.241
		c-0.63,0.067-1.273,0.107-1.929,0.107H118.685c-0.657,0-1.3-0.04-1.929-0.107c-4.556-0.456-8.656-2.479-11.724-5.561
		c-2.077-2.09-3.685-4.636-4.636-7.49c-0.67-1.929-1.018-3.993-1.018-6.164c0-8.522,5.52-15.744,13.171-18.303
		c1.93-0.643,3.993-0.992,6.137-0.992h200.612c2.144,0,4.208,0.348,6.137,0.992c2.867,0.951,5.426,2.559,7.517,4.649
		C336.448,105.719,338.605,110.543,338.605,115.876z"/>
	<path style="fill:#92496A;" d="M338.605,115.876c0,10.023-7.611,18.236-17.379,19.214c-0.63,0.067-1.273,0.107-1.929,0.107H218.991
		V93.51h99.503c2.144,0,5.01,3.419,6.94,4.063c2.867,0.951,5.426,2.559,7.517,4.649
		C336.448,105.719,338.605,110.543,338.605,115.876z"/>
	<polygon style="fill:#FFA91F;" points="322.566,134.522 313.786,149.052 119.856,149.052 115.416,135.092 115.236,134.522 	"/>
	<path style="fill:#92496A;" d="M322.901,122.04v13.158H118.685c-0.657,0-1.3-0.04-1.929-0.107
		c-4.556-0.456-8.656-2.479-11.724-5.561c-2.077-2.09-3.685-4.636-4.636-7.49H322.901z"/>
</g>
<g>
</g>
<g>
</g>
<g>
</g>
<g>
</g>
<g>
</g>
<g>
</g>
<g>
</g>
<g>
</g>
<g>
</g>
<g>
</g>
<g>
</g>
<g>
</g>
<g>
</g>
<g>
</g>
<g>
</g>
</svg>
