<?xml version="1.0" encoding="iso-8859-1"?>
<!-- Generator: Adobe Illustrator 19.0.0, SVG Export Plug-In . SVG Version: 6.00 Build 0)  -->
<svg version="1.1" id="Capa_1" xmlns="http://www.w3.org/2000/svg" xmlns:xlink="http://www.w3.org/1999/xlink" x="0px" y="0px"
	 viewBox="0 0 490.025 490.025" style="enable-background:new 0 0 490.025 490.025;" xml:space="preserve">
<g>
	<g>
		<g>
			<path d="M405.212,205.725h-320.4c0,82.1,61.4,149.3,140.8,159v67.7l-57.6,57.6h153.6l-57.6-57.6v-68.1
				C343.412,355.025,405.212,287.425,405.212,205.725z"/>
			<path d="M259.412,135.325c4.8,4.3,9.3,1.6,10.9,0l121.7-121.7c3.1-3.1,3.1-8.2,0-11.3s-8.2-3.1-11.3,0l-121.3,121.8
				C256.312,127.225,256.112,132.425,259.412,135.325z"/>
			<path d="M359.712,121.725c-5.8-6.6-12.4-12.8-15.6-21c-1.2-2.7-1.6-5.8-2.7-8.6l-57.1,56.9c-4.9,5.8-23.8,15-38.9,0
				c-5.1-5.1-15.5-22.3,0-38.9l58.7-58.7c-3.9-3.1-7.8-5.8-12.1-8.2c-10.6-5.4-13.6-13.6-15.9-15.9c-7.4-7-17.9,3.1-27.6,5.1
				c-8.9,1.9-18.3-3.1-27.2-0.8c-4.7,1.2-8.9,4.3-13.2,7.4c-17.5,14-35,30.7-42,53.7c-2.7,8.9-4.7,19.8-12.4,22.9
				c-5.4,2.3-11.7,0-17.1,1.9c-11.3,3.5-14.8,20.6-25.7,25.3c-3.1,1.6-13,1.7-16.7,14.8c-3.5,9.7-7,18.7-8.6,27.6h308.4
				C386.212,161.725,367.512,130.725,359.712,121.725z M207.712,159.425c-1.6,2.3-5.2,5.7-10.5,2.7c-7.4-4.3-14.8-8.6-22.6-12.1
				c-3.9-1.9-5.4-6.6-3.5-10.5s6.6-5.4,10.5-3.5c8.2,3.9,15.9,8.2,23.7,12.8C208.813,150.925,210.012,156.025,207.712,159.425z
				 M335.212,162.925l-13.2,5.1c-5.4,1.3-8.9-1.6-10.1-4.7c-1.6-3.9,0.4-8.6,4.7-10.1l13.2-5.1c3.9-1.6,8.6,0.4,10.1,4.7
				C341.412,156.725,339.112,161.425,335.212,162.925z"/>
		</g>
	</g>
</g>
<g>
</g>
<g>
</g>
<g>
</g>
<g>
</g>
<g>
</g>
<g>
</g>
<g>
</g>
<g>
</g>
<g>
</g>
<g>
</g>
<g>
</g>
<g>
</g>
<g>
</g>
<g>
</g>
<g>
</g>
</svg>
