<?xml version="1.0" encoding="iso-8859-1"?>
<!-- Generator: Adobe Illustrator 18.0.0, SVG Export Plug-In . SVG Version: 6.00 Build 0)  -->
<!DOCTYPE svg PUBLIC "-//W3C//DTD SVG 1.1//EN" "http://www.w3.org/Graphics/SVG/1.1/DTD/svg11.dtd">
<svg version="1.1" id="Capa_1" xmlns="http://www.w3.org/2000/svg" xmlns:xlink="http://www.w3.org/1999/xlink" x="0px" y="0px"
	 viewBox="0 0 297 297" style="enable-background:new 0 0 297 297;" xml:space="preserve">
<path d="M269.287,0h-51.766c-4.8,0-8.982,3.266-10.145,7.921l-13.535,54.141c-5.227-3.18-10.899-5.688-16.895-7.438
	c0.395-4.094,0.012-8.331-1.263-12.507C171.512,28.469,159.18,19.3,144.997,19.3c-3.145,0-6.273,0.469-9.3,1.394
	c-2.067,0.632-4.041,1.461-5.9,2.468c-7.369-3.78-15.689-5.906-24.435-5.906c-29.554,0-53.597,24.043-53.597,53.597
	c0,3.823,0.402,7.602,1.2,11.299c-6.744,5.836-11.838,13.186-14.945,21.381H27.713c-5.775,0-10.458,4.683-10.458,10.458
	c0,59.328,45.563,108.207,103.532,113.506v48.59H96.734c-5.775,0-10.458,4.682-10.458,10.457c0,5.775,4.683,10.458,10.458,10.458
	h69.021c5.775,0,10.458-4.683,10.458-10.458c0-5.775-4.683-10.457-10.458-10.457h-24.053v-48.59
	c57.971-5.299,103.532-54.178,103.532-113.506c0-5.775-4.683-10.458-10.458-10.458h-9.434c-2.726-9.724-7.475-18.608-13.77-26.165
	l14.113-56.451h43.601c5.775,0,10.458-4.682,10.458-10.457S275.063,0,269.287,0z M144.997,40.216c4.848,0,9.242,3.295,10.684,8.012
	c1.813,5.94-1.453,12.225-7.278,14.006c-1.043,0.319-2.115,0.481-3.186,0.481c-4.848,0-9.242-3.297-10.686-8.019
	c-0.886-2.893-0.604-5.948,0.792-8.604c1.379-2.623,3.685-4.539,6.489-5.396C142.854,40.377,143.926,40.216,144.997,40.216z
	 M131.245,207.064c-47.788,0-87.279-36.198-92.49-82.616h184.98C218.524,170.865,179.032,207.064,131.245,207.064z M61.605,103.531
	c2.403-3.328,5.431-6.241,9.032-8.527c4.194-2.661,5.938-7.905,4.172-12.548c-1.412-3.713-2.128-7.617-2.128-11.604
	c0-18.021,14.66-32.681,32.681-32.681c3.446,0,6.779,0.552,9.923,1.555c-2.612,6.717-2.9,14.078-0.757,21.087
	c4.173,13.647,16.505,22.816,30.688,22.816c3.144,0,6.27-0.468,9.301-1.393c5.344-1.635,9.944-4.565,13.576-8.342
	c15.942,3.587,29.012,14.827,35.161,29.637H61.605z"/>
<g>
</g>
<g>
</g>
<g>
</g>
<g>
</g>
<g>
</g>
<g>
</g>
<g>
</g>
<g>
</g>
<g>
</g>
<g>
</g>
<g>
</g>
<g>
</g>
<g>
</g>
<g>
</g>
<g>
</g>
</svg>
