<?xml version="1.0" encoding="iso-8859-1"?>
<!-- Generator: Adobe Illustrator 18.0.0, SVG Export Plug-In . SVG Version: 6.00 Build 0)  -->
<!DOCTYPE svg PUBLIC "-//W3C//DTD SVG 1.1//EN" "http://www.w3.org/Graphics/SVG/1.1/DTD/svg11.dtd">
<svg version="1.1" id="Capa_1" xmlns="http://www.w3.org/2000/svg" xmlns:xlink="http://www.w3.org/1999/xlink" x="0px" y="0px"
	 viewBox="0 0 297 297" style="enable-background:new 0 0 297 297;" xml:space="preserve">
<g>
	<path d="M112.632,175.304c11.129,0,20.184-9.055,20.184-20.184v-10.752c0-2.098,0.91-4.092,2.493-5.466
		c1.584-1.375,3.689-1.996,5.764-1.701c2.447,0.348,4.946,0.524,7.429,0.524c9.4,0,18.552-2.503,25.77-7.048
		c2.428-1.528,5.534-1.48,7.913,0.13c6.689,4.525,14.532,6.918,22.682,6.918c22.431,0,40.68-18.249,40.68-40.68
		c0-19.212-13.648-35.97-32.454-39.846c-2.995-0.617-5.279-3.051-5.707-6.079C203.276,21.978,177.962,0,148.5,0
		S93.724,21.978,89.615,51.121c-0.428,3.028-2.712,5.462-5.707,6.079c-18.806,3.876-32.454,20.634-32.454,39.846
		c0,18.937,13.416,35.645,31.9,39.728c3.316,0.731,5.678,3.672,5.678,7.068v11.278c0,11.129,9.055,20.184,20.184,20.184H112.632z"/>
	<path d="M204.866,152.203c-9.499,0-18.699-2.401-26.87-6.982c-9.105,4.754-19.648,7.177-30.703,6.972v2.928
		c0,19.112-15.549,34.661-34.661,34.661h-3.416c-2.758,0-5.438-0.333-8.011-0.945l37.6,101.418c1.503,4.055,5.372,6.746,9.696,6.746
		c4.325,0,8.193-2.691,9.696-6.746l51.256-138.257C207.939,152.122,206.412,152.203,204.866,152.203z"/>
</g>
<g>
</g>
<g>
</g>
<g>
</g>
<g>
</g>
<g>
</g>
<g>
</g>
<g>
</g>
<g>
</g>
<g>
</g>
<g>
</g>
<g>
</g>
<g>
</g>
<g>
</g>
<g>
</g>
<g>
</g>
</svg>
