<?xml version="1.0" encoding="iso-8859-1"?>
<!-- Generator: Adobe Illustrator 19.0.0, SVG Export Plug-In . SVG Version: 6.00 Build 0)  -->
<svg version="1.1" id="Layer_1" xmlns="http://www.w3.org/2000/svg" xmlns:xlink="http://www.w3.org/1999/xlink" x="0px" y="0px"
	 viewBox="0 0 512 512" style="enable-background:new 0 0 512 512;" xml:space="preserve">
<circle style="fill:#FFD15D;" cx="256" cy="256" r="256"/>
<path style="fill:#F9B54C;" d="M302.327,507.807c115.54-21.12,203.978-119.794,209.396-240.097L387.01,143l-64.353,59.559
	L137.18,342.661L302.327,507.807z"/>
<path style="fill:#FFFFFF;" d="M128.434,256c0,0-1.289-24.824,31.892-49.648c33.18-24.824,62.493-33.851,63.783-74.473
	c0,0,159.134,30.842,159.458,124.121H128.434z"/>
<path style="fill:#E6F3FF;" d="M256,140.276V256h127.566C383.336,189.526,302.468,154.769,256,140.276z"/>
<path style="fill:#66B31B;" d="M393.281,200.932c-8.22,19.834-25.74,32.98-45.411,36.516c-11.404-16.413-14.489-38.098-6.27-57.932
	s25.74-32.98,45.411-36.516C398.415,159.413,401.501,181.098,393.281,200.932z"/>
<path style="fill:#599B13;" d="M387.019,143.01l-39.557,93.806c0.141,0.207,0.267,0.424,0.41,0.631
	c19.671-3.536,37.192-16.682,45.411-36.516C401.499,181.103,398.415,159.422,387.019,143.01z"/>
<g>
	<path style="fill:#7CBC39;" d="M392.097,239.14c-17.239,8.601-36.843,7.194-52.248-1.989c1.934-17.834,12.605-34.344,29.843-42.944
		c17.237-8.601,36.843-7.194,52.248,1.989C420.007,214.03,409.336,230.54,392.097,239.14z"/>
	<path style="fill:#7CBC39;" d="M369.692,194.208c-16.644,8.304-27.396,25.822-29.844,42.944l81.36-41.362
		C405.914,186.989,386.662,185.742,369.692,194.208z"/>
</g>
<path style="fill:#65932F;" d="M339.849,237.151C339.761,237.763,339.915,236.535,339.849,237.151
	c15.405,9.183,35.011,10.588,52.248,1.989c17.237-8.599,27.91-25.11,29.843-42.944c-0.24-0.143-0.491-0.267-0.733-0.407
	L339.849,237.151z"/>
<rect x="199.111" y="369.778" style="fill:#2B9ED8;" width="113.778" height="28.444"/>
<rect x="256" y="369.778" style="fill:#2287AF;" width="56.889" height="28.444"/>
<path style="fill:#31BAFD;" d="M297.519,378.828h-83.035c-55.618,0-100.705-45.087-100.705-100.704v-40.657h284.444v40.655
	C398.222,333.741,353.135,378.828,297.519,378.828z"/>
<path style="fill:#2B9ED8;" d="M256,237.468v141.36h41.517c55.618,0,100.705-45.087,100.705-100.705v-40.655H256z"/>
<circle style="fill:#B5F1F4;" cx="256" cy="278.928" r="17.965"/>
<path style="fill:#84DBFF;" d="M273.965,278.921c0-9.921-8.044-17.965-17.965-17.965v35.93
	C265.923,296.886,273.965,288.842,273.965,278.921z"/>
<circle style="fill:#B5F1F4;" cx="256" cy="328.318" r="17.965"/>
<g>
	<path style="fill:#84DBFF;" d="M273.965,328.325c0-9.921-8.044-17.965-17.965-17.965v35.93
		C265.923,346.29,273.965,338.246,273.965,328.325z"/>
	<circle style="fill:#84DBFF;" cx="280.704" cy="303.614" r="17.965"/>
</g>
<circle style="fill:#B5F1F4;" cx="231.296" cy="303.614" r="17.965"/>
<circle style="fill:#84DBFF;" cx="256" cy="303.614" r="17.965"/>
<path style="fill:#79C1D1;" d="M273.965,303.623c0-9.921-8.044-17.965-17.965-17.965v35.93
	C265.923,321.588,273.965,313.544,273.965,303.623z"/>
<g>
</g>
<g>
</g>
<g>
</g>
<g>
</g>
<g>
</g>
<g>
</g>
<g>
</g>
<g>
</g>
<g>
</g>
<g>
</g>
<g>
</g>
<g>
</g>
<g>
</g>
<g>
</g>
<g>
</g>
</svg>
