<?xml version="1.0" encoding="iso-8859-1"?>
<!-- Generator: Adobe Illustrator 19.0.0, SVG Export Plug-In . SVG Version: 6.00 Build 0)  -->
<svg version="1.1" id="Layer_1" xmlns="http://www.w3.org/2000/svg" xmlns:xlink="http://www.w3.org/1999/xlink" x="0px" y="0px"
	 viewBox="0 0 400 400" style="enable-background:new 0 0 400 400;" xml:space="preserve">
<g>
	<circle style="fill:#EFEFEF;" cx="211.047" cy="69.828" r="69.828"/>
	<circle style="fill:#F4A026;" cx="152.92" cy="119.388" r="72.328"/>
	<circle style="fill:#F5C525;" cx="247.392" cy="137.753" r="72.328"/>
	<path style="fill:#3E81C8;" d="M208,263.83c37.61-1.57,71.32-14.19,95.59-36.05c23.06-20.76,37.58-49.87,38.82-85.78H57.59
		c0.42,12.12,2.36,23.49,5.63,34c16.59,53.4,67.52,85.26,128.78,87.81v86.17L90.02,400h219.95L208,349.98V263.83z"/>
	<path style="fill:#EFEFEF;" d="M342.41,142c-1.24,35.91-15.76,65.02-38.82,85.78v-34.47c0-10.66-8.64-19.31-19.31-19.31h-12.39
		c-10.66,0-19.3,8.65-19.3,19.31v17.39c0,10.66-8.64,19.3-19.31,19.3h-0.39c-10.66,0-19.3-8.64-19.3-19.3v-18.39
		c0-10.66-8.64-19.31-19.31-19.31h-5.39c-10.66,0-19.3,8.65-19.3,19.31v4.39c0,10.66-8.64,19.3-19.31,19.3h-7.39
		c-10.66,0-19.3-8.64-19.3-19.3v-1.39c0-10.277-8.661-19.075-18.953-19.307c-4.027-0.091-8.1-0.003-12.138-0.003
		c-7.055,0-14.109,0-21.164,0c-2.705,0-5.41,0-8.114,0c-3.27-10.51-5.21-21.88-5.63-34L342.41,142L342.41,142z"/>
</g>
<g>
</g>
<g>
</g>
<g>
</g>
<g>
</g>
<g>
</g>
<g>
</g>
<g>
</g>
<g>
</g>
<g>
</g>
<g>
</g>
<g>
</g>
<g>
</g>
<g>
</g>
<g>
</g>
<g>
</g>
</svg>
