<?xml version="1.0" encoding="utf-8"?>
<!-- Generator: Adobe Illustrator 26.0.1, SVG Export Plug-In . SVG Version: 6.00 Build 0)  -->
<svg version="1.1" id="Layer_1" xmlns="http://www.w3.org/2000/svg" xmlns:xlink="http://www.w3.org/1999/xlink" x="0px" y="0px"
	 viewBox="0 0 890.841 818.693" enable-background="new 0 0 890.841 818.693" xml:space="preserve">
<g>
	<defs>
		<filter id="Adobe_OpacityMaskFilter" filterUnits="userSpaceOnUse" x="0" y="183.561" width="852.724" height="631.403">
			<feFlood  style="flood-color:white;flood-opacity:1" result="back"/>
			<feBlend  in="SourceGraphic" in2="back" mode="normal"/>
		</filter>
	</defs>
	<mask maskUnits="userSpaceOnUse" x="0" y="183.561" width="852.724" height="631.403" id="SVGID_1_">
		<g filter="url(#Adobe_OpacityMaskFilter)">
			<defs>
				
					<filter id="Adobe_OpacityMaskFilter_00000060717486827888059700000004875919879217089678_" filterUnits="userSpaceOnUse" x="0" y="183.561" width="852.724" height="631.403">
					<feFlood  style="flood-color:white;flood-opacity:1" result="back"/>
					<feBlend  in="SourceGraphic" in2="back" mode="normal"/>
				</filter>
			</defs>
			<mask maskUnits="userSpaceOnUse" x="0" y="183.561" width="852.724" height="631.403" id="SVGID_1_">
				<g filter="url(#Adobe_OpacityMaskFilter_00000060717486827888059700000004875919879217089678_)">
				</g>
			</mask>
			
				<linearGradient id="SVGID_00000117660506158891550730000007438621724279279548_" gradientUnits="userSpaceOnUse" x1="-18.7081" y1="940.7514" x2="899.9236" y2="283.9726">
				<stop  offset="0" style="stop-color:#000000"/>
				<stop  offset="1" style="stop-color:#FFFFFF"/>
			</linearGradient>
			<path mask="url(#SVGID_1_)" fill="url(#SVGID_00000117660506158891550730000007438621724279279548_)" d="M852.2,814.964
				c0-175.316,15.456-379.518-121.581-512.048c-77.653-75.1-193.204-118.157-300.729-119.338
				c-57.452-0.631-120.932,15.663-161.531,58.56c-45.49,48.065-64.359,115.863-105.482,167.353
				c-33.203,41.574-72.695,77.577-101.036,123.034C10.529,614.826,1.28,717.388,0,812.141C0,812.141,852.2,814.967,852.2,814.964z"
				/>
		</g>
	</mask>
	
		<linearGradient id="SVGID_00000072253427826165865860000000126746691789797537_" gradientUnits="userSpaceOnUse" x1="-18.7081" y1="940.7514" x2="899.9236" y2="283.9726">
		<stop  offset="0" style="stop-color:#F2F3F7"/>
		<stop  offset="1" style="stop-color:#E1E5EF"/>
	</linearGradient>
	<path fill="url(#SVGID_00000072253427826165865860000000126746691789797537_)" d="M852.2,814.964
		c0-175.316,15.456-379.518-121.581-512.048c-77.653-75.1-193.204-118.157-300.729-119.338
		c-57.452-0.631-120.932,15.663-161.531,58.56c-45.49,48.065-64.359,115.863-105.482,167.353
		c-33.203,41.574-72.695,77.577-101.036,123.034C10.529,614.826,1.28,717.388,0,812.141C0,812.141,852.2,814.967,852.2,814.964z"/>
	<g>
		<path fill="#B4C0DF" d="M294.147,189.641c5.869-17.011-3.163-35.558-20.174-41.428c-13.716-4.732-28.409,0.243-36.672,11.258
			c0.288-13.766-8.212-26.743-21.928-31.476c-17.011-5.869-35.559,3.163-41.428,20.174c-0.473,1.372-0.84,2.755-1.123,4.14
			l-0.292-0.04c-11.773,36.229,34.844,67.307,41.941,71.787l-0.076,0.221c0,0,0.187,0.023,0.525,0.061
			c0.289,0.179,0.451,0.276,0.451,0.276l0.076-0.221c8.35,0.849,64.213,5.129,77.285-30.651l-0.254-0.148
			C293.109,192.327,293.674,191.013,294.147,189.641z"/>
		
			<path fill="none" stroke="#B4C0DF" stroke-width="4.1769" stroke-linecap="round" stroke-miterlimit="10" stroke-dasharray="10.0246" d="
			M336.078,549.257c42.52-12.194,95.204-35.585,125.263-69.416c13.257-14.92,21.425-35.886,16.059-55.11
			c-4.051-14.511-15.252-26.187-28.138-33.994c-55.741-33.773-128.068-33.283-187.031-60.867
			c-29.668-13.879-56.294-35.92-52.052-72.043c2.647-22.538,17.057-42.713,35.893-55.37c23.29-15.649,51.62-22.242,78.602-15.103
			c24.126,6.383,45.977,19.153,67.783,31.29c67.677,37.668,143.415,72.921,222.734,68.887c10.946-0.557,22.129-1.963,31.869-6.997
			c26.077-13.48,21.898-36.825,3.112-55.525c-69.305-68.987-174.736-55.796-253.896-105.964
			c-13.449-8.523-25.173-20.629-30.408-35.666c-17.786-51.088,46.098-79.248,86.74-79.515
			c99.028-0.652,181.8,80.392,271.904,111.979"/>
		<g>
			<g>
				<defs>
					<path id="XMLID_143_" d="M552.449,214.069l-161.858-21.072c-2.732-0.356-4.659-2.859-4.303-5.591l12.514-96.123
						c0.356-2.732,2.859-4.659,5.591-4.303l161.858,21.072c2.732,0.356,4.659,2.859,4.303,5.591l-12.514,96.123
						C557.685,212.499,555.181,214.425,552.449,214.069z"/>
				</defs>
				<use xlink:href="#XMLID_143_"  overflow="visible" fill="#B4C0DF"/>
				<clipPath id="XMLID_00000119087621060524946210000007256885968500707506_">
					<use xlink:href="#XMLID_143_"  overflow="visible"/>
				</clipPath>
				<polygon clip-path="url(#XMLID_00000119087621060524946210000007256885968500707506_)" fill="#FFFFFF" points="381.501,171.341 
					452.395,133.718 500.158,184.773 528.047,165.734 563.689,201.517 560.552,225.612 378.033,201.851 				"/>
				
					<ellipse transform="matrix(0.7925 -0.6099 0.6099 0.7925 25.0521 332.8612)" clip-path="url(#XMLID_00000119087621060524946210000007256885968500707506_)" fill="#FFFFFF" cx="501.658" cy="129.617" rx="12.136" ry="12.136"/>
			</g>
		</g>
		<g>
			<path fill="#FFFFFF" d="M404.623,294.36c-51.45,0-93.158,29.905-93.158,66.794c0,21.964,14.788,41.448,37.612,53.622
				l-8.191,32.446c-0.689,2.729,2.194,4.977,4.673,3.643l44.191-23.774c4.845,0.558,9.81,0.857,14.874,0.857
				c51.45,0,93.159-29.905,93.159-66.794C497.782,324.265,456.073,294.36,404.623,294.36z"/>
			<g>
				<circle fill="#8296C9" cx="362.169" cy="362.231" r="9.192"/>
				<circle fill="#8296C9" cx="404.623" cy="362.231" r="9.192"/>
				<circle fill="#8296C9" cx="447.078" cy="362.231" r="9.192"/>
			</g>
		</g>
		<g>
			<polygon fill="#B4C0DF" points="859.447,81.14 760.867,81.566 743.58,126.076 			"/>
			<polygon fill="#FFFFFF" points="760.867,81.566 733.087,46.882 859.447,81.14 			"/>
			<polygon fill="#FFFFFF" points="780.902,111.602 779.387,154.211 859.447,81.14 			"/>
		</g>
	</g>
	<g>
		<defs>
			
				<rect id="SVGID_00000068640053930397541900000014649724022392632720_" x="412.198" y="512.864" width="478.643" height="302.104"/>
		</defs>
		<clipPath id="SVGID_00000045615912364909317290000013366139449424923831_">
			<use xlink:href="#SVGID_00000068640053930397541900000014649724022392632720_"  overflow="visible"/>
		</clipPath>
		<g clip-path="url(#SVGID_00000045615912364909317290000013366139449424923831_)">
			<g>
				<defs>
					<path id="XMLID_248_" d="M647.655,762.389c5.212-13.969,14.054-27.091,26.924-34.619c7.02-4.106,15.03-6.449,21.669-11.147
						c13.842-9.797,19.074-27.622,29.384-41.086c8.83-11.531,21.71-19.897,35.835-23.277c9.839-2.354,20.41-2.432,29.388-7.097
						c5.717-2.971,10.365-7.602,15.526-11.458c5.677-4.242,12.034-7.574,18.752-9.829c6.734-2.26,14.485-3.339,20.682,0.134
						c6.088,3.412,9.272,10.555,9.943,17.502c2.165,22.431-16.661,40.557-27.255,60.447c-10.898,20.46-14.27,45.928-31.751,61.153
						c-8.228,7.166-18.764,11.192-27.268,18.028c-6.075,4.884-10.953,11.072-16.544,16.504
						c-15.753,15.305-37.525,23.844-59.387,24.455c-10.934,0.306-21.945-1.375-32.211-5.185c-7.474-2.774-18.642-7.491-20.694-16.2
						c-1.318-5.597,0.278-11.817,1.331-17.319C643.343,776.264,645.115,769.196,647.655,762.389z"/>
				</defs>
				<use xlink:href="#XMLID_248_"  overflow="visible" fill="#668C68"/>
				<clipPath id="XMLID_00000142869861607270123160000007576881289710266023_">
					<use xlink:href="#XMLID_248_"  overflow="visible"/>
				</clipPath>
				
					<path clip-path="url(#XMLID_00000142869861607270123160000007576881289710266023_)" fill="none" stroke="#A6C4A8" stroke-width="1.8406" stroke-miterlimit="10" d="
					M678.356,808.094c10.243-22.762,20.985-46.222,39.548-62.908c9.619-8.646,20.969-15.113,31.233-22.982
					c20.124-15.431,35.667-35.911,53.097-54.33c17.43-18.419,38.02-35.478,62.81-40.822"/>
			</g>
			<g>
				<defs>
					<path id="XMLID_247_" d="M575.261,787.174c-9.917-16.742-9.349-39.136,1.403-55.354c5.856-8.833,14.603-16.312,16.767-26.686
						c2.002-9.595-2.154-19.263-3.714-28.94c-2.858-17.724,3.652-36.69,16.791-48.924c8.398-7.819,19.578-13.434,24.374-23.857
						c3.532-7.677,2.87-16.513,3.281-24.954c0.714-14.657,5.336-29.787,16.033-39.833c10.696-10.046,28.335-13.416,40.373-5.024
						c10.151,7.076,14.103,20.292,14.793,32.647c0.69,12.355-1.167,24.826,0.525,37.085c2.003,14.513,8.837,27.834,13.692,41.656
						c4.855,13.822,7.66,29.477,1.658,42.842c-5.719,12.734-18.779,21.839-21.613,35.507c-2.256,10.88,2.582,21.832,4.03,32.848
						c2.717,20.673-13.334,36.429-25.608,53.284c-6.242,8.571-7.788,9.911-16.418,10.411c-8.2,0.475-34.96,0.926-43.054,0.115
						c-12.669-1.269-13.606-8.065-24.915-14.711C586.165,800.882,579.701,794.669,575.261,787.174z"/>
				</defs>
				<use xlink:href="#XMLID_247_"  overflow="visible" fill="#A6C4A8"/>
				<clipPath id="XMLID_00000070113966886390404420000000267927333384043690_">
					<use xlink:href="#XMLID_247_"  overflow="visible"/>
				</clipPath>
				
					<path clip-path="url(#XMLID_00000070113966886390404420000000267927333384043690_)" fill="none" stroke="#668C68" stroke-width="1.8406" stroke-miterlimit="10" d="
					M629.775,833.446c0.241-34.638,16.878-67.486,17.88-102.111c0.389-13.441-1.597-26.864-1.272-40.307
					c0.711-29.398,12.334-57.242,20.677-85.44c9.207-31.115,14.516-64.302,7.614-96.008"/>
			</g>
			<g>
				<defs>
					<path id="XMLID_246_" d="M644.273,748.912c-7.723-10.311-20.99-14.943-29.867-24.278
						c-16.927-17.801-13.308-46.131-20.101-69.737c-1.832-6.367-4.672-12.751-9.822-16.919c-6.145-4.972-14.495-5.998-21.753-9.13
						c-26.737-11.538-37.566-50.656-66.528-53.694c-3.275-0.344-6.685-0.139-9.689,1.21c-9.878,4.436-10.753,18.508-6.765,28.575
						c3.988,10.067,11.245,19.004,12.716,29.732c2.238,16.312-9.491,32.683-5.34,48.616c4.674,17.94,26.672,25.751,34.994,42.318
						c7.053,14.04,2.787,31.002,5.713,46.439c3.899,20.574,21.029,37.147,40.889,43.785c17.792,5.948,39.627,5.235,57.579-0.247
						c14.452-4.413,20.305-16.952,23.492-30.838C652.542,772.75,651.893,759.086,644.273,748.912z"/>
				</defs>
				<use xlink:href="#XMLID_246_"  overflow="visible" fill="#668C68"/>
				<clipPath id="XMLID_00000143580053702408076790000010905894136961658045_">
					<use xlink:href="#XMLID_246_"  overflow="visible"/>
				</clipPath>
				
					<path clip-path="url(#XMLID_00000143580053702408076790000010905894136961658045_)" fill="none" stroke="#A6C4A8" stroke-width="1.8406" stroke-miterlimit="10" d="
					M619.748,823.703c-8.653-12.881-17.305-25.763-25.958-38.644c-11.708-17.43-23.525-35.069-30.813-54.761
					c-6.38-17.237-9.138-35.659-15.683-52.834c-16.114-42.285-53.997-74.219-66.588-117.683"/>
			</g>
		</g>
	</g>
	<g>
		<path fill="#F4C54E" d="M211.777,509.736l67.06,85.354c0,0,3.147,18.12-7.226,29.266c-10.373,11.146-78.263,0.342-78.263,0.342
			L211.777,509.736z"/>
		<path fill="#F9DD89" d="M78.108,674.023c-1.093,27.23-10.872,32.62,37.162,57.483c0,0,68.923,31.424,126.027-20.246
			l-13.632-64.088c-5.549-18.387-6.632-60.482-3.742-79.469c1.65-10.843,2.724-22.615,1.33-30.22
			c-5.735-31.293-42.812-54.292-42.812-54.292s-29.635-2.275-29.643-2.276c-3.746-0.288-10.234,3.782-13.507,5.217
			c-31.083,13.633-53.133,36.364-67.978,66.977c0,0-32.815,78.344-23.155,99.277C57.819,673.319,78.108,674.023,78.108,674.023z"/>
		<path fill="#F4C54E" d="M78.108,674.023c0,0,16.57-0.735,28.73-2.109c12.16-1.375-30.267,22.273-30.267,22.273L78.108,674.023z"/>
		<path fill="#F4C54E" d="M124.3,624.147l-22.314-4.322c0,0,19.725-49.9,17.851-67.305
			C119.837,552.52,131.628,588.334,124.3,624.147z"/>
		<path fill="#F1A29F" d="M247.835,643.652"/>
		<g>
			<path fill="#DA8C8D" d="M229.755,633.653c-4.127-1.016-19.729,2.989-29.37,5.68c1.377-4.37,1.642-12.012,1.642-12.012
				l-13.286,13.32h0c-13.02-3.219-56.222-13.425-78.744-12.948c0,0-18.915,10.763-15.245,33.367c0.753,4.64,4.8,8.026,9.499,7.907
				c14.896-0.376,49.388-6.135,83.202-8.272c0,0,12.04,2.462,26.58-2.623C228.574,652.989,235.847,635.153,229.755,633.653z"/>
		</g>
		<g>
			<g>
				<defs>
					<path id="XMLID_159_" d="M225.299,682.326c0,0,60.337-84.026,119.99-73.843c59.653,10.183,170.019,162.484,170.019,162.484
						l-17.734,18.32c0,0-127.611-83.669-143.15-103.633c0,0-72.309,119.504-154.007,126.56
						c-90.787,7.841-118.342-27.003-116.494-102.861C83.924,709.351,202.99,657.027,225.299,682.326z"/>
				</defs>
				<use xlink:href="#XMLID_159_"  overflow="visible" fill="#39548B"/>
				<clipPath id="XMLID_00000105429258954031312520000006594201571485295758_">
					<use xlink:href="#XMLID_159_"  overflow="visible"/>
				</clipPath>
				<path clip-path="url(#XMLID_00000105429258954031312520000006594201571485295758_)" fill="#1F1949" d="M219.861,720.868
					c-16.978,16.371-24.499,39.917-36.191,60.4c-6.479,11.351-14.319,21.86-21.407,32.842c-0.708,1.096-1.431,2.27-1.464,3.574
					c-0.082,3.278,3.852,4.941,7.059,5.624c29.465,6.277,60.403,5.528,89.53-2.167c12.399-3.276,25.186-8.308,32.799-18.628
					c5.387-7.302,7.449-16.353,8.168-25.251c0.444-5.493,1.883-13.048-1.546-17.905c-1.704-2.414-4.45-3.805-7.156-4.799
					c-4.571-1.68-9.206-3.167-13.754-4.916c-9.246-3.556-18.312-7.579-27.153-12.048c-8.841-4.469-17.456-9.384-25.8-14.724
					C221.913,722.21,220.885,721.542,219.861,720.868z"/>
				<path clip-path="url(#XMLID_00000105429258954031312520000006594201571485295758_)" fill="#1F1949" d="M127.317,728.195
					c1.224-6.262,1.419-13.207-2.092-18.534c-1.9-2.884-4.737-5.036-7.746-6.731c-10.961-6.174-25.732-6.318-35.488,1.625
					c-3.828,3.117-6.713,7.251-9.061,11.594c-2.685,4.966-4.739,10.308-5.672,15.875c-2.326,13.885,2.788,28.64,12.693,38.645
					c1.939,1.958,4.127,3.774,6.667,4.894c2.17,0.957,3.897,0.917,5.851-0.42c4.08-2.791,8.298-5.318,12.083-8.524
					c3.709-3.142,7.078-6.684,10.04-10.538c2.974-3.868,5.539-8.051,7.628-12.461c2.079-4.39,3.685-9.007,4.746-13.748
					C127.09,729.314,127.207,728.755,127.317,728.195z"/>
				<path clip-path="url(#XMLID_00000105429258954031312520000006594201571485295758_)" fill="#1F1949" d="M327.305,723.751
					l-29.259-20.399c0,0,29.691-47.902,49.109-37.777c19.418,10.125,59.48,75.396,59.48,75.396l-52.801-47.291L327.305,723.751"/>
			</g>
			<polygon fill="#1F1949" points="294.676,563.633 134.784,611.327 138.162,705.33 297.896,653.224 			"/>
			<path fill="#39548B" d="M90.828,756.709c0,0,13.561-114.638,92.009-106.673C261.284,658,406.636,786.933,406.636,786.933
				l-11.81,19.674c0,0-148.726-41.421-171.322-68.168c0,0,13.008,84.311-62.437,75.187C85.62,804.503,90.828,756.709,90.828,756.709
				z"/>
		</g>
		<path fill="#1F1949" d="M389.844,807.696l15.813-23.822l15.792,12.395c0,0,25.505-13.954,52.095-6.727l-51.301,29.151
			L389.844,807.696z"/>
		<path fill="#1F1949" d="M495.784,791.136l21.009-21.703L527.55,786.5c0,0,20.304-12.308,41.337-7.323l-43.232,35.14
			L495.784,791.136z"/>
		<path fill="#343766" d="M210.6,401.422c5.093,6.504,7.951,15.167,8.436,23.285c1.259,21.097,0.862,43.133-8.444,62.108
			c-4.151,8.464-10.98,16.689-20.313,18.016c-6.999,0.995-14.123-2.237-19.161-7.197c-5.039-4.959-8.258-11.47-10.757-18.084
			c-6.015-15.917-8.332-33.557-4.35-50.1c2.843-11.81,9.405-23.499,18.392-31.773c3.718-3.423,8.354-6.07,13.388-6.518
			C197.681,390.281,205.335,394.698,210.6,401.422z"/>
		<g>
			<g>
				<g>
					<g>
						<g>
							<defs>
								<path id="XMLID_158_" d="M207.792,437.799c0,0-4.333,49.835-40.438,35.431c-25.827-10.304-17.21-53.073,2.238-64.204
									C189.04,397.895,215.996,395.498,207.792,437.799z"/>
							</defs>
							<use xlink:href="#XMLID_158_"  overflow="visible" fill="#DA8C8D"/>
							<clipPath id="XMLID_00000116923740333418032720000013592544608895098027_">
								<use xlink:href="#XMLID_158_"  overflow="visible"/>
							</clipPath>
							<path clip-path="url(#XMLID_00000116923740333418032720000013592544608895098027_)" fill="#C17276" d="M200.04,436.509
								c-5.558,2.787-11.686,4.257-17.826,5.236c-11.959,1.906-24.202,2.02-36.194,0.336c-0.913-8.217-0.834-16.545,0.235-24.743
								c0.371-2.847,0.875-5.725,2.141-8.302c1.867-3.801,5.26-6.659,8.936-8.762c8.143-4.658,17.8-6.008,27.18-5.861
								c5.54,0.087,11.263,0.724,16.065,3.487c5.574,3.208,9.08,8.867,11.12,14.821c1.043,3.043,1.834,6.263,2.215,9.461
								c0.179,1.498-0.369,2.144-1.203,3.301c-1.027,1.424-2.006,2.832-3.215,4.114C206.801,432.456,203.542,434.753,200.04,436.509
								z"/>
						</g>
						<path fill="#DA8C8D" d="M152.834,440.806c0,0,0.334,19.135-3.291,46.407c-0.574,4.32,1.584,7.761,4.63,10.864
							c4.369,4.452,18.825,16.076,24.573,9.577c4.864-5.499-1.182-59.187-1.182-59.187L152.834,440.806z"/>
						<path fill="#C17276" d="M179.988,476.139c0,0-5.818,0.14-14.452-8.712c0,0,2.158,14.783,14.962,18.77
							C180.499,486.197,180.085,476.647,179.988,476.139z"/>
					</g>
				</g>
			</g>
			<path fill="#343766" d="M206.293,427.771c-1.122-0.73-1.596-2.495-0.653-3.444c-0.492,3.686-4.983,5.112-8.649,5.734
				c-2.221,0.377-4.688,0.708-6.571-0.53c-1.883-1.237-2.156-4.724-0.012-5.416c0.68,3.244-3.249,5.468-6.523,5.987
				c-1.915,0.303-3.977,0.397-5.691-0.509c-1.714-0.906-2.863-3.116-2.008-4.856c0.019,3.298-2.424,6.244-5.407,7.65
				c-2.983,1.406-6.41,1.522-9.699,1.275c-1.025-0.077-2.078-0.195-2.985-0.679c-1.186-0.632-1.979-1.814-2.556-3.028
				c-2.037-4.29-1.857-9.441-0.077-13.844c1.78-4.403,5.044-8.097,8.844-10.946c6.517-4.887,14.672-7.419,22.816-7.581
				c6.81-0.136,13.812,1.422,19.342,5.397c2.132,1.533,3.998,3.44,5.484,5.606c1.5,2.187,2.322,4.561,3.28,7.006
				c0.652,1.663,1.616,3.426,1.679,5.25c0.069,2.007-1.261,3.671-2.681,4.948C212.344,427.486,208.75,429.369,206.293,427.771z"/>
			<path fill="#343766" d="M160.759,482.622c-1.596,13.054-6.63,23.724-21.9,26.448c-8.886,1.586-18.258,1.06-26.617-2.347
				c-18.477-7.531-26.2-29.215-21.64-47.714c3.652-14.814,13.992-21.482,23.738-31.846c10.917-11.61,19.244-29.58,34.819-35.265
				c13.117-4.788,28.812-3.082,41.374,2.608c5.16,2.338,10.223,6.825,10.001,12.486c-0.24,6.134-6.2,9.732-11.281,11.779
				c-5.94,2.393-12.547,3.155-18.229,6.185c-3.718,1.983-6.037,5.052-7.331,9.027C159.486,446.909,162.722,466.569,160.759,482.622z
				"/>
		</g>
	</g>
</g>
</svg>
