<?xml version="1.0" encoding="utf-8"?>
<!-- Generator: Adobe Illustrator 26.0.1, SVG Export Plug-In . SVG Version: 6.00 Build 0)  -->
<svg version="1.1" id="Layer_1" xmlns="http://www.w3.org/2000/svg" xmlns:xlink="http://www.w3.org/1999/xlink" x="0px" y="0px"
	 viewBox="0 0 3016.583 1545.253" enable-background="new 0 0 3016.583 1545.253" xml:space="preserve">
<g>
	<g>
		<path fill="#F4C54E" d="M2627.836,850.391L2453.53,689.237l-0.565,50.328c0,0,108.944,197.455,154.062,195.182
			C2652.145,932.473,2627.836,850.391,2627.836,850.391z"/>
		<g>
			<path fill="#CAD2EA" d="M2620.01,815.404V680.181h-62.303c-8.379-37.962-23.497-73.389-44.046-104.964l44.457-44.457
				l-95.616-95.617l-44.792,44.791c-31.528-20.194-66.842-34.986-104.63-43.121v-63.563h-135.223v63.563
				c-37.788,8.135-73.102,22.926-104.63,43.121l-44.791-44.791l-95.617,95.617l44.457,44.457
				c-20.55,31.575-35.668,67.002-44.046,104.964h-62.303v135.222h61.601c8.058,38.397,22.99,74.264,43.471,106.24l-43.181,43.181
				l95.617,95.617l42.846-42.846c32.021,20.84,68.004,36.094,106.575,44.397v60.341h135.223v-60.342
				c38.571-8.304,74.554-23.557,106.575-44.397l42.846,42.846l95.617-95.617l-43.181-43.181
				c20.482-31.977,35.414-67.844,43.471-106.241H2620.01z M2245.468,865.817c-64.294,0-116.414-52.12-116.414-116.414
				c0-64.294,52.12-116.414,116.414-116.414s116.414,52.12,116.414,116.414C2361.882,813.697,2309.762,865.817,2245.468,865.817z"/>
		</g>
		<g>
			<g>
				<g>
					<path fill="#DA8C8D" d="M2578.377,795.005c0,0-12.48,68.898,22.113,63.669c34.593-5.229,51.877-47.202,37.56-71.381
						C2623.732,763.115,2583.723,749.689,2578.377,795.005z"/>
					<path fill="#DA8C8D" d="M2642.751,800.792c0,0,1.771,43.16,15.703,75.777c0,0-22.062,20.469-39.068,21.691
						c-17.006,1.223-4.931-73.77-4.931-73.77L2642.751,800.792z"/>
				</g>
			</g>
		</g>
		<g>
			<path fill="#39548B" d="M2705.792,1300.038l154.982,174.083l-0.65,11.395l-8.286,6.638c0,0-151.658-82.75-207.638-126.289
				c-5.868-4.564-9.758-11.192-10.9-18.537c-1.309-8.414-2.968-19.173-3.46-22.77
				C2628.99,1318.351,2705.792,1300.038,2705.792,1300.038z"/>
			<path fill="#39548B" d="M2721.427,1331.551c0,0,45.335-247.16-32.633-287.232l-93.166,58.615c0,0,27.397,168.49,35.225,229.299"
				/>
			<path fill="#1F1949" d="M2857.104,1467.837l-17.022,17.84l11.756,6.477c0,0-15.088,27.295-13.093,47.298l46.045-42.644
				L2857.104,1467.837z"/>
			<path fill="#343766" d="M2616.318,1233.281c0,0,69.446-32.412,82.619-60.595c0,0-14.397,89.23-71.958,131.45L2616.318,1233.281z"
				/>
			<g>
				<path fill="#39548B" d="M2602.72,1085.712c0,0-95.712,141.346-131.753,190.945c-36.041,49.599-117.677,227.201-117.677,227.201
					l18.821,12.553l165.198-178.088c0,0,202.603-148.645,173.399-231.301L2602.72,1085.712z"/>
				<path fill="#1F1949" d="M2376.286,1515.323l-23.189-15.976l-9.458,17.581c0,0-36.654,5.229-48.78,23.655h61.526
					L2376.286,1515.323z"/>
			</g>
		</g>
		<path fill="#F9DD89" d="M2575.448,1128.413c0,0-23.635-187.984,13.195-232.535c36.831-44.552,58.228-45.097,58.228-45.097
			s41.531,3.78,76.347,187.575c5.198,27.442,21.049,33.487,21.243,64.391C2744.722,1144.291,2600.596,1152.722,2575.448,1128.413z"
			/>
		<path fill="#C17276" d="M2610.903,855.831l1.467-15.734c0,0-8.988,16.624-26.843,14.568
			C2585.527,854.665,2592.868,864.227,2610.903,855.831z"/>
		<path fill="#343766" d="M2597.106,810.634c-2.503-3.935-5.287-7.633-8.103-11.344c-2.298-3.029-6.573-4.372-9.745-6.363
			c-4.392-2.757-8.536-5.972-11.959-9.888c-5.791-6.625-9.393-15.653-7.734-24.294c1.659-8.641,9.532-16.228,18.322-15.824
			c1.845,0.085,3.672,0.496,5.518,0.458c2.993-0.062,5.819-1.292,8.724-2.013c8.331-2.068,17.635,0.325,23.934,6.156
			c3.434,3.18,6.129,7.37,10.382,9.324c3.234,1.486,6.923,1.459,10.454,1.91c7.772,0.993,15.864,5.209,18.342,12.642
			c0.86,2.579,0.978,5.338,1.09,8.054c0.468,11.428,0.936,22.856,1.404,34.284c0.167,4.086,0.307,8.332-1.313,12.087
			c-2.492,5.775-8.454,8.913-14.283,10.345c-5.934,1.458-12.221,1.197-18.3,0.579c-3.745-0.381-7.794-1.286-10.139-4.231
			c-1.929-2.422-2.336-5.803-4.312-8.187c1.528-2.927,3.073-5.899,3.763-9.127c0.69-3.229,0.43-6.803-1.438-9.525
			c-1.868-2.722-5.581-4.286-8.642-3.049C2599.86,803.927,2597.762,807.234,2597.106,810.634z"/>
		<path fill="#F9DD89" d="M2588.643,895.878c0,0-44.058,82.876-62.129,140.098c0,0-55.22,0.122-154.102,8.343v26.292
			c0,0,150.319,53.473,210.709,24.161C2643.511,1065.46,2650.252,910.913,2588.643,895.878z"/>
		<path fill="#F4C54E" d="M2572.379,1098.88c0,0,51.731-33.648,57.454-80.174c0,0,1.453,102.731-54.385,109.708L2572.379,1098.88z"
			/>
		<path fill="#DA8C8D" d="M2372.413,1048.126h-8.817c0,0-7.05-4.7-10.255-5.555c-3.205-0.854,3.418,6.837,3.418,6.837
			s-31.822,6.837-28.729,12.605c3.093,5.768,35.78,2.137,35.78,2.137l8.604,2.564V1048.126z"/>
	</g>
	<g>
		<g>
			<g>
				<path fill="none" stroke="#1F1949" stroke-width="0.8472" stroke-miterlimit="10" d="M611.289,1433.888"/>
				<path fill="none" stroke="#1F1949" stroke-width="0.8472" stroke-miterlimit="10" d="M566.695,1537.534"/>
				<path fill="none" stroke="#1F1949" stroke-width="0.8472" stroke-miterlimit="10" d="M638.429,1455.355"/>
				<path fill="none" stroke="#1F1949" stroke-width="0.8472" stroke-miterlimit="10" d="M587.364,1489.495"/>
			</g>
		</g>
	</g>
	<path fill="#D4DAEE" d="M2828.619,303.018v-58.342h-26.881c-3.615-16.379-10.138-31.664-19.004-45.287l19.181-19.181
		l-41.254-41.254l-19.326,19.326c-13.603-8.713-28.839-15.095-45.143-18.605v-27.425h-58.343v27.425
		c-16.304,3.51-31.54,9.892-45.143,18.605l-19.325-19.325l-41.254,41.254l19.181,19.181c-8.866,13.623-15.389,28.908-19.004,45.287
		h-26.881v58.342h26.578c3.477,16.566,9.919,32.042,18.756,45.838l-18.631,18.63l41.254,41.254l18.486-18.486
		c13.816,8.992,29.341,15.573,45.982,19.155v26.035h58.343V409.41c16.642-3.583,32.167-10.164,45.982-19.155l18.486,18.486
		l41.254-41.254l-18.63-18.63c8.837-13.796,15.279-29.272,18.756-45.838H2828.619z M2667.021,324.769
		c-27.74,0-50.228-22.488-50.228-50.227c0-27.74,22.488-50.228,50.228-50.228c27.74,0,50.227,22.488,50.227,50.228
		C2717.248,302.281,2694.761,324.769,2667.021,324.769z"/>
	<g>
		<g>
			<g>
				<g>
					<defs>
						<path id="XMLID_23_" d="M1890.351,1356.471H271.505c-12.158,0-22.014-9.856-22.014-22.015V117.145
							c0-12.158,9.856-22.015,22.014-22.015h1618.846c12.158,0,22.014,9.856,22.014,22.015v1217.311
							C1912.365,1346.615,1902.509,1356.471,1890.351,1356.471z"/>
					</defs>
					<use xlink:href="#XMLID_23_"  overflow="visible" fill="#CAD2EA"/>
					<clipPath id="XMLID_00000085970705495735868920000013719820604198796707_">
						<use xlink:href="#XMLID_23_"  overflow="visible"/>
					</clipPath>
				</g>
				<g>
					
						<ellipse transform="matrix(0.2317 -0.9728 0.9728 0.2317 84.7747 443.1508)" fill="#343766" cx="322.944" cy="167.905" rx="19.901" ry="19.901"/>
					
						<ellipse transform="matrix(0.9258 -0.3781 0.3781 0.9258 -35.0514 157.2736)" fill="#EAEDF7" cx="383.015" cy="167.905" rx="19.901" ry="19.901"/>
					
						<ellipse transform="matrix(0.7071 -0.7071 0.7071 0.7071 11.0501 362.4871)" fill="#EAEDF7" cx="443.086" cy="167.905" rx="19.901" ry="19.901"/>
				</g>
			</g>
			<g>
				<path fill="#8296C9" d="M1636.165,1241.674h-216.623V401.76c0-10.393,8.425-18.819,18.819-18.819h178.986
					c10.393,0,18.819,8.425,18.819,18.819V1241.674z"/>
				<path fill="#8296C9" d="M1234.019,1241.674h-216.623V575.205c0-10.393,8.425-18.819,18.819-18.819h178.986
					c10.393,0,18.819,8.425,18.819,18.819V1241.674z"/>
				<path fill="#8296C9" d="M826.874,1241.674H610.251V761.985c0-10.393,8.425-18.819,18.819-18.819h178.986
					c10.393,0,18.819,8.425,18.819,18.819V1241.674z"/>
			</g>
		</g>
		<g>
			<path fill="#343766" d="M1026.675,1021.874c-8.918,0.001-17.745-0.752-26.479-2.261c-46.429-8.021-84.667-36.848-121.647-64.725
				c-31.906-24.053-64.899-48.924-103.117-60.493c-78.65-23.809-170.932-5.048-235.103,47.794c-0.814,0.667-2.018,0.555-2.688-0.261
				c-0.67-0.815-0.554-2.018,0.26-2.688c65.13-53.632,158.801-72.669,238.637-48.502c38.869,11.767,72.137,36.847,104.31,61.1
				c74.481,56.147,97.621,60.144,119.998,64.011c39.349,6.8,80.827-2.15,123.282-26.593c31.646-18.22,63.641-44.443,100.69-82.527
				c32.392-33.295,64.223-68.219,95.007-101.992c35.79-39.267,72.799-79.871,110.926-118.18
				c32.497-32.652,68.328-66.086,110.107-89.434c45.842-25.618,94.659-35.651,137.459-28.252c1.039,0.18,1.736,1.168,1.557,2.207
				c-0.18,1.039-1.159,1.737-2.207,1.557c-41.939-7.252-89.863,2.628-134.945,27.822c-41.369,23.118-76.962,56.338-109.264,88.794
				c-38.068,38.25-75.048,78.822-110.811,118.058c-30.804,33.797-62.656,68.743-95.091,102.084
				c-37.304,38.344-69.564,64.773-101.523,83.173C1092.17,1012.063,1058.859,1021.873,1026.675,1021.874z"/>
			<g>
				
					<ellipse transform="matrix(0.9221 -0.387 0.387 0.9221 -286.4166 345.0481)" fill="#343766" cx="713.74" cy="883.858" rx="18.189" ry="18.189"/>
				<circle fill="#343766" cx="1133.538" cy="983.849" r="18.189"/>
				<circle fill="#343766" cx="1534.472" cy="600.378" r="18.189"/>
			</g>
		</g>
	</g>
	<g>
		<path fill="#343766" d="M330.307,928.539c0.26,5.555-0.755,11.352-3.971,15.889c-3.217,4.537-8.928,7.533-14.392,6.497
			c-1.334-0.253-2.64-0.741-3.729-1.552c-3.087-2.301-3.805-6.572-4.064-10.414c-0.478-7.084-0.224-14.218,0.757-21.25
			c0.795-5.696,2.873-14.3,10.065-14.556c6.743-0.24,10.51,7.541,12.6,12.813C329.161,919.97,330.106,924.234,330.307,928.539z"/>
		<g>
			<g>
				<g>
					<path fill="#343766" d="M532.123,1243.694c0,0,38.351,169.413,38.351,243.142l-19.175,3.701c0,0-53.162-139.781-76.186-188.859
						L532.123,1243.694z"/>
					<g>
						<g>
							<path fill="#DA8C8D" d="M355.233,971.77c0,0,31.614-12.972,45.23-28.833c13.616-15.861,43.686-132.97,43.686-132.97
								l20.984,6.669c0,0,4.037,149.355-39.567,179.778c-41.24,28.774-45.47,30.317-45.47,30.317L355.233,971.77z"/>
							<path fill="#DA8C8D" d="M473.729,786.693c-0.341-7.871-12.616-19.165-18.754-18.823c-3.355,0.187-6.544,13.781-8.748,26.073
								c-1.709-4.981-5.519-9.977-6.636-8.958c-1.204,1.099,3.111,19.094,4.274,23.837c-0.398,2.837-0.619,4.62-0.619,4.62v3.195
								h21.887C465.133,816.636,474.07,794.564,473.729,786.693z"/>
						</g>
						<path fill="#F9DD89" d="M292.643,999.153c0,0,94.619-44.425,99.877-50.814c5.258-6.389,23.523-46.387,23.523-46.387
							l44.058,6.257c0,0-2.893,66.575-32.144,90.945s-91.106,83.771-91.106,83.771L292.643,999.153z"/>
						<path fill="#39548B" d="M220.077,1224.725c0,0,278.004-26.904,307.875,10.133c29.871,37.037-56.224,281.031-56.224,281.031
							h-20.583c0,0,4.206-150.301,3.014-204.274c0,0-140.848,64.377-186.971,33.427
							C221.064,1314.091,220.077,1224.725,220.077,1224.725z"/>
						<path fill="#F9DD89" d="M222.021,1224.446c0,0-19.728,2.44-18.705-35.884c1.023-38.325-22.655-151.941,68.606-187.666
							c80.887-31.664,79.605,132.672,79.605,132.672l25.635,88.836L222.021,1224.446z"/>
						<g>
							<g>
								<path fill="#DA8C8D" d="M317.536,925.375c0,0,25.017,58.044-6.368,60.539c-31.385,2.495-55.109-30.879-47.503-55.083
									C271.271,906.627,303.591,886.612,317.536,925.375z"/>
								<path fill="#DA8C8D" d="M262.303,943.669c0,0,6.135,32.354,2.832,62.078c-0.545,4.904,2.731,8.542,6.539,11.663
									c5.462,4.478,19.128,9.323,28.83,7.779c15.154-2.413-8.559-66.478-8.559-66.478L262.303,943.669z"/>
							</g>
							<path fill="#C17276" d="M300.456,985.313c0,0-5.723,0.301-16.522-8.608c0,0,4.234,16.376,19.134,19.301
								C303.068,996.006,300.626,985.872,300.456,985.313z"/>
						</g>
						<path fill="#DA8C8D" d="M292.832,1162.269l58.696,27.088l-6.815,33.189l-73.455-12.813c-2.558-0.446-4.662-2.267-5.462-4.745
							c-3.154-9.766-7.911-34.418,20.423-43.204C288.399,1161.107,290.759,1161.313,292.832,1162.269z"/>
						<path fill="#F9DD89" d="M265.135,1005.747c0,0-96.845,22.178-83.248,122.009c10.023,73.588,50.764,66.577,50.764,66.577
							L265.135,1005.747z"/>
						<path fill="#F4C54E" d="M346.282,1073.956c0,0-9.254-35.668-17.254-48.768c0,0,25.05,27.024,24.749,41.55
							C353.777,1066.738,352.953,1067.685,346.282,1073.956z"/>
						<g>
							<path fill="#C17276" d="M263.425,1188.914c0,0,28.293,21.418,82.828,26.373l-1.539,7.26l-74.62-13.016
								c-1.749-0.305-3.178-1.557-3.72-3.254C265.103,1202.306,263.053,1194.826,263.425,1188.914z"/>
						</g>
						<g>
							<polygon fill="#1F1949" points="509.021,1222.902 344.713,1222.902 366.48,1115.185 530.787,1115.185 							"/>
							
								<ellipse transform="matrix(0.7697 -0.6384 0.6384 0.7697 -647.749 551.4747)" fill="#F5F9FD" cx="440.487" cy="1173.538" rx="15.591" ry="10.524"/>
						</g>
						<path fill="#F4C54E" d="M270.093,1209.53c0,0-45.927-12.967-66.795-27.359c0,0-0.319,12.152,0.323,17.018
							C203.621,1199.188,195.719,1209.541,270.093,1209.53z"/>
					</g>
					<path fill="#D4A4A4" d="M140.13,1094.515h-13.422l68.169,197.413c15.27,57.962,56.836,69.993,101.813,65.751l113.542-10.708
						c0,0,9.842-35.868-33.069-52.422c-42.911-16.554-133.798-18.266-133.798-18.266l-60.682-151.537
						C176.321,1106.631,159.266,1094.515,140.13,1094.515z"/>
					<g>
						<path fill="#1F1949" d="M151.714,1538.744c-0.599,2.088-2.497,3.447-4.559,3.447c-0.435,0-0.877-0.061-1.316-0.188
							c-2.519-0.728-3.973-3.368-3.247-5.896l55.974-195.064c3.728-12.994,15.741-22.068,29.214-22.068h128.358
							c14.117,0,26.275,9.623,29.565,23.402l46.304,193.938c0.612,2.559-0.96,5.129-3.509,5.742
							c-2.537,0.619-5.11-0.964-5.721-3.522l-46.305-193.938c-2.262-9.475-10.624-16.095-20.333-16.095H227.78
							c-9.266,0-17.529,6.242-20.093,15.177"/>
					</g>
				</g>
				<path fill="#1F1949" d="M546.802,1482.136l24.025-3.948l4.597,9.341c0,0,38.573-1.057,54.873,11.643l-72.519,11.918
					L546.802,1482.136z"/>
				<path fill="#1F1949" d="M450.144,1511.907h24.548l-2.102,9.81c0,0,34.34,5.365,48.366,20.54h-71.356L450.144,1511.907z"/>
			</g>
			<path fill="#F4C54E" d="M240.573,1135.09c0,0,19.49-43.225,0-85.517C240.573,1049.573,274.441,1099.942,240.573,1135.09z"/>
		</g>
		<path fill="#343766" d="M300.606,932.194c-6.772,6.72-15.063,12.334-19.376,20.844c-4.327,8.537-3.935,18.571-4.333,28.135
			c-0.643,15.46-3.742,31.138-11.629,44.452c-7.886,13.313-21.054,24.02-36.338,26.433c-15.284,2.413-32.296-4.748-39.189-18.602
			c-5.484-11.022-4.105-24.398,0.413-35.85c4.518-11.452,11.876-21.51,18.491-31.893c5.658-8.881,10.838-18.109,17.406-26.339
			c8.108-10.159,18.15-18.572,28.12-26.911c9.314-7.791,19.164-15.846,31.068-18.24c7.128-1.433,15.893,0.193,20.739,5.991
			c1.836,2.197,4.015,4.737,4.623,7.608c0.806,3.808,0.14,8.062-1.247,11.643C307.483,924.292,304.259,928.569,300.606,932.194z"/>
		<g>
			<defs>
				<circle id="XMLID_22_" cx="473.739" cy="685.033" r="112.197"/>
			</defs>
			<use xlink:href="#XMLID_22_"  overflow="visible" fill="#EAEDF7"/>
			<clipPath id="XMLID_00000045592441314491737820000009453919030182807443_">
				<use xlink:href="#XMLID_22_"  overflow="visible"/>
			</clipPath>
			<polyline clip-path="url(#XMLID_00000045592441314491737820000009453919030182807443_)" fill="#343766" points="473.739,685.033 
				355.233,746.731 341.404,663.008 370.084,592.56 473.739,685.033 			"/>
			<polyline clip-path="url(#XMLID_00000045592441314491737820000009453919030182807443_)" fill="#F9DD89" points="473.739,685.033 
				530.296,552.801 388.894,572.836 367.82,621.718 473.739,685.033 			"/>
		</g>
		<path fill="#DA8C8D" d="M442.647,803.721c0,0-9.75-30.176-5.492-27.17c4.258,3.005,13.525,20.037,13.525,20.037L442.647,803.721z"
			/>
	</g>
	<g>
		<g>
			<g>
				<defs>
					<path id="XMLID_19_" d="M1424.716,201.47H547.955c-16.98,0-30.746-13.765-30.746-30.746l0,0
						c0-16.98,13.765-30.746,30.746-30.746h876.761c16.98,0,30.746,13.765,30.746,30.746l0,0
						C1455.462,187.705,1441.697,201.47,1424.716,201.47z"/>
				</defs>
				<use xlink:href="#XMLID_19_"  overflow="visible" fill="#EAEDF7"/>
				<clipPath id="XMLID_00000180365960346546507230000013202930578016658565_">
					<use xlink:href="#XMLID_19_"  overflow="visible"/>
				</clipPath>
				
					<rect x="1366.825" y="119.96" clip-path="url(#XMLID_00000180365960346546507230000013202930578016658565_)" fill="#343766" width="124.715" height="97.747"/>
			</g>
			<g>
				<g>
					
						<ellipse transform="matrix(0.9784 -0.2069 0.2069 0.9784 -4.2948 294.7414)" fill="#EAEDF7" cx="1407.049" cy="167.905" rx="15.497" ry="15.497"/>
				</g>
				<g>
					<path fill="#EAEDF7" d="M1431.642,185.764c-0.346,0-0.696-0.097-1.008-0.3l-9.447-6.148c-0.856-0.558-1.098-1.704-0.541-2.561
						c0.558-0.857,1.702-1.098,2.561-0.541l9.447,6.148c0.856,0.558,1.098,1.704,0.541,2.56
						C1432.84,185.467,1432.247,185.764,1431.642,185.764z"/>
				</g>
			</g>
		</g>
		<g>
			<path fill="#EAEDF7" d="M1051.74,419.367H537.71c-11.322,0-20.5-9.178-20.5-20.5V267.413c0-11.322,9.178-20.5,20.5-20.5h514.03
				c11.322,0,20.5,9.178,20.5,20.5v131.454C1072.24,410.189,1063.062,419.367,1051.74,419.367z"/>
			<circle fill="#CAD2EA" cx="570.914" cy="295.775" r="21.928"/>
			<circle fill="#CAD2EA" cx="570.914" cy="370.915" r="21.928"/>
			<path fill="#CAD2EA" d="M685.418,291.937h-59.523c-2.624,0-4.751-2.127-4.751-4.751l0,0c0-2.624,2.127-4.751,4.751-4.751h59.523
				c2.624,0,4.751,2.127,4.751,4.751l0,0C690.168,289.81,688.041,291.937,685.418,291.937z"/>
			<path fill="#CAD2EA" d="M836.464,309.115H625.894c-2.624,0-4.751-2.127-4.751-4.751l0,0c0-2.624,2.127-4.751,4.751-4.751h210.569
				c2.624,0,4.751,2.127,4.751,4.751l0,0C841.214,306.988,839.087,309.115,836.464,309.115z"/>
			<path fill="#CAD2EA" d="M741.817,366.167H625.894c-2.624,0-4.751-2.127-4.751-4.751l0,0c0-2.624,2.127-4.751,4.751-4.751h115.922
				c2.624,0,4.751,2.127,4.751,4.751l0,0C746.567,364.04,744.44,366.167,741.817,366.167z"/>
			<path fill="#CAD2EA" d="M990.006,383.344H625.894c-2.624,0-4.751-2.127-4.751-4.751l0,0c0-2.624,2.127-4.751,4.751-4.751h364.112
				c2.624,0,4.751,2.127,4.751,4.751l0,0C994.757,381.218,992.63,383.344,990.006,383.344z"/>
		</g>
	</g>
	<g>
		<g>
			<path fill="#8296C9" d="M2366.309,613.706h299.704c13.613,0,24.648-11.035,24.648-24.648V289.355
				c0-13.613-11.035-24.648-24.648-24.648h-299.704c-13.613,0-24.648,11.035-24.648,24.648v299.704
				C2341.661,602.671,2352.696,613.706,2366.309,613.706z"/>
			<g>
				<defs>
					<circle id="XMLID_17_" cx="2516.16" cy="383.71" r="69.366"/>
				</defs>
				<use xlink:href="#XMLID_17_"  overflow="visible" fill="#EAEDF7"/>
				<clipPath id="XMLID_00000082327171940490329690000017409182092183878841_">
					<use xlink:href="#XMLID_17_"  overflow="visible"/>
				</clipPath>
				
					<ellipse transform="matrix(0.7071 -0.7071 0.7071 0.7071 415.5819 1912.3158)" clip-path="url(#XMLID_00000082327171940490329690000017409182092183878841_)" fill="#343766" cx="2516.16" cy="454.506" rx="59.493" ry="59.493"/>
				
					<ellipse transform="matrix(0.7071 -0.7071 0.7071 0.7071 474.6798 1887.8367)" clip-path="url(#XMLID_00000082327171940490329690000017409182092183878841_)" fill="#343766" cx="2516.16" cy="370.929" rx="25.414" ry="25.414"/>
			</g>
			<g>
				<path fill="#EAEDF7" d="M2392.006,505.306h248.308c4.055,0,7.342-3.287,7.342-7.342l0,0c0-4.055-3.287-7.342-7.342-7.342
					h-248.308c-4.055,0-7.342,3.287-7.342,7.342l0,0C2384.664,502.019,2387.951,505.306,2392.006,505.306z"/>
				<path fill="#EAEDF7" d="M2392.006,528.684h248.308c4.055,0,7.342-3.287,7.342-7.342v0c0-4.055-3.287-7.342-7.342-7.342h-248.308
					c-4.055,0-7.342,3.287-7.342,7.342v0C2384.664,525.396,2387.951,528.684,2392.006,528.684z"/>
				<path fill="#EAEDF7" d="M2523.503,552.062h116.812c4.055,0,7.342-3.287,7.342-7.342v0c0-4.055-3.287-7.342-7.342-7.342h-116.812
					c-4.055,0-7.342,3.287-7.342,7.342v0C2516.16,548.774,2519.448,552.062,2523.503,552.062z"/>
			</g>
		</g>
	</g>
	<path fill="#343766" d="M3010.218,1545.253H6.365c-3.516,0-6.365-2.849-6.365-6.365s2.85-6.365,6.365-6.365h3003.853
		c3.516,0,6.365,2.85,6.365,6.365S3013.734,1545.253,3010.218,1545.253z"/>
	<g>
		<g>
			<path fill="#343766" d="M1968.89,1024.033l-172.718-13.425c-14.548-1.131-25.425-13.841-24.294-28.39l74.454-957.843
				c1.131-14.548,13.841-25.425,28.389-24.294l172.718,13.426c14.548,1.131,25.425,13.841,24.294,28.389l-74.454,957.843
				C1996.148,1014.287,1983.438,1025.164,1968.89,1024.033z"/>
			<g>
				<g>
					<g>
						<path fill="#DA8C8D" d="M2097.897,692.039c0,0-38.571,60.924-3.533,69.319s67.774-24.974,63.466-53.589
							C2153.522,679.154,2120.533,650.86,2097.897,692.039z"/>
						<path fill="#DA8C8D" d="M2157.094,722.471c0,0-15.011,41.875-14.336,78.394c0,0-28.975,10.997-45.678,5.584
							c-16.703-5.414,23.839-72.311,23.839-72.311L2157.094,722.471z"/>
					</g>
					<path fill="#C17276" d="M2105.405,762.671c0,0,5.669,0.068,21.625-6.538c0,0-5.673,14.664-26.331,16.778
						C2100.7,772.911,2103.553,766.4,2105.405,762.671z"/>
				</g>
				<path fill="#343766" d="M2140.742,701.93c-14.182-1.272-27.107-8.404-39.228-15.875c-5.192-3.201-10.441-6.596-14.13-11.453
					c-6.103-8.037-6.837-19.948-1.257-28.356c2.46-3.706,6.392-6.819,10.84-6.816c4.448,0.003,8.857,4.236,7.83,8.564
					c23.806,4.469,45.291,19.202,58.047,39.793c3.023,4.879,5.59,10.133,6.665,15.771c1.723,9.035-0.527,18.467-4.571,26.729
					s-9.799,15.544-15.51,22.755c-0.488,0.592-7.704-3.462-8.437-3.842c-1.17-0.605-2.304-1.404-2.925-2.565
					c-0.793-1.481-0.617-3.304-0.098-4.902c0.885-2.727,2.083-5.591,3.851-7.866c1.995-2.567,4.88-4.238,6.994-6.693
					c3.807-4.418,1.57-9.562-3.77-11.033c-1.362-0.375-10.214-1.932-10.977,0.198
					C2135.732,711.687,2138.431,706.295,2140.742,701.93z"/>
			</g>
			<g>
				<path fill="#39548B" d="M2011.589,1027.076c0,0,9.972,175.509,11.462,238.63c1.489,63.121,49.983,253.823,49.983,253.823
					l10.814,1.611l9.062-7.487l22.98-238.922c0,0,72.966-248.275-2.587-297.687L2011.589,1027.076z"/>
				<path fill="#1F1949" d="M2094.82,1510.861l-26.04,0.577l1.655,12.449c0,0-28.579,3.355-42.29,18.866l66.186,0.045
					L2094.82,1510.861z"/>
			</g>
			<g>
				<path fill="#39548B" d="M2075.849,1084.96l-67.785-66.957c0,0-113.094,117.123-138.853,180.946
					c-20.108,49.822-1.359,240.774-1.359,240.774l18.512-2.26l58.031-190.261C1944.396,1247.202,2079.178,1146.653,2075.849,1084.96
					"/>
				<path fill="#1F1949" d="M1890.914,1430.084l-25.736-4.012l-0.56,12.546c0,0-28.724-1.724-44.949,11.134l65.435,10.201
					L1890.914,1430.084z"/>
			</g>
			<path fill="#F9DD89" d="M1991.234,1024.715c0,0,25.04-204.169,77.429-232.436c52.389-28.267,73.02-20.508,73.02-20.508
				s53.891,56.584-2.434,175.053c-12.35,25.977,20.593,47.098,8.82,76.666C2132.242,1063.239,2005.828,1057.645,1991.234,1024.715z"
				/>
			<g>
				<path fill="#F9DD89" d="M2055.273,805.895l-89.121,70.894l-146.483,29.078l13.097,32.388c0,0,117.39,11.009,200.681-14.084
					c35.932-21.012,67.812-47.439,81.731-79.236C2155.887,751.929,2055.273,805.895,2055.273,805.895z"/>
				<path fill="#F4C54E" d="M2007.678,930.639c0,0,14.522-4.304,25.768-6.467c11.246-2.163,49.844-36.151,67.253-52.224
					c0,0-46.883,66.301-60.143,72.73s-38.308,12.24-38.308,12.24S2004.937,940.71,2007.678,930.639z"/>
			</g>
			<path fill="#343766" d="M2019.659,1180.851l-4.866-88.443l-44.057,133.676C1970.736,1226.083,2012.33,1192.026,2019.659,1180.851
				z"/>
		</g>
		<path fill="#DA8C8D" d="M1823.132,914.432c0,0-16.603-7.175-17.483-5.708c-0.449,0.748,2.662,3.252,6.096,5.525
			c-10.479,0.162-24.792,1.347-27.487,6.467c-4.343,8.253,23.539,17.442,46.083,11.544L1823.132,914.432z"/>
	</g>
	<g>
		<path fill="#F9DD89" d="M1325.434,1415.976c0,0-42.477-184.951-8.02-216.321c34.457-31.369,172.482-14.116,188.166,9.411
			c15.685,23.527,24.485,180.373,24.485,180.373s-62.954,81.11-102.908,79.992
			C1387.204,1468.312,1325.434,1415.976,1325.434,1415.976z"/>
		<g>
			<circle fill="#F1A29F" cx="1416.052" cy="1124.557" r="8.496"/>
			<path fill="#1F1949" d="M1381.38,1124.549c3.275,1.191,6.766,1.644,10.234,1.988c13.339,1.323,28.138,0.673,38.175-8.212
				c1.249-1.105,2.495-2.634,2.116-4.258c-0.146-0.625-0.521-1.168-0.896-1.689c-9.939-13.814-25.419-23.362-42.081-26.584
				c-8.456-1.635-18.276-2.231-26.397,1.105c-8.148,3.347-8.295,10.48-4.048,17.275c2.771,4.432,6.569,8.231,10.322,11.834
				C1372.474,1119.531,1376.55,1122.792,1381.38,1124.549z"/>
			<g>
				<path fill="#343766" d="M1375.085,1067.154c-6.656,2.376-12.982,5.923-17.943,10.958c-13.659,13.864-14.134,37.54-3.666,53.948
					c10.467,16.408,29.82,25.764,49.204,27.509c9.703,0.874,20.166-0.188,27.863-6.162c4.613-3.58,7.86-8.65,10.338-13.938
					c15.831-33.777,0.64-71.414-38.319-75.47c-8.207-0.854-16.59-0.175-24.506,2.183
					C1377.056,1066.48,1376.066,1066.804,1375.085,1067.154z"/>
				<g>
					<g>
						<defs>
							<path id="XMLID_13_" d="M1361.24,1131.934c0,0,22.206,56.338,45.218,36.835c23.011-19.503,16.589-58.206-4.928-69.515
								C1380.014,1087.945,1344.533,1096.176,1361.24,1131.934z"/>
						</defs>
						<use xlink:href="#XMLID_13_"  overflow="visible" fill="#DA8C8D"/>
						<clipPath id="XMLID_00000049913873508219611610000014550599104658180507_">
							<use xlink:href="#XMLID_13_"  overflow="visible"/>
						</clipPath>
						<path clip-path="url(#XMLID_00000049913873508219611610000014550599104658180507_)" fill="#C17276" d="M1376.963,1134.977
							c1.974-2.926,3.265-6.423,5.996-8.66c3.635-2.977,8.765-2.936,13.437-3.431c4.324-0.458,8.585-1.498,12.634-3.083
							c3.328-1.303,6.675-3.122,8.519-6.184c1.978-3.284,1.851-7.553,0.304-11.061c-1.547-3.507-4.357-6.327-7.472-8.561
							c-6.396-4.585-14.186-6.952-22.011-7.788c-4.884-0.521-9.871-0.469-14.647,0.68c-11.893,2.863-21.597,12.755-25.083,24.48
							c-2.61,8.778-2.106,19.28,1.86,27.61c1.236,2.597,3.18,4.828,6.087,5.469c3.064,0.677,6.339-0.271,9.223-1.268
							C1370.289,1141.635,1374.286,1138.946,1376.963,1134.977z"/>
					</g>
					<path fill="#DA8C8D" d="M1420.936,1133.053c0,0,6.507,22.707,11.5,52.134c2.573,15.214-26.821,21.486-36.987,21.344
						c-14.7-0.205-1.024-64.21-1.024-64.21L1420.936,1133.053z"/>
					<path fill="#C17276" d="M1389.75,1171.431c0,0,5.468-0.501,14.483-10.434c0,0-1.763,16.109-15.489,20.931
						C1388.744,1181.928,1389.665,1171.984,1389.75,1171.431z"/>
				</g>
			</g>
			<path fill="#343766" d="M1413.094,1115.387c-2.749-6.702-5.631-13.606-10.817-18.664c-4.947-4.824-11.834-7.599-18.744-7.551
				c-5.12,0.035-10.206,1.62-14.481,4.427c-1.274,0.837-5.206,3.145-4.845,4.97c0.193,0.976,1.49,1.677,2.192,2.246
				c0.982,0.797,1.89,1.682,2.863,2.491c3.847,3.196,8.145,5.842,12.712,7.878c4.571,2.038,9.413,3.467,14.359,4.231
				c4.917,0.76,9.938,0.86,14.877,0.242C1411.839,1115.579,1412.468,1115.489,1413.094,1115.387z"/>
		</g>
		<g>
			<path fill="#F9DD89" d="M1317.414,1199.655c0,0-2.784,0.872-6.673,5.691c-7.864,9.745-20.247,35.628-23.267,103.077v53.292
				c0,0-76.32-12.626-161.766-14.818v26.158c0,0,176.455,65.593,191.707,42.921c15.252-22.672,41.05-86.66,39.491-121.49
				S1317.414,1199.655,1317.414,1199.655z"/>
			<path fill="#1F1949" d="M1104.803,1383.438h-34.606c-1.484,0-2.686-1.203-2.686-2.686v-52.031c0-1.484,1.203-2.686,2.686-2.686
				h34.606c1.483,0,2.686,1.203,2.686,2.686v52.031C1107.49,1382.235,1106.287,1383.438,1104.803,1383.438z"/>
			<polygon fill="#DA8C8D" points="1125.708,1350.916 1113.781,1348.401 1107.49,1345.019 1107.49,1373.115 1114.041,1367.912 
				1125.708,1370.773 			"/>
			<path fill="#DA8C8D" d="M1107.49,1345.019c0,0-16.883,8.988-17.08,10.758c-0.197,1.77,15.568,1.083,19.47-3.147
				C1113.781,1348.401,1107.49,1345.019,1107.49,1345.019z"/>
		</g>
		<rect x="1317.414" y="1314.306" fill="#1F1949" width="183.871" height="145.647"/>
		<g>
			<g>
				<path fill="#343766" d="M1514.2,1516.807l-5.019,21.334c0,0-317.852-56.269-330.397-151.336
					C1161.804,1258.137,1514.2,1516.807,1514.2,1516.807z"/>
				<path fill="#1F1949" d="M1516.307,1514.642l64.442,13.904c2.136,0.461,2.912,3.134,1.322,4.633
					c-6.147,5.8-24.175,15.309-72.891,4.961l-31.966-4.467l12.474-37.102L1516.307,1514.642z"/>
			</g>
			<g>
				<path fill="#39548B" d="M1317.414,1516.807l5.019,21.334c0,0,317.852-56.269,330.397-151.336
					C1669.81,1258.137,1317.414,1516.807,1317.414,1516.807z"/>
				<path fill="#1F1949" d="M1315.307,1514.642l-64.442,13.904c-2.136,0.461-2.912,3.134-1.322,4.633
					c6.147,5.8,24.175,15.309,72.891,4.961l31.966-4.467l-12.474-37.102L1315.307,1514.642z"/>
			</g>
		</g>
		<g>
			<path fill="#F9DD89" d="M1505.581,1209.066c0,0,119.671,139.679,105.623,149.291c-14.047,9.612-47.916,9.074-47.916,9.074
				l-49.088-51.387C1514.2,1316.043,1520.471,1239.436,1505.581,1209.066z"/>
			<path fill="#F9DD89" d="M1558.965,1356.471l-79.811,118.55l16.83,10.033c0,0,136.358-82.953,116.366-133.068
				C1612.35,1351.986,1560.015,1322.381,1558.965,1356.471z"/>
			<path fill="#DA8C8D" d="M1480.795,1476c0,0-4.067,6.032-9.646,15.935c-1.016,1.802,3.392,25.135,10.607,28.233
				c6.606,2.837,7.153-21.004,6.579-27.325c0,0,3.056,13.858,4.78,14.203c1.724,0.345,0.675-23.3,0.675-23.3L1480.795,1476z"/>
		</g>
		<path fill="#F4C54E" d="M1525.549,1327.923c0,0-14.964-12.689-15.508-25.208c0,0-6.157,41.456,18.421,62.095L1525.549,1327.923z"
			/>
		<path fill="#F4C54E" d="M1325.716,1314.306l-8.302-63.854c0,0,9.822,56.541,24.615,63.854H1325.716z"/>
	</g>
</g>
</svg>
