<?xml version="1.0" encoding="utf-8"?>
<!-- Generator: Adobe Illustrator 26.0.1, SVG Export Plug-In . SVG Version: 6.00 Build 0)  -->
<svg version="1.1" id="Layer_1" xmlns="http://www.w3.org/2000/svg" xmlns:xlink="http://www.w3.org/1999/xlink" x="0px" y="0px"
	 viewBox="0 0 849.383 782.444" enable-background="new 0 0 849.383 782.444" xml:space="preserve">
<g>
	<g>
		<defs>
			<path id="XMLID_281_" d="M368.176,258.554c-15.56-25.518-26.488-54.002-31.291-84.829
				c-9.963-63.955,21.714-137.498,83.059-158.143c51.732-17.41,109.099,5.843,151.831,39.814
				c66.146,52.586,221.876,178.95,169.139,280.508c-12.096,23.294-35.715,38.96-60.748,46.85
				C566.52,418.577,428.785,357.951,368.176,258.554z"/>
		</defs>
		<use xlink:href="#XMLID_281_"  overflow="visible" opacity="0.15" fill="#8296C9"/>
		<clipPath id="XMLID_00000002383940987790524280000011779842048378754693_">
			<use xlink:href="#XMLID_281_"  overflow="visible" opacity="0.15"/>
		</clipPath>
	</g>
	<defs>
		<filter id="Adobe_OpacityMaskFilter" filterUnits="userSpaceOnUse" x="0" y="433.543" width="849.383" height="348.901">
			<feFlood  style="flood-color:white;flood-opacity:1" result="back"/>
			<feBlend  in="SourceGraphic" in2="back" mode="normal"/>
		</filter>
	</defs>
	<mask maskUnits="userSpaceOnUse" x="0" y="433.543" width="849.383" height="348.901" id="SVGID_1_">
		<g filter="url(#Adobe_OpacityMaskFilter)">
			<defs>
				
					<filter id="Adobe_OpacityMaskFilter_00000018938421665539846740000013865580935318195383_" filterUnits="userSpaceOnUse" x="0" y="433.543" width="849.383" height="348.901">
					<feFlood  style="flood-color:white;flood-opacity:1" result="back"/>
					<feBlend  in="SourceGraphic" in2="back" mode="normal"/>
				</filter>
			</defs>
			<mask maskUnits="userSpaceOnUse" x="0" y="433.543" width="849.383" height="348.901" id="SVGID_1_">
				<g filter="url(#Adobe_OpacityMaskFilter_00000018938421665539846740000013865580935318195383_)">
				</g>
			</mask>
			
				<linearGradient id="SVGID_00000116930654974903436010000009082067019226405308_" gradientUnits="userSpaceOnUse" x1="82.2509" y1="815.7716" x2="511.9837" y2="650.8738">
				<stop  offset="0" style="stop-color:#000000"/>
				<stop  offset="1" style="stop-color:#FFFFFF"/>
			</linearGradient>
			<path mask="url(#SVGID_1_)" fill="url(#SVGID_00000116930654974903436010000009082067019226405308_)" d="M2.65,782.444h845.047
				c3.058-40.567,2.484-81.902-6.147-121.658c-8.631-39.756-29.264-78.432-63.251-100.79
				c-39.137-25.745-89.376-26.513-132.849-43.968c-38.603-15.5-70.794-43.725-108.364-61.585
				c-68.673-32.646-154.225-26.657-217.68,15.237c-38.462,25.393-68.168,62.137-105.558,89.083
				c-45.517,32.802-100.642,49.853-147.42,80.829C19.648,670.568-9.161,727.596,2.65,782.444z"/>
		</g>
	</mask>
	
		<linearGradient id="SVGID_00000178197484006112385990000014237614460394747578_" gradientUnits="userSpaceOnUse" x1="82.2509" y1="815.7716" x2="511.9837" y2="650.8738">
		<stop  offset="0" style="stop-color:#F2F3F7"/>
		<stop  offset="1" style="stop-color:#E1E5EF"/>
	</linearGradient>
	<path fill="url(#SVGID_00000178197484006112385990000014237614460394747578_)" d="M2.65,782.444h845.047
		c3.058-40.567,2.484-81.902-6.147-121.658c-8.631-39.756-29.264-78.432-63.251-100.79c-39.137-25.745-89.376-26.513-132.849-43.968
		c-38.603-15.5-70.794-43.725-108.364-61.585c-68.673-32.646-154.225-26.657-217.68,15.237
		c-38.462,25.393-68.168,62.137-105.558,89.083c-45.517,32.802-100.642,49.853-147.42,80.829
		C19.648,670.568-9.161,727.596,2.65,782.444z"/>
	<g>
		<g>
			<rect x="587.445" y="272.388" fill="#1F1949" width="22.244" height="510.056"/>
			<g>
				<path fill="#8296C9" d="M681.51,272.388H511.102v-62.879c0-16.78,13.603-30.383,30.383-30.383h109.642
					c16.78,0,30.383,13.603,30.383,30.383V272.388z"/>
				<path fill="#39548B" d="M578.839,272.388H507.86v-57.772c0-19.6,15.889-35.489,35.489-35.489h0
					c19.6,0,35.49,15.889,35.49,35.489V272.388z"/>
			</g>
		</g>
		<g>
			<path fill="#668C68" d="M602.768,782.444h58.606c8.189-5.139,7.704-18.653,5.328-28.024c-2.375-9.371-7.151-18.309-7.193-27.976
				c-0.111-25.441,31.665-43.161,29.939-68.544c-0.405-5.957-2.715-11.655-3.187-17.607c-1.833-23.086,23.69-43.639,17.128-65.849
				c-0.617-2.088-1.623-4.222-3.496-5.331c-1.718-1.017-3.837-0.986-5.832-0.901c-13.791,0.593-29.328,3.447-36.869,15.008
				c-7.131,10.931-4.334,25.392-7.445,38.067c-5.533,22.546-29.25,37.728-32.932,60.65c-1.539,9.584,0.691,19.437-0.492,29.071
				c-1.547,12.594-8.717,23.665-13.705,35.332C597.63,758.008,595.653,771.938,602.768,782.444z"/>
			<g>
				<defs>
					<path id="XMLID_250_" d="M634.607,782.444h74.223c20.05,0,38.985-19.912,42.66-39.622c1.28-6.865,0.227-14.021,1.673-20.853
						c4.303-20.332,28.962-32.039,31.787-52.628c1.336-9.737-2.646-19.573-1.624-29.349c0.665-6.366,3.418-12.334,4.508-18.641
						c1.09-6.307,0.011-13.73-5.223-17.415c-5.308-3.737-12.811-2.131-18.318,1.306c-21.983,13.716-21.161,47.136-39.076,65.857
						c-8.4,8.778-20.316,13.598-28.533,22.547c-8.676,9.449-12.347,22.52-20.312,32.575c-8.048,10.16-19.862,16.517-29.555,25.123
						C637.124,759.949,630.936,770.013,634.607,782.444z"/>
				</defs>
				<use xlink:href="#XMLID_250_"  overflow="visible" fill="#A6C4A8"/>
				<clipPath id="XMLID_00000089557530065789544440000011828981493615959226_">
					<use xlink:href="#XMLID_250_"  overflow="visible"/>
				</clipPath>
				
					<path clip-path="url(#XMLID_00000089557530065789544440000011828981493615959226_)" fill="none" stroke="#668C68" stroke-width="1.1711" stroke-miterlimit="10" d="
					M668.671,790.795c15.585-12.495,31.589-25.486,41.01-43.1c6.775-12.667,9.813-27.177,17.483-39.322
					c7.6-12.035,19.328-21.062,26.721-33.224c8.105-13.333,10.348-29.266,13.869-44.467c3.521-15.201,9.129-31.027,21.562-40.456"/>
			</g>
			<path fill="#668C68" d="M570.73,782.444h-83.901c-5.526-2.96-8.462-10.552-9.81-16.674c-1.348-6.122-0.838-12.49-0.101-18.716
				c0.555-4.686,1.225-9.51-0.014-14.063c-1.801-6.613-7.338-11.545-13.171-15.145c-5.833-3.6-12.251-6.306-17.58-10.617
				c-8.151-6.594-13.203-16.867-13.451-27.349c-0.222-9.431,3.186-19.182,0.096-28.095c-3.226-9.305-13.197-16.558-12.147-26.351
				c0.64-5.973,5.579-10.813,11.187-12.968c5.607-2.155,11.801-2.091,17.796-1.694c5.567,0.368,11.454,1.131,15.804,4.624
				c5.95,4.778,7.322,13.221,7.429,20.851c0.107,7.63-0.541,15.655,2.831,22.5c3.438,6.978,10.413,11.402,17.113,15.353
				c19.606,11.561,40.808,23.171,51.849,43.074C556.154,737.892,555.41,764.372,570.73,782.444z"/>
			<g>
				<defs>
					<path id="XMLID_249_" d="M609.558,782.444h-72.111c-7.32-10.284-14.599-22.233-13.273-34.786
						c0.822-7.774,5.076-14.873,5.882-22.649c1.479-14.274-8.644-26.85-18.114-37.633c-9.469-10.783-19.526-23.45-17.882-37.706
						c1.473-12.771,12.309-24.098,10.024-36.749c-1.766-9.775-11.067-17.084-12.119-26.961c-0.91-8.537,5.283-16.967,13.425-19.688
						c8.143-2.721,17.519-0.186,24.01,5.433c6.491,5.619,10.258,13.95,11.454,22.452c1.221,8.679-0.026,17.704,2.408,26.124
						c3.121,10.798,11.736,18.928,19.024,27.484c7.29,8.559,13.632,18.263,16.248,29.198c4.88,20.395-3.544,43.141,5.179,62.212
						c3.472,7.59,9.349,13.762,14.337,20.454C603.04,766.322,610.111,774.116,609.558,782.444z"/>
				</defs>
				<use xlink:href="#XMLID_249_"  overflow="visible" fill="#A6C4A8"/>
				<clipPath id="XMLID_00000069362340127613480540000012230281851861244073_">
					<use xlink:href="#XMLID_249_"  overflow="visible"/>
				</clipPath>
				
					<path clip-path="url(#XMLID_00000069362340127613480540000012230281851861244073_)" fill="none" stroke="#668C68" stroke-width="1.1711" stroke-miterlimit="10" d="
					M582.661,793.11c-12.774-8.69-16.822-25.644-17.492-41.078c-0.669-15.435,0.93-31.437-4.58-45.87
					c-6.886-18.039-23.755-30.592-31.898-48.1c-13.836-29.75,0.055-67.458-15.749-96.211"/>
			</g>
		</g>
	</g>
	<g>
		<path fill="#F4C54E" d="M294.814,124.265l62.348,101.73c0,0,5.692,6.74-5.333,17.764c-11.025,11.025-80.101-2.528-80.101-2.528
			L294.814,124.265z"/>
		<g>
			<g>
				<path fill="#39548B" d="M276.905,283.412c1.921,2.803,0.502,7.433-0.018,11.178c-2.586,18.644-5.172,37.288-7.758,55.931
					c-3.986,28.739-7.972,57.478-11.958,86.217c-4.623,33.328-9.245,66.655-13.867,99.983c-4.495,32.41-8.99,64.82-13.486,97.23
					c-3.604,25.986-7.208,51.972-10.812,77.958c-1.949,14.055-3.899,28.111-5.848,42.167c-0.15,1.083-0.3,2.165-0.451,3.248H188.87
					L178.413,524.71c0,0-41.188-165.483-21.418-215.012c6.221-15.586,5.366-19.198,20.369-22.428
					c30.574-6.582,64.292-11.725,95.434-6.159C274.863,281.481,276.145,282.304,276.905,283.412z"/>
				<path fill="#39548B" d="M296.772,265.492c2.018,3.609,53.599,220.982,50.309,260.244
					c-3.29,39.262-38.889,231.588-38.889,231.588l-21.68-0.328l-3.295-226.924c0,0-77.757-163.248-73.123-220.142
					S296.772,265.492,296.772,265.492z"/>
				<polygon fill="#1F1949" points="253.563,462.76 278.594,353.646 275.53,513.441 				"/>
			</g>
			<g>
				<path fill="#1F1949" d="M187.887,746.415h26.109l-1.659,18.724c0,0,24.063,1.081,38.408,16.601h-61.531L187.887,746.415z"/>
				<path fill="#1F1949" d="M285.778,746.415h26.109l-1.659,18.724c0,0,24.063,1.081,38.408,16.601h-61.531L285.778,746.415z"/>
			</g>
		</g>
		<path fill="#F9DD89" d="M151.984,287.469c-2.119,27.825-12.326,32.982,35.915,60.191c0,0,69.376,34.691,129.712-16.084
			l-11.593-66.084c-5.003-19.02-4.562-62.137-0.907-81.461c2.087-11.036,3.619-23.043,2.473-30.877
			c-4.718-32.233-41.814-57.133-41.814-57.133s-30.242-3.418-30.251-3.419c-3.823-0.432-10.612,3.494-14.014,4.842
			c-32.31,12.808-55.71,35.258-72.027,66.039c0,0-36.462,78.965-27.346,100.741S151.984,287.469,151.984,287.469z"/>
		<path fill="#F4C54E" d="M151.984,287.469c0,0,16.983-0.142,29.478-1.102c12.495-0.96-31.792,21.679-31.792,21.679L151.984,287.469
			z"/>
		<path fill="#F4C54E" d="M201.088,238.128l-22.676-5.243c0,0,22.02-50.338,20.743-68.219
			C199.156,164.666,209.904,201.749,201.088,238.128z"/>
		<path fill="#F1A29F" d="M326.789,262.631"/>
		<g>
			<path fill="#343766" d="M293.18,13.517c4.705,6.475,7.171,14.963,7.358,22.841c0.485,20.472-0.667,41.795-10.338,59.845
				c-4.314,8.051-11.213,15.778-20.296,16.738c-6.812,0.72-13.597-2.658-18.303-7.635c-4.706-4.977-7.597-11.394-9.787-17.885
				c-5.271-15.622-6.9-32.782-2.468-48.663c3.163-11.336,9.924-22.427,18.914-30.126c3.719-3.185,8.3-5.587,13.191-5.845
				C281.057,2.28,288.315,6.823,293.18,13.517z"/>
			<g>
				<g>
					<g>
						<g>
							<g>
								<defs>
									<path id="XMLID_157_" d="M289.194,48.643c0,0-5.93,48.104-40.388,32.9c-24.65-10.876-14.818-51.989,4.401-62.09
										C272.426,9.352,298.61,7.968,289.194,48.643z"/>
								</defs>
								<use xlink:href="#XMLID_157_"  overflow="visible" fill="#DA8C8D"/>
								<clipPath id="XMLID_00000061440855094637172510000010650397447499419542_">
									<use xlink:href="#XMLID_157_"  overflow="visible"/>
								</clipPath>
								<path clip-path="url(#XMLID_00000061440855094637172510000010650397447499419542_)" fill="#C17276" d="M281.733,47.124
									c-5.479,2.505-11.463,3.716-17.443,4.45c-11.646,1.43-23.505,1.114-35.058-0.934c-0.598-7.989-0.232-16.049,1.088-23.951
									c0.458-2.744,1.047-5.513,2.362-7.964c1.94-3.615,5.325-6.265,8.957-8.173c8.047-4.227,17.445-5.198,26.522-4.729
									c5.361,0.277,10.881,1.093,15.434,3.936c5.285,3.3,8.484,8.902,10.252,14.738c0.904,2.983,1.558,6.129,1.816,9.238
									c0.121,1.457-0.432,2.063-1.28,3.154c-1.044,1.343-2.041,2.672-3.256,3.872C288.421,43.434,285.185,45.546,281.733,47.124z"
									/>
							</g>
							<path fill="#DA8C8D" d="M235.875,49.642c0,0-0.342,18.54-4.801,44.821c-0.706,4.163,1.264,7.57,4.105,10.681
								c4.076,4.463,17.668,16.221,23.461,10.128c4.901-5.155,0.915-57.351,0.915-57.351L235.875,49.642z"/>
							<path fill="#C17276" d="M260.938,84.8c0,0-5.638-0.067-13.69-8.939c0,0,1.575,14.389,13.835,18.695
								C261.083,94.557,261.014,85.294,260.938,84.8z"/>
						</g>
					</g>
				</g>
				<path fill="#343766" d="M288.092,38.881c-1.061-0.745-1.459-2.471-0.513-3.357c-0.605,3.552-5.003,4.776-8.574,5.251
					c-2.164,0.288-4.564,0.522-6.344-0.742c-1.78-1.264-1.923-4.65,0.177-5.244c0.545,3.165-3.337,5.181-6.525,5.57
					c-1.865,0.227-3.864,0.246-5.492-0.69c-1.628-0.937-2.663-3.116-1.776-4.772c-0.096,3.194-2.564,5.962-5.501,7.219
					c-2.938,1.257-6.26,1.25-9.435,0.897c-0.99-0.11-2.005-0.261-2.867-0.761c-1.126-0.653-1.853-1.825-2.369-3.021
					c-1.823-4.225-1.47-9.206,0.407-13.408c1.876-4.202,5.166-7.665,8.944-10.291c6.48-4.505,14.465-6.673,22.356-6.547
					c6.599,0.106,13.324,1.858,18.541,5.899c2.012,1.558,3.752,3.471,5.115,5.619c1.377,2.17,2.089,4.497,2.932,6.898
					c0.573,1.633,1.445,3.373,1.443,5.142c-0.003,1.945-1.349,3.51-2.768,4.698C293.961,38.815,290.415,40.513,288.092,38.881z"/>
				<path fill="#343766" d="M242.094,90.408c-2,12.585-7.245,22.741-22.126,24.847c-8.659,1.226-17.716,0.391-25.691-3.199
					c-17.629-7.935-24.353-29.2-19.293-46.954c4.052-14.217,14.296-20.314,24.094-30.011c10.975-10.862,19.663-27.972,34.942-32.935
					c12.867-4.18,28.006-1.981,39.971,3.965c4.916,2.443,9.661,6.964,9.249,12.438c-0.446,5.931-6.342,9.208-11.333,11.013
					c-5.835,2.11-12.259,2.618-17.866,5.355c-3.669,1.791-6.022,4.682-7.413,8.485C242.104,55.783,244.553,74.932,242.094,90.408z"
					/>
			</g>
		</g>
		<g>
			<path fill="#B4C0DF" d="M372.754,286.785l-88.194-4.435c-3.816-0.192-6.754-3.441-6.562-7.257l2.315-46.036
				c0.192-3.816,3.441-6.754,7.257-6.562l88.194,4.435c3.816,0.192,6.754,3.441,6.562,7.257l-2.315,46.036
				C379.818,284.039,376.569,286.977,372.754,286.785z"/>
			<path fill="#1F1949" d="M281.913,224.976c4.123,2.279,8.181,4.663,12.273,6.992l12.167,7.164
				c4.066,2.372,8.079,4.829,12.117,7.246l6.029,3.671l3.013,1.839l1.499,0.913c0.37,0.222,0.794,0.349,1.224,0.368
				c0.43,0.022,0.864-0.06,1.254-0.244l1.582-0.758l3.182-1.527l6.366-3.049c4.261-1.998,8.498-4.044,12.782-5.995l12.825-5.907
				c4.306-1.905,8.583-3.87,12.914-5.723c-4.14,2.248-8.335,4.383-12.5,6.578l-12.589,6.394c-4.188,2.149-8.421,4.203-12.632,6.305
				l-6.341,3.102l-3.172,1.548l-1.596,0.777c-0.673,0.32-1.428,0.473-2.173,0.434c-0.746-0.039-1.481-0.266-2.118-0.653
				l-1.509-0.933l-3.001-1.858l-5.997-3.723c-3.979-2.512-7.984-4.984-11.936-7.541l-11.885-7.623
				C289.767,230.172,285.807,227.627,281.913,224.976z"/>
		</g>
		<path fill="#DA8C8D" d="M308.654,251.734c-4.186-1.191-20.299,2.333-30.264,4.732c1.57-4.422,2.122-12.231,2.122-12.231
			l-14.086,13.142h0c-13.205-3.773-57.04-15.806-80.105-16.146c0,0-19.752,10.319-16.828,33.585c0.6,4.776,4.617,8.389,9.43,8.441
			c15.257,0.163,50.766-4.462,85.447-5.405c0,0,12.231,2.962,27.297-1.707C306.734,271.477,314.834,253.493,308.654,251.734z"/>
		<path fill="#DA8C8D" d="M340.286,263.71c3.38-5.255,10.769-5.614,16.605-0.2c2.227,2.065,3.921,4.635,5.441,7.265
			c2.028,3.508,3.796,7.195,4.872,11.102c0.43,1.561,0.748,3.208,0.413,4.792c-1.549,7.327-15.529,4.421-20.397,3.069
			c-8.483-2.357-9.037-12.087-8.761-19.63C338.554,267.507,339.221,265.365,340.286,263.71z"/>
	</g>
</g>
<g>
	<defs>
		
			<filter id="Adobe_OpacityMaskFilter_00000099623476364859162250000006318929876042304702_" filterUnits="userSpaceOnUse" x="-2054.094" y="213.684" width="937.386" height="568.76">
			<feFlood  style="flood-color:white;flood-opacity:1" result="back"/>
			<feBlend  in="SourceGraphic" in2="back" mode="normal"/>
		</filter>
	</defs>
	
		<mask maskUnits="userSpaceOnUse" x="-2054.094" y="213.684" width="937.386" height="568.76" id="SVGID_00000024695116964513095800000010768567288025107382_">
		<g filter="url(#Adobe_OpacityMaskFilter_00000099623476364859162250000006318929876042304702_)">
			<defs>
				
					<filter id="Adobe_OpacityMaskFilter_00000147928383788042647700000016575524094318869164_" filterUnits="userSpaceOnUse" x="-2054.094" y="213.684" width="937.386" height="568.76">
					<feFlood  style="flood-color:white;flood-opacity:1" result="back"/>
					<feBlend  in="SourceGraphic" in2="back" mode="normal"/>
				</filter>
			</defs>
			
				<mask maskUnits="userSpaceOnUse" x="-2054.094" y="213.684" width="937.386" height="568.76" id="SVGID_00000024695116964513095800000010768567288025107382_">
				<g filter="url(#Adobe_OpacityMaskFilter_00000147928383788042647700000016575524094318869164_)">
				</g>
			</mask>
			
				<linearGradient id="SVGID_00000170254421646376493320000010421194827581023642_" gradientUnits="userSpaceOnUse" x1="-1143.5826" y1="206.6411" x2="-1654.4094" y2="717.4678">
				<stop  offset="0" style="stop-color:#000000"/>
				<stop  offset="1" style="stop-color:#FFFFFF"/>
			</linearGradient>
			
				<path mask="url(#SVGID_00000024695116964513095800000010768567288025107382_)" fill="url(#SVGID_00000170254421646376493320000010421194827581023642_)" d="
				M-1167.677,782.444h-885.068c-2.335-95.652-8.502-197.809,53.398-270.77c62.798-74.019,168.042-91.223,255.447-133.449
				c59.519-28.754,111.928-70.091,168.387-104.465c56.459-34.374,119.959-62.424,186.012-59.921
				c66.858,2.534,129.111,36.339,180.39,79.315c28.485,23.873,54.888,51.444,70.643,85.106
				c16.791,35.877,20.481,76.391,21.574,115.988C-1114.178,592.616-1141.769,687.509-1167.677,782.444z"/>
		</g>
	</mask>
	
		<linearGradient id="SVGID_00000062880588347759638340000005083590103971157421_" gradientUnits="userSpaceOnUse" x1="-1143.5826" y1="206.6411" x2="-1654.4094" y2="717.4678">
		<stop  offset="0" style="stop-color:#F2F3F7"/>
		<stop  offset="1" style="stop-color:#E1E5EF"/>
	</linearGradient>
	<path fill="url(#SVGID_00000062880588347759638340000005083590103971157421_)" d="M-1167.677,782.444h-885.068
		c-2.335-95.652-8.502-197.809,53.398-270.77c62.798-74.019,168.042-91.223,255.447-133.449
		c59.519-28.754,111.928-70.091,168.387-104.465c56.459-34.374,119.959-62.424,186.012-59.921
		c66.858,2.534,129.111,36.339,180.39,79.315c28.485,23.873,54.888,51.444,70.643,85.106
		c16.791,35.877,20.481,76.391,21.574,115.988C-1114.178,592.616-1141.769,687.509-1167.677,782.444z"/>
	<g>
		<g>
			<g>
				<g>
					<defs>
						<circle id="XMLID_245_" cx="-1568.179" cy="342.53" r="291.892"/>
					</defs>
					<use xlink:href="#XMLID_245_"  overflow="visible" fill="#CAD2EA"/>
					<clipPath id="XMLID_00000124851969109425393070000008826843337497787524_">
						<use xlink:href="#XMLID_245_"  overflow="visible"/>
					</clipPath>
					<path clip-path="url(#XMLID_00000124851969109425393070000008826843337497787524_)" fill="#8296C9" d="M-1402.036,138.042
						c-12.304,1.328-24.608,2.656-36.911,3.984c-2.557,0.276-5.363,0.494-7.485-0.96c-1.908-1.308-2.769-3.632-3.897-5.652
						c-5.337-9.561-17.95-13.035-28.707-10.991c-10.757,2.044-20.115,8.415-29.126,14.636l-21.427,14.794
						c-1.101,0.76-2.103,1.666-2.895,2.743c-5.176,7.035,1.474,13.644,7.036,18.306c4.823,4.043,9.811,10.593,6.541,15.971
						c-10.086,7.11-26.804,0.721-34.664,10.235c-5.354,6.48-3.147,16.976-8.567,23.401c-3.769,4.468-10.048,5.603-15.479,7.766
						c-6.401,2.549-13,8.96-8.321,15.923c0.359,0.534,0.775,1.029,1.228,1.485c10.208,10.3,27.806,11.752,39.719,3.649
						c7.299-4.965,12.316-12.865,19.911-17.366c16.63-9.856,37.577-0.071,54.301,9.626c9.988,5.791,21.107,13.209,21.802,24.984
						c0.075,1.278-0.007,2.57-0.351,3.803c-2.045,7.324-10.222,8.197-16.932,7.697c-35.211-2.62-70.714-22.271-104.084-10.733
						c-3.609,1.248-7.219,2.936-9.691,5.847c-2.686,3.163-3.714,7.378-4.52,11.449c-2.778,14.027-3.908,28.379-3.359,42.668
						c0.66,17.184,6.179,37.326,22.44,42.923c11.727,4.036,26.847-0.544,35.495,8.344c6.162,6.332,5.634,16.362,5.032,25.177
						c-2.667,39.031,1.768,80.018,22.69,113.147c0.641,1.015,1.624,1.799,2.787,2.098c2.225,0.574,3.368-0.993,4.38-2.401
						c20.107-27.944,55.647-42.983,71.962-73.297c12.166-22.606,11.424-49.681,10.373-75.332c-0.131-3.207-0.302-6.556-1.903-9.338
						c-1.733-3.012-4.861-4.886-7.688-6.908c-18.28-13.075-27.235-37.911-21.505-59.643c4.561,12.976,9.122,25.951,13.682,38.927
						c1.562,4.444,3.864,9.559,8.491,10.444c3.075,0.589,6.109-0.977,8.85-2.491c7.908-4.368,15.816-8.736,23.723-13.105
						c5.712-3.155,11.616-6.478,15.423-11.778c3.806-5.3,4.856-13.184,0.617-18.145c-4.049-4.738-11.161-5.208-17.363-4.58
						c-6.201,0.628-12.719,1.944-18.477-0.443c-5.758-2.386-9.52-10.527-5.162-14.983c19.166,7.621,38.331,15.241,57.497,22.862
						c2.068,0.822,4.231,1.713,5.625,3.447c1.365,1.698,1.783,3.944,2.158,6.09c2.419,13.867,4.839,27.733,7.258,41.6
						c1.403,8.04,6.572,18.536,14.302,15.919c4.3-1.456,6.121-6.398,7.589-10.694c4.712-13.792,11.389-26.91,19.765-38.838
						c1.862-2.652,4.055-5.417,7.196-6.214c5.005-1.27,9.592,2.918,13.065,6.739c8.281,9.111,16.563,18.222,24.845,27.333
						c3.204,3.525,6.669,7.214,11.271,8.446c5.687,1.523,11.673-1.115,16.486-4.506c14.268-10.053,22.646-26.699,26.901-43.626
						c5.14-20.446,5.031-41.823,4.024-62.881c-0.953-19.939-2.901-40.575-12.799-57.91c-8.756-15.336-22.999-26.735-37.677-36.554
						c-19.706-13.184-41.239-24.314-64.396-29.913c-9.81-2.372-21.393-4.899-31.535-3.543c-8.532,1.141-15,8.716-22.644,12.163
						C-1376.691,135.055-1389.552,136.694-1402.036,138.042z"/>
					<path clip-path="url(#XMLID_00000124851969109425393070000008826843337497787524_)" fill="#8296C9" d="M-1776.006,430.389
						c15.323,8.503,25.059,24.478,39.349,34.622c13.694,9.723,31.357,13.954,42.607,26.424
						c15.303,16.961,13.581,42.759,10.936,65.45c-1.331,11.418-2.67,22.882-5.595,33.999c-1.914,7.275-4.689,14.664-10.199,19.785
						c-7.547,7.014-19.039,8.42-29.053,5.996s-18.88-8.142-27.337-14.028c-29.217-20.33-56.582-44.247-75.881-74.154
						c-13.676-21.193-23.041-45.565-25.272-70.786c-0.553-6.251-0.66-12.542-0.276-18.806c0.222-3.618-0.442-11.173,3.44-13.085
						c2.228-1.098,6.22-0.494,8.669-0.654c3.206-0.209,6.408-0.477,9.61-0.747c6.275-0.528,12.55-1.1,18.844-1.345
						C-1802.437,422.527-1788.251,423.594-1776.006,430.389z"/>
					<path clip-path="url(#XMLID_00000124851969109425393070000008826843337497787524_)" fill="#8296C9" d="M-1684.263,111.261
						c-3.217,3.378-5.396,7.622-7.014,11.997c-6.455,17.458-4.382,36.779-6.947,55.215c-2.564,18.436-12.62,38.545-30.871,42.198
						c-5.379,1.077-10.933,0.58-16.395,0.08c-21.289-1.951-42.578-3.902-63.867-5.852c-3.23-0.296-6.573-0.626-9.393-2.229
						c-2.463-1.4-4.323-3.67-5.796-6.09c-5.465-8.981-6.08-20.018-6.086-30.531c-0.013-23.59,2.9-48.744,17.808-67.026
						c7.014-8.601,16.253-15.095,25.727-20.876c23.29-14.21,49.107-24.669,76.032-29.393c13.09-2.297,26.666-3.424,39.945-2.419
						c7.821,0.592,15.141,2.585,19.672,9.434c6.465,9.774,11.218,25.826,9.871,37.403
						C-1656.289,103.12-1672.678,99.099-1684.263,111.261z"/>
					<path clip-path="url(#XMLID_00000124851969109425393070000008826843337497787524_)" fill="#CAD2EA" d="M-1824.046,274.941
						c0.155,4.395,1.01,9.635,5.028,11.425c4.235,1.886,8.893-1.411,12.159-4.701c9.843-9.914,17.683-21.808,22.916-34.761
						c-3.783-5.878-11.82-6.87-18.799-7.275c-4.908-0.285-10.255-1.229-15.153-0.813c-3.654,0.31-4.446,2.433-4.905,5.773
						C-1824.188,254.674-1824.046,264.796-1824.046,274.941z"/>
					<path clip-path="url(#XMLID_00000124851969109425393070000008826843337497787524_)" fill="#CAD2EA" d="M-1609.894,219.926
						c-3.154,2.139-6.367,4.367-8.539,7.498c-2.173,3.131-3.116,7.403-1.375,10.792c1.493,2.906,4.642,4.624,7.815,5.401
						c4.645,1.138,9.854,0.508,13.684-2.356c3.83-2.864,5.938-8.129,4.464-12.679c-1.474-4.55-6.858-7.644-11.36-6.029"/>
					<path clip-path="url(#XMLID_00000124851969109425393070000008826843337497787524_)" fill="#CAD2EA" d="M-1457.779,499.831
						c-3.915,2.697-7.886,5.445-10.893,9.126c-3.008,3.681-4.975,8.49-4.204,13.181c0.287,1.749,1.026,3.536,2.493,4.53
						c1.639,1.111,3.792,1.003,5.757,0.755c6.136-0.773,12.275-2.556,17.292-6.172c5.017-3.616,8.797-9.254,9.188-15.426
						c0.283-4.47-1.628-10.594-5.697-13.064c-2.344-1.423-4.179,0.347-6.124,1.689
						C-1452.571,496.245-1455.175,498.038-1457.779,499.831z"/>
					<path clip-path="url(#XMLID_00000124851969109425393070000008826843337497787524_)" fill="#8296C9" d="M-1289.302,387.234
						c-2.544,6.746-5.908,13.56-11.758,17.774c-2.037,1.467-4.445,2.706-5.543,4.963c-0.919,1.888-0.719,4.113-0.377,6.185
						c1.973,11.972,8.089,23.221,17.065,31.385c14.022-10.115,22.42-26.567,26.219-43.434c3.799-16.867,3.474-34.353,3.13-51.639
						c-0.159-7.975-0.396-37.362-15.508-30.378c-5.929,2.74-5.792,7.887-5.457,13.537c0.493,8.305,0.161,16.659-0.987,24.899
						C-1283.788,369.643-1286.054,378.621-1289.302,387.234z"/>
				</g>
			</g>
			<g>
				<defs>
					<circle id="SVGID_00000026847213309068237590000011501309300633933751_" cx="-1574.964" cy="634.422" r="111.703"/>
				</defs>
				<clipPath id="SVGID_00000000902878060128293490000003104975223943508608_">
					<use xlink:href="#SVGID_00000026847213309068237590000011501309300633933751_"  overflow="visible"/>
				</clipPath>
				
					<circle clip-path="url(#SVGID_00000000902878060128293490000003104975223943508608_)" fill="#A6C4A8" cx="-1574.964" cy="634.422" r="111.703"/>
				<g clip-path="url(#SVGID_00000000902878060128293490000003104975223943508608_)">
					<g>
						<defs>
							<path id="XMLID_244_" d="M-1499.342,875.827l-19.959-65.687c24.408-122.958-21.246-141.417-21.246-141.417
								s-47.514-14.918-73.589,28.126c-35.751,59.017-23.856,145.875-17.484,178.978L-1499.342,875.827z"/>
						</defs>
						<use xlink:href="#XMLID_244_"  overflow="visible" fill="#F9DD89"/>
						<clipPath id="XMLID_00000082326517024363264190000017925397461188159418_">
							<use xlink:href="#XMLID_244_"  overflow="visible"/>
						</clipPath>
					</g>
					<g>
						<g>
							<g>
								<g>
									<g>
										<defs>
											<path id="XMLID_243_" d="M-1602.848,605.779c0,0-13.855,56.527,15.722,53.501c29.578-3.026,46.226-37.098,35.237-57.638
												C-1562.879,581.102-1596.163,568.492-1602.848,605.779z"/>
										</defs>
										<use xlink:href="#XMLID_243_"  overflow="visible" fill="#DA8C8D"/>
										<clipPath id="XMLID_00000050632862051713139550000007125312403258468501_">
											<use xlink:href="#XMLID_243_"  overflow="visible"/>
										</clipPath>
										<path clip-path="url(#XMLID_00000050632862051713139550000007125312403258468501_)" fill="#C17276" d="M-1566.291,614.517
											c4.102-1.674,8.206-3.755,11.024-7.174c2.818-3.419,4.055-8.47,1.959-12.373c-1.531-2.852-4.5-4.614-7.445-5.956
											c-11.705-5.332-25.41-6.125-37.652-2.179c-6.947,2.239-13.971,6.635-15.965,13.656c-1.301,4.581-0.071,9.106,1.685,13.37
											c0.977,2.373,2.116,4.922,4.531,6.128c3.259,1.628,7.645,1.168,11.147,1.054c4.945-0.162,9.876-0.735,14.727-1.711
											C-1576.814,618.233-1571.452,616.623-1566.291,614.517z"/>
										<path clip-path="url(#XMLID_00000050632862051713139550000007125312403258468501_)" fill="#EAEDF7" d="M-1600.698,645.024
											c0,0,9.972,4.411,15.917-3.452C-1584.781,641.572-1591.493,657.297-1600.698,645.024z"/>
									</g>
									<path fill="#DA8C8D" d="M-1548.545,612.985c0,0-2.856,28.872,7.406,56.378c0,0-16.816,14.462-31.292,14.835
										c-14.477,0.372-1.23-52.672-1.23-52.672L-1548.545,612.985z"/>
								</g>
								<path fill="#C17276" d="M-1578.406,657.403c0,0,2.091,0.648,12.781-8.637c-0.978,0.383,0.354,13.073-13.569,19.573
									C-1579.193,668.339-1578.856,660.726-1578.406,657.403z"/>
							</g>
						</g>
						<path fill="#343766" d="M-1565.517,598.98c0.768,7.659,3.063,15.162,6.71,21.941c-0.236-1.957-0.02-4.324,1.687-5.309
							c1.327-0.766,3.102-0.31,4.235,0.721c1.133,1.031,1.74,2.513,2.171,3.984c0.589,2.011,0.913,4.155,0.467,6.203
							c-0.446,2.047-1.766,3.985-3.711,4.765c2.312,4.987,4.54,10.14,6.852,15.127c8.882-10.184,14.184-23.431,14.781-36.931
							c0.157-3.552-0.004-7.139-0.805-10.604c-1.313-5.677-4.374-10.937-8.662-14.882c-1.701-1.566-3.624-2.946-5.814-3.69
							c-5.01-1.702-10.859,0.354-14.294,4.379C-1565.334,588.71-1566.045,593.715-1565.517,598.98z"/>
					</g>
					<path fill="#343766" d="M-1576.677,603.088c-2.437,0.539-5.158,0.91-7.286-0.395c-2.127-1.305-2.761-4.976-0.561-6.154
						c-5.066,4.392-11.541,7.262-18.24,7.536c-3.643,0.149-7.671-0.666-9.907-3.547c-2.235-2.881-1.234-8.118,2.339-8.844
						c-3.964-0.256-8.42-0.758-10.876-3.88c-1.764-2.243-2.018-5.368-1.453-8.165c1.042-5.162,4.745-9.712,9.588-11.781
						c4.843-2.068,10.691-1.598,15.14,1.219c11.749-8.962,28.397-11.023,41.977-5.195c5.9,2.532,11.674,7.223,12.279,13.615
						c0.271,2.864-0.728,5.743-2.481,7.994c-1.651,2.12-3.94,3.354-6.19,4.722c-2.251,1.368-3.985,3.386-6.076,4.97
						c-2.497,1.891-5.251,3.428-8.12,4.675C-1569.8,601.273-1573.212,602.321-1576.677,603.088z"/>
				</g>
			</g>
			<g>
				<defs>
					<circle id="SVGID_00000060716675027297334850000000278166072350500764_" cx="-1872.901" cy="211.82" r="111.302"/>
				</defs>
				<clipPath id="SVGID_00000026138764036956927940000013607490085979219606_">
					<use xlink:href="#SVGID_00000060716675027297334850000000278166072350500764_"  overflow="visible"/>
				</clipPath>
				
					<circle clip-path="url(#SVGID_00000026138764036956927940000013607490085979219606_)" fill="#A6C4A8" cx="-1872.901" cy="211.82" r="111.302"/>
				<g clip-path="url(#SVGID_00000026138764036956927940000013607490085979219606_)">
					<path fill="#F9DD89" d="M-1792.515,404.925l-11.016-41.88c0,0,26.723-38.591,26.102-57.227
						c-0.621-18.636-60.12-60.981-60.12-60.981l-31.145-3.52c0,0-64.421,17.404-80.769,61.776c-0.175,0.474-0.34,1.003-0.502,1.556
						l-17.276,37.84c-20.91,12.727-16.263,61.636,0.47,62.436h14.516H-1792.515"/>
					<path fill="#343766" d="M-1840.696,250.36c1.953-0.072,3.615-1.445,4.097-3.339l9.56-37.591
						c2.763-10.864,5.548-22.008,4.36-33.155c-1.188-11.146-7.199-22.477-17.528-26.831c-2.77-1.168-5.739-1.798-8.718-2.203
						c-7.841-1.066-15.887-0.602-23.553,1.358c-0.68,26.087-8.279,51.849-5.624,77.81c0.261,2.554,0.655,5.181,1.998,7.37
						c1.186,1.932,3.018,3.367,4.858,4.691c5.518,3.971,11.471,7.337,17.718,10.019
						C-1849.714,250.127-1845.057,250.52-1840.696,250.36z"/>
					<g>
						<g>
							<g>
								<defs>
									<path id="XMLID_242_" d="M-1835.482,192.484c0,0-3.54,49.492-30.378,37.698c-26.837-11.795-39.039-45.624-22.128-62.118
										C-1871.076,151.569-1829.823,154.546-1835.482,192.484z"/>
								</defs>
								<use xlink:href="#XMLID_242_"  overflow="visible" fill="#F1A29F"/>
								<clipPath id="XMLID_00000027589316459081877250000003958717481262139581_">
									<use xlink:href="#XMLID_242_"  overflow="visible"/>
								</clipPath>
								<path clip-path="url(#XMLID_00000027589316459081877250000003958717481262139581_)" fill="#EA857C" d="M-1865.922,189.743
									c-10.881-4.855-21.74-12.148-25.694-23.389c-0.661-1.88-1.113-3.922-0.642-5.857c0.361-1.482,1.233-2.783,2.132-4.016
									c4.093-5.616,9.45-10.797,16.216-12.383c4.361-1.022,8.971-0.455,13.253,0.86c15.122,4.647,26.616,19.285,27.542,35.078
									c0.174,2.973-0.064,6.012-0.936,8.87c-0.66,2.163-1.922,5.574-4.253,6.442c-0.993,0.37-2.143,0.242-3.18,0.238
									c-1.6-0.005-3.188-0.016-4.784-0.163c-3.187-0.293-6.332-0.952-9.402-1.846
									C-1859.177,192.557-1862.589,191.23-1865.922,189.743z"/>
								<path clip-path="url(#XMLID_00000027589316459081877250000003958717481262139581_)" fill="#EAEDF7" d="M-1846.56,220.135
									c0,0-6.758,3.212-13.144-0.902c0,0,3.004,6.666,6.886,5.855C-1848.936,224.277-1846.56,220.135-1846.56,220.135z"/>
							</g>
							<path fill="#F1A29F" d="M-1896.703,204.922c0,0,5.392,19.442,8.891,48.234c0.554,4.56,3.666,7.503,7.593,9.866
								c5.635,3.391,18.877,6.016,27.608,3.288c13.637-4.261-16.829-60.097-16.829-60.097L-1896.703,204.922z"/>
							<path fill="#EA857C" d="M-1857.024,232.035c0,0-5.232,1.048-16.381-5.708c0,0,6.104,14.518,20.226,15.208
								C-1853.179,241.534-1856.792,232.527-1857.024,232.035z"/>
						</g>
					</g>
					<path fill="#343766" d="M-1861.394,188.351c-7.204,9.723-15.659,19.345-17.666,31.278c-1.668,9.919,1.407,19.926,3.508,29.763
						c0.374,1.752,0.684,3.713-0.276,5.226c-0.955,1.503-2.848,2.06-4.585,2.448c-14.53,3.25-29.883,2.754-44.173-1.428
						c-2.385-0.698-4.827-1.548-6.611-3.279c-1.789-1.736-2.713-4.167-3.388-6.567c-3.029-10.772-2.035-22.305,0.458-33.213
						c3.572-15.628,10.282-30.699,20.651-42.925c10.37-12.226,24.536-21.473,40.243-24.68c4.131-0.844,8.509-1.269,12.642-0.21
						c4.339,1.112,7.788,4.15,10.062,7.962c1.816,3.043,1.444,6.234,0.866,9.583c-0.783,4.535-1.81,8.825-3.754,13.02
						C-1855.56,179.956-1858.362,184.259-1861.394,188.351z"/>
				</g>
			</g>
			<g>
				<defs>
					<circle id="SVGID_00000083063413711390777880000001958915172865348233_" cx="-1292.45" cy="211.82" r="111.302"/>
				</defs>
				<clipPath id="SVGID_00000124134202077531072810000010310654775006671532_">
					<use xlink:href="#SVGID_00000083063413711390777880000001958915172865348233_"  overflow="visible"/>
				</clipPath>
				
					<circle clip-path="url(#SVGID_00000124134202077531072810000010310654775006671532_)" fill="#A6C4A8" cx="-1292.45" cy="211.82" r="111.302"/>
				<g clip-path="url(#SVGID_00000124134202077531072810000010310654775006671532_)">
					<g>
						<g>
							<path fill="#DA8C8D" d="M-1265.222,185.668c0,0,18.988,56.713-10.895,56.529c-29.883-0.184-49.634-33.548-40.493-55.74
								S-1275.29,148.016-1265.222,185.668z"/>
							<path fill="#DA8C8D" d="M-1318.93,198.444c0,0,3.789,36.701-3.993,65.979c0,0,21.156,14.601,35.682,13.552
								s-4.866-62.964-4.866-62.964L-1318.93,198.444z"/>
						</g>
						<path fill="#C17276" d="M-1285.269,241.066c0,0-4.579-1.069-16.121-9.552c0,0,1.662,12.935,17.88,18.732
							C-1283.51,250.246-1284.517,244.437-1285.269,241.066z"/>
					</g>
					<path fill="#343766" d="M-1301.689,185.141c11.674,1.787,23.498-1.395,34.741-5.01c4.816-1.548,9.717-3.242,13.651-6.423
						c6.508-5.263,9.461-14.711,6.633-22.589c-1.246-3.472-3.796-6.759-7.379-7.638c-3.583-0.879-7.973,1.656-8.004,5.345
						c-20.059-1.119-40.283,6.488-54.638,20.543c-3.402,3.331-6.51,7.053-8.494,11.381c-3.179,6.935-3.236,14.978-1.617,22.433
						c1.619,7.455,4.811,14.461,7.981,21.401c0.276,0.574,6.891-1.262,7.557-1.422c1.062-0.256,2.134-0.674,2.864-1.486
						c0.932-1.036,1.151-2.538,1.051-3.928c-0.172-2.372-0.569-4.916-1.542-7.099c-1.098-2.463-3.09-4.381-4.307-6.777
						c-2.19-4.313,0.631-8.012,5.223-8.138c1.172-0.032,8.61,0.468,8.802,2.335
						C-1299.589,193.993-1300.693,189.115-1301.689,185.141z"/>
				</g>
				<path clip-path="url(#SVGID_00000124134202077531072810000010310654775006671532_)" fill="#F9DD89" d="M-1235.811,456.036
					c0,0,1.617-155.685-33.412-185.549c-35.028-29.865-51.885-27.343-51.885-27.343s-57.726,33.169-34.344,131.873
					c5.127,21.643-25.732,80.716-15.878,87.989C-1344.712,482.653-1252.183,478.568-1235.811,456.036z"/>
			</g>
			<g>
				
					<path fill="none" stroke="#B4C0DF" stroke-width="4.8067" stroke-linecap="round" stroke-miterlimit="10" stroke-dasharray="11.5361" d="
					M-1695.812,660.491c-125.963-50.609-214.898-173.899-214.898-317.961"/>
				
					<path fill="none" stroke="#B4C0DF" stroke-width="4.8067" stroke-linecap="round" stroke-miterlimit="10" stroke-dasharray="11.5361" d="
					M-1225.94,328.287c0.193,4.724,0.291,9.472,0.291,14.243c0,146.538-92.019,271.583-221.425,320.506"/>
				
					<path fill="none" stroke="#B4C0DF" stroke-width="4.8067" stroke-linecap="round" stroke-miterlimit="10" stroke-dasharray="11.5361" d="
					M-1810.577,100.517C-1748.576,38.418-1662.864,0-1568.179,0c90.03,0,171.947,34.734,233.083,91.531"/>
			</g>
		</g>
		<g>
			<path fill="#FFFFFF" d="M-2011.322,587.927h227.732c-11.252-19.215-39.804-27.638-61.297-21.82
				c3.325-3.51,6.68-7.059,9.128-11.228c9.525-16.219,1.642-39.281-14.794-48.425c-16.437-9.144-38.37-5.027-52.299,7.612
				c-9.841,8.93-16.214,22.755-13.022,35.655c-2.152-14.591-18.022-25.591-32.441-22.486c-14.418,3.105-24.354,19.662-20.311,33.845
				C-1988.881,561.282-2002.919,569.497-2011.322,587.927z"/>
			<path fill="#FFFFFF" d="M-1546.797-7.805c-12.528-2.734-25.547-0.943-38.244,0.857c11.314-3.99,15.204-19.399,10.2-30.302
				s-16.165-17.693-27.444-21.78c-13.741-4.98-29.931-6.642-42.318,1.116c-8.145,5.101-13.044,15.387-12.359,24.617
				c-2.096-1.787-4.568-3.185-7.151-4.021c-7.265-2.351-15.134-1.359-22.702-0.345c-9.241,1.239-19.598,3.138-24.836,10.852
				c-2.062,3.035-2.262,7.038-1.221,10.581c-27.581,1.788-50.18,13.21-67.948,36.04h258.636
				C-1525.835,7.518-1534.269-5.071-1546.797-7.805z"/>
			<path fill="#FFFFFF" d="M-1305.417,545.242h245.593c3.423-11.753-6.163-27.311-17.579-31.731
				c-11.415-4.421-24.591-1.691-35.303,4.233c15.046-8.341,17.107-31.343,6.62-44.981s-29.518-18.413-46.555-16.029
				c-9.528,1.334-19.251,4.942-25.274,12.444c-6.023,7.502-6.99,19.537-0.208,26.361c-1.064-6.279-7.664-10.401-14.02-10.807
				c-6.356-0.407-12.514,2.013-18.423,4.39c-7.075,2.846-14.318,5.796-19.933,10.956c-5.615,5.16-9.34,13.087-7.419,20.466
				c-12.002-8.473-28.207-10.644-42.016-5.627C-1293.741,519.934-1301.653,531.041-1305.417,545.242z"/>
		</g>
	</g>
</g>
</svg>
