<?xml version="1.0" encoding="utf-8"?>
<!-- Generator: Adobe Illustrator 26.0.1, SVG Export Plug-In . SVG Version: 6.00 Build 0)  -->
<svg version="1.1" id="Layer_1" xmlns="http://www.w3.org/2000/svg" xmlns:xlink="http://www.w3.org/1999/xlink" x="0px" y="0px"
	 viewBox="0 0 2411.143 1262.922" enable-background="new 0 0 2411.143 1262.922" xml:space="preserve">
<g>
	<path fill="#EEF2F8" d="M2316.368,1258.236h-554.386h-554.386H653.21H98.824c0,0-11.562-42.569-19.147-107.905
		c-7.585-65.336-11.193-153.439,4.715-244.508c15.908-91.069,51.332-185.103,121.81-262.301
		c70.479-77.199,176.012-137.561,332.14-161.286c0,0,6.835-30.101,25.138-75.262c18.302-45.161,48.071-105.383,93.939-165.624
		c45.867-60.241,107.833-120.501,190.528-165.74c82.695-45.239,186.12-75.456,314.906-75.61
		c136.76-0.164,247.734,21.014,337.268,52.875s157.627,74.403,208.625,116.965s84.901,85.146,106.055,117.089
		c21.153,31.943,29.557,53.244,29.557,53.244s40.591-0.283,98.705,13.707c58.114,13.99,133.751,42.255,203.843,99.35
		s134.638,143.022,170.572,272.337C2353.41,854.883,2360.73,1027.587,2316.368,1258.236z"/>
	<g>
		<path fill="#E6EAF4" d="M1839.344,81.741h-196.336h-196.336h-196.336h-196.336c-13.303,0-25.976,2.696-37.503,7.572
			c-11.527,4.875-21.908,11.93-30.625,20.648c-8.718,8.718-15.773,19.098-20.648,30.625c-4.875,11.527-7.572,24.2-7.572,37.503
			v32.983v32.983v32.982v32.983v76.818v76.818v76.818v76.818c0,13.303,2.696,25.976,7.572,37.503
			c4.875,11.527,11.93,21.908,20.648,30.625c8.718,8.718,19.098,15.773,30.625,20.648c11.527,4.875,24.2,7.571,37.503,7.571h77.324
			h77.324h77.324h77.324h47.752h47.752h47.752h47.752v43.218v43.218v43.218v43.218c0,4.431,1.275,8.377,3.406,11.633
			c2.131,3.256,5.118,5.821,8.541,7.492c3.423,1.671,7.283,2.447,11.161,2.124c3.878-0.323,7.773-1.746,11.266-4.472l46.27-47.412
			l46.27-47.412l46.27-47.412l46.27-47.412h16.396h16.397h16.396h16.396c13.303,0,25.976-2.696,37.503-7.571
			s21.907-11.93,30.625-20.648c8.718-8.718,15.773-19.098,20.648-30.625c4.875-11.527,7.571-24.2,7.571-37.503V507.491V397.691
			V287.89V178.089c0-13.303-2.696-25.976-7.571-37.503c-4.875-11.527-11.93-21.907-20.648-30.625
			c-8.718-8.718-19.098-15.773-30.625-20.648C1865.32,84.437,1852.647,81.741,1839.344,81.741z"/>
		<path fill="#8FAADD" d="M931.933,642.154v-76.818v-76.818V411.7v-76.818H812.92H693.908H574.895H455.883
			c-13.303,0-25.976,2.696-37.503,7.572c-11.527,4.875-21.907,11.93-30.625,20.648c-8.718,8.718-15.773,19.098-20.648,30.625
			c-4.876,11.527-7.572,24.2-7.572,37.503V541.03v109.801v109.801v109.801c0,13.303,2.696,25.976,7.572,37.503
			c4.875,11.527,11.93,21.907,20.648,30.625c8.718,8.718,19.098,15.773,30.625,20.648c11.527,4.875,24.2,7.571,37.503,7.571h196.336
			h196.336h196.336h196.336c13.303,0,25.976-2.696,37.503-7.571c11.527-4.875,21.907-11.93,30.625-20.648
			c8.718-8.718,15.773-19.098,20.648-30.625c4.876-11.527,7.572-24.2,7.572-37.503V837.45v-32.983v-32.982v-32.982h-77.324h-77.324
			h-77.324h-77.324c-13.303,0-25.976-2.696-37.503-7.572c-11.527-4.875-21.907-11.93-30.625-20.648
			c-8.718-8.718-15.773-19.098-20.648-30.625C934.629,668.13,931.933,655.457,931.933,642.154z"/>
		<g>
			<g>
				<g>
					<polygon fill="#FFFFFF" points="1627.048,384.404 1599.873,382.279 1572.698,380.153 1545.523,378.027 1518.348,375.901 
						1520.311,350.816 1522.273,325.732 1524.235,300.647 1526.198,275.562 1553.372,277.688 1580.548,279.814 1607.723,281.94 
						1634.898,284.066 1632.935,309.15 1630.973,334.235 1629.011,359.32 					"/>
					<path fill="#39548B" d="M1588.156,281.419c-0.171,1.371-0.611,2.643-1.262,3.768s-1.511,2.105-2.521,2.891
						c-1.01,0.787-2.171,1.38-3.421,1.735c-1.251,0.354-2.591,0.47-3.962,0.299c-1.371-0.171-2.642-0.611-3.768-1.262
						c-1.125-0.65-2.105-1.511-2.891-2.521c-0.786-1.01-1.38-2.171-1.735-3.421c-0.354-1.251-0.47-2.591-0.299-3.962
						c0.171-1.371,0.611-2.642,1.262-3.768c0.651-1.125,1.511-2.105,2.521-2.891c1.01-0.786,2.171-1.38,3.422-1.735
						c1.25-0.355,2.591-0.47,3.962-0.299c1.371,0.171,2.643,0.611,3.768,1.262c1.125,0.651,2.105,1.511,2.891,2.521
						c0.786,1.01,1.38,2.171,1.735,3.421C1588.212,278.708,1588.327,280.048,1588.156,281.419z"/>
				</g>
				<polygon fill="#CAD2EA" points="1634.898,284.066 1635.195,311.27 1635.493,338.474 1635.791,365.678 1636.088,392.882 
					1606.653,388.637 1577.218,384.392 1547.783,380.146 1518.348,375.901 1545.523,378.027 1572.698,380.153 1599.873,382.279 
					1627.048,384.404 1629.011,359.32 1630.973,334.235 1632.935,309.15 				"/>
			</g>
			<g>
				<g>
					<polygon fill="#FFFFFF" points="1620.371,247.263 1593.202,249.461 1566.033,251.66 1538.863,253.859 1511.694,256.058 
						1509.664,230.978 1507.635,205.899 1505.605,180.82 1503.575,155.74 1530.745,153.542 1557.914,151.343 1585.083,149.144 
						1612.252,146.945 1614.282,172.025 1616.312,197.104 1618.341,222.183 					"/>
					<path fill="#39548B" d="M1565.68,151.725c0.048,1.381-0.186,2.706-0.65,3.92c-0.464,1.214-1.159,2.317-2.032,3.253
						s-1.925,1.706-3.104,2.254c-1.179,0.548-2.484,0.873-3.865,0.922c-1.381,0.048-2.706-0.186-3.92-0.65
						c-1.214-0.464-2.317-1.159-3.254-2.032s-1.706-1.925-2.254-3.104c-0.548-1.179-0.874-2.484-0.922-3.865
						c-0.048-1.381,0.186-2.706,0.65-3.92c0.464-1.214,1.159-2.317,2.032-3.253s1.925-1.706,3.104-2.254
						c1.179-0.548,2.484-0.874,3.865-0.922c1.381-0.048,2.706,0.186,3.92,0.65c1.214,0.464,2.317,1.159,3.254,2.032
						c0.936,0.873,1.706,1.925,2.254,3.104C1565.306,149.038,1565.632,150.344,1565.68,151.725z"/>
				</g>
				<polygon fill="#B2BFDF" points="1612.252,146.945 1616.849,173.76 1621.445,200.574 1626.042,227.389 1630.638,254.204 
					1600.902,254.667 1571.166,255.131 1541.43,255.594 1511.694,256.058 1538.863,253.859 1566.033,251.66 1593.202,249.461 
					1620.371,247.263 1618.341,222.183 1616.312,197.104 1614.282,172.025 				"/>
			</g>
			<g>
				<g>
					<polygon fill="#FFFFFF" points="1329.325,310.197 1307.078,308.042 1284.831,305.886 1262.584,303.731 1240.337,301.576 
						1242.327,281.04 1244.316,260.505 1246.306,239.969 1248.295,219.433 1270.542,221.589 1292.789,223.744 1315.036,225.899 
						1337.283,228.055 1335.293,248.59 1333.304,269.126 1331.314,289.661 					"/>
					<path fill="#39548B" d="M1299.002,225.176c-0.161,1.121-0.541,2.157-1.092,3.07c-0.55,0.913-1.271,1.703-2.111,2.332
						c-0.84,0.63-1.801,1.099-2.831,1.37c-1.031,0.272-2.132,0.346-3.253,0.185c-1.121-0.161-2.157-0.541-3.07-1.092
						c-0.913-0.55-1.702-1.271-2.332-2.111c-0.63-0.84-1.099-1.801-1.37-2.831c-0.272-1.031-0.346-2.132-0.185-3.253
						c0.161-1.121,0.541-2.157,1.092-3.07c0.55-0.913,1.271-1.702,2.111-2.332c0.84-0.63,1.801-1.099,2.831-1.37
						c1.031-0.272,2.132-0.346,3.253-0.185c1.121,0.161,2.157,0.541,3.07,1.092c0.913,0.55,1.703,1.271,2.332,2.111
						c0.63,0.84,1.099,1.801,1.37,2.831C1299.089,222.953,1299.163,224.054,1299.002,225.176z"/>
				</g>
				<polygon fill="#B2BFDF" points="1337.283,228.055 1337.114,250.362 1336.945,272.67 1336.776,294.977 1336.607,317.284 
					1312.54,313.357 1288.472,309.43 1264.405,305.503 1240.337,301.576 1262.584,303.731 1284.831,305.886 1307.078,308.042 
					1329.325,310.197 1331.314,289.661 1333.304,269.126 1335.293,248.59 				"/>
			</g>
			<g>
				<g>
					<polygon fill="#FFFFFF" points="1232.379,394.072 1210.132,391.916 1187.885,389.761 1165.638,387.606 1143.391,385.45 
						1145.381,364.915 1147.371,344.379 1149.36,323.844 1151.35,303.308 1173.596,305.463 1195.843,307.619 1218.09,309.774 
						1240.337,311.929 1238.348,332.465 1236.358,353 1234.369,373.536 					"/>
					<path fill="#39548B" d="M1202.057,309.05c-0.161,1.121-0.541,2.157-1.092,3.07c-0.55,0.913-1.271,1.703-2.111,2.332
						c-0.84,0.63-1.801,1.099-2.831,1.37s-2.132,0.346-3.253,0.185c-1.121-0.161-2.157-0.541-3.07-1.092
						c-0.913-0.55-1.703-1.271-2.332-2.111s-1.099-1.801-1.37-2.831c-0.272-1.031-0.346-2.132-0.185-3.253
						c0.161-1.121,0.541-2.157,1.092-3.07s1.271-1.703,2.111-2.332c0.84-0.63,1.801-1.099,2.831-1.37
						c1.031-0.272,2.132-0.346,3.253-0.185c1.121,0.161,2.157,0.541,3.07,1.092c0.913,0.55,1.703,1.271,2.332,2.111
						c0.63,0.84,1.099,1.801,1.37,2.831C1202.143,306.828,1202.217,307.929,1202.057,309.05z"/>
				</g>
				<polygon fill="#B2BFDF" points="1240.337,311.929 1240.168,334.237 1239.999,356.544 1239.831,378.852 1239.662,401.159 
					1220.459,397.703 1201.257,394.247 1182.055,390.792 1162.853,387.336 1180.234,389.02 1197.616,390.704 1214.997,392.388 
					1232.379,394.072 1234.369,373.536 1236.358,353 1238.348,332.465 				"/>
			</g>
			<g>
				<g>
					<polygon fill="#FFFFFF" points="1507.227,616.909 1485.095,620.035 1462.964,623.161 1440.833,626.286 1418.701,629.412 
						1415.816,608.983 1412.93,588.554 1410.045,568.125 1407.16,547.696 1429.291,544.571 1451.422,541.445 1473.554,538.319 
						1495.685,535.193 1498.57,555.622 1501.456,576.051 1504.341,596.48 					"/>
					<path fill="#39548B" d="M1457.798,541.378c0.107,1.128-0.02,2.224-0.341,3.24s-0.836,1.953-1.505,2.762
						c-0.669,0.809-1.493,1.491-2.431,1.997s-1.991,0.836-3.119,0.943s-2.224-0.02-3.24-0.341s-1.953-0.836-2.762-1.505
						c-0.809-0.669-1.491-1.493-1.996-2.431c-0.506-0.938-0.836-1.991-0.943-3.119c-0.107-1.128,0.02-2.224,0.341-3.24
						c0.321-1.016,0.836-1.953,1.505-2.762c0.669-0.809,1.493-1.491,2.431-1.997s1.991-0.836,3.119-0.943
						c1.128-0.107,2.224,0.02,3.24,0.341c1.016,0.321,1.953,0.836,2.762,1.505c0.809,0.669,1.491,1.493,1.996,2.431
						C1457.361,539.198,1457.691,540.25,1457.798,541.378z"/>
				</g>
				<polygon fill="#CAD2EA" points="1495.685,535.193 1500.756,556.917 1505.827,578.641 1510.898,600.365 1515.969,622.089 
					1491.652,623.92 1467.335,625.751 1443.018,627.582 1418.701,629.412 1440.833,626.286 1462.964,623.161 1485.095,620.035 
					1507.227,616.909 1504.341,596.48 1501.456,576.051 1498.57,555.622 				"/>
			</g>
			<g>
				<g>
					<polygon fill="#FFFFFF" points="1496.414,490.377 1469.239,488.251 1442.064,486.125 1414.889,483.999 1387.714,481.873 
						1389.676,456.789 1391.638,431.704 1393.6,406.619 1395.563,381.535 1422.738,383.66 1449.913,385.786 1477.088,387.912 
						1504.263,390.038 1502.301,415.123 1500.338,440.207 1498.376,465.292 					"/>
					<path fill="#39548B" d="M1457.521,387.392c-0.171,1.371-0.611,2.642-1.262,3.768s-1.511,2.105-2.521,2.891
						c-1.01,0.787-2.171,1.38-3.421,1.735c-1.25,0.354-2.591,0.47-3.962,0.299c-1.371-0.171-2.643-0.612-3.768-1.262
						c-1.125-0.651-2.105-1.511-2.891-2.521s-1.38-2.171-1.735-3.421c-0.354-1.251-0.47-2.591-0.299-3.962
						c0.171-1.371,0.611-2.642,1.262-3.768c0.651-1.125,1.511-2.105,2.521-2.891c1.01-0.786,2.171-1.38,3.421-1.735
						c1.251-0.355,2.591-0.47,3.962-0.299c1.371,0.171,2.642,0.611,3.768,1.262c1.125,0.651,2.105,1.511,2.891,2.521
						c0.786,1.01,1.38,2.171,1.735,3.421C1457.577,384.68,1457.692,386.021,1457.521,387.392z"/>
				</g>
				<polygon fill="#B2BFDF" points="1504.263,390.038 1504.561,417.242 1504.858,444.446 1505.156,471.65 1505.454,498.854 
					1476.019,494.609 1446.584,490.364 1417.149,486.118 1387.714,481.873 1414.889,483.999 1442.064,486.125 1469.239,488.251 
					1496.414,490.377 1498.376,465.292 1500.338,440.207 1502.301,415.123 				"/>
			</g>
			<g>
				<g>
					<polygon fill="#FFFFFF" points="1361.281,440.492 1334.112,442.69 1306.942,444.889 1279.773,447.088 1252.604,449.287 
						1250.574,424.208 1248.544,399.128 1246.515,374.049 1244.485,348.97 1271.654,346.771 1298.824,344.572 1325.993,342.373 
						1353.162,340.174 1355.192,365.254 1357.221,390.333 1359.251,415.412 					"/>
					<path fill="#39548B" d="M1306.59,344.954c0.048,1.381-0.186,2.706-0.65,3.92c-0.464,1.214-1.159,2.317-2.032,3.253
						c-0.873,0.936-1.925,1.706-3.104,2.254c-1.179,0.548-2.484,0.873-3.865,0.922c-1.381,0.048-2.706-0.186-3.92-0.65
						c-1.214-0.464-2.317-1.159-3.254-2.032c-0.936-0.873-1.706-1.925-2.254-3.104c-0.548-1.179-0.873-2.484-0.922-3.865
						c-0.048-1.381,0.186-2.706,0.65-3.92c0.464-1.214,1.159-2.317,2.032-3.253c0.873-0.936,1.925-1.706,3.104-2.254
						c1.179-0.548,2.484-0.874,3.865-0.922c1.381-0.048,2.706,0.186,3.92,0.65c1.214,0.464,2.317,1.159,3.254,2.032
						c0.936,0.873,1.706,1.925,2.254,3.104C1306.216,342.268,1306.542,343.573,1306.59,344.954z"/>
				</g>
				<polygon fill="#B2BFDF" points="1353.162,340.174 1357.759,366.989 1362.355,393.804 1366.951,420.618 1371.548,447.433 
					1341.812,447.896 1312.076,448.36 1282.34,448.823 1252.604,449.287 1279.773,447.088 1306.942,444.889 1334.112,442.69 
					1361.281,440.492 1359.251,415.412 1357.221,390.333 1355.192,365.254 				"/>
			</g>
			<g>
				<g>
					<polygon fill="#FFFFFF" points="1383.937,555.445 1362.236,562.58 1340.536,569.714 1318.835,576.849 1297.135,583.984 
						1290.549,563.952 1283.964,543.921 1277.378,523.89 1270.792,503.859 1292.492,496.724 1314.193,489.59 1335.893,482.455 
						1357.594,475.32 1364.179,495.352 1370.765,515.383 1377.351,535.414 					"/>
					<path fill="#39548B" d="M1320.594,488.373c0.311,1.115,0.381,2.241,0.241,3.321c-0.14,1.08-0.488,2.116-1.016,3.05
						c-0.527,0.935-1.233,1.769-2.085,2.447c-0.852,0.678-1.852,1.2-2.967,1.511s-2.241,0.381-3.321,0.241
						c-1.08-0.139-2.115-0.488-3.05-1.016c-0.935-0.527-1.769-1.233-2.447-2.085c-0.678-0.853-1.2-1.852-1.511-2.967
						c-0.311-1.115-0.381-2.241-0.241-3.321c0.139-1.08,0.488-2.115,1.016-3.05c0.527-0.935,1.233-1.769,2.085-2.447
						c0.853-0.678,1.852-1.2,2.968-1.511c1.115-0.311,2.241-0.381,3.321-0.241s2.115,0.488,3.05,1.016
						c0.935,0.527,1.769,1.233,2.447,2.085C1319.761,486.259,1320.284,487.258,1320.594,488.373z"/>
				</g>
				<polygon fill="#B2BFDF" points="1357.594,475.32 1366.611,496.26 1375.63,517.2 1384.648,538.14 1393.666,559.08 
					1369.533,565.306 1345.4,571.532 1321.268,577.758 1297.135,583.984 1318.835,576.849 1340.536,569.714 1362.236,562.58 
					1383.937,555.445 1377.351,535.414 1370.765,515.383 1364.179,495.352 				"/>
			</g>
			<g>
				<g>
					<polygon fill="#FFFFFF" points="1766.466,387.191 1744.765,394.325 1723.065,401.46 1701.365,408.595 1679.664,415.729 
						1673.078,395.698 1666.492,375.667 1659.907,355.636 1653.321,335.605 1675.021,328.47 1696.722,321.335 1718.422,314.201 
						1740.122,307.066 1746.708,327.097 1753.294,347.128 1759.88,367.16 					"/>
					<path fill="#39548B" d="M1703.123,320.119c0.311,1.115,0.381,2.241,0.241,3.321c-0.139,1.08-0.488,2.116-1.016,3.05
						c-0.527,0.935-1.233,1.769-2.085,2.447c-0.853,0.678-1.852,1.2-2.968,1.511c-1.115,0.311-2.241,0.381-3.321,0.241
						c-1.08-0.139-2.115-0.488-3.05-1.016c-0.935-0.527-1.769-1.233-2.447-2.085c-0.678-0.852-1.2-1.852-1.511-2.967
						c-0.311-1.115-0.381-2.241-0.241-3.321c0.14-1.08,0.488-2.116,1.016-3.05c0.527-0.934,1.233-1.769,2.085-2.447
						c0.852-0.678,1.852-1.2,2.967-1.511s2.241-0.381,3.321-0.241c1.08,0.139,2.115,0.488,3.05,1.016
						c0.935,0.527,1.769,1.233,2.447,2.085S1702.813,319.004,1703.123,320.119z"/>
				</g>
			</g>
			<g>
				<g>
					<polygon fill="#FFFFFF" points="1493.158,333.175 1466.243,337.486 1439.328,341.797 1412.413,346.108 1385.498,350.419 
						1381.519,325.574 1377.539,300.73 1373.56,275.885 1369.58,251.041 1396.495,246.73 1423.411,242.418 1450.325,238.107 
						1477.241,233.796 1481.22,258.641 1485.199,283.486 1489.179,308.33 					"/>
					<path fill="#39548B" d="M1431.183,242.194c0.156,1.373,0.026,2.712-0.342,3.959s-0.975,2.4-1.772,3.402
						c-0.798,1.002-1.786,1.851-2.919,2.489c-1.133,0.638-2.409,1.065-3.782,1.22s-2.712,0.026-3.959-0.342
						c-1.247-0.368-2.4-0.975-3.402-1.772c-1.002-0.798-1.851-1.786-2.489-2.919c-0.638-1.132-1.065-2.409-1.22-3.782
						c-0.156-1.373-0.026-2.712,0.342-3.959c0.368-1.247,0.975-2.4,1.772-3.402c0.798-1.002,1.786-1.851,2.919-2.489
						c1.133-0.638,2.409-1.065,3.782-1.22c1.373-0.156,2.712-0.026,3.959,0.342s2.4,0.975,3.402,1.772
						c1.002,0.798,1.851,1.786,2.489,2.919S1431.027,240.821,1431.183,242.194z"/>
				</g>
				<polygon fill="#B2BFDF" points="1477.241,233.796 1483.914,260.171 1490.588,286.545 1497.262,312.92 1503.935,339.294 
					1474.326,342.075 1444.717,344.857 1415.107,347.638 1385.498,350.419 1412.413,346.108 1439.328,341.797 1466.243,337.486 
					1493.158,333.175 1489.179,308.33 1485.199,283.486 1481.22,258.641 				"/>
			</g>
			<g>
				<g>
					<polygon fill="#FFFFFF" points="1659.517,515.015 1633.02,521.412 1606.523,527.809 1580.026,534.206 1553.53,540.603 
						1547.625,516.144 1541.72,491.685 1535.815,467.227 1529.91,442.768 1556.407,436.371 1582.903,429.974 1609.4,423.577 
						1635.897,417.18 1641.802,441.639 1647.707,466.097 1653.612,490.556 					"/>
					<path fill="#39548B" d="M1590.635,429.144c0.262,1.356,0.237,2.702-0.033,3.973c-0.27,1.271-0.784,2.469-1.502,3.53
						c-0.717,1.061-1.636,1.985-2.716,2.709c-1.079,0.724-2.318,1.249-3.675,1.512c-1.356,0.262-2.702,0.237-3.973-0.033
						s-2.469-0.785-3.53-1.502c-1.061-0.717-1.985-1.636-2.709-2.716c-0.724-1.079-1.249-2.318-1.511-3.675
						c-0.262-1.356-0.237-2.702,0.033-3.973c0.27-1.272,0.785-2.469,1.502-3.53c0.717-1.061,1.636-1.985,2.716-2.709
						c1.079-0.724,2.318-1.249,3.675-1.512c1.356-0.262,2.702-0.237,3.973,0.033s2.469,0.785,3.53,1.502
						c1.061,0.717,1.985,1.637,2.709,2.716C1589.848,426.548,1590.372,427.787,1590.635,429.144z"/>
				</g>
				<polygon fill="#CAD2EA" points="1635.897,417.18 1643.435,442.801 1650.973,468.422 1658.511,494.042 1666.048,519.663 
					1637.919,524.898 1609.789,530.133 1581.659,535.368 1553.53,540.603 1580.026,534.206 1606.523,527.809 1633.02,521.412 
					1659.517,515.015 1653.612,490.556 1647.707,466.097 1641.802,441.639 				"/>
			</g>
		</g>
		<g>
			<path fill="#EEF2F8" d="M420.071,431.044c36.894-0.483,74.353-0.843,112.098-1.083c37.744-0.239,75.773-0.357,113.806-0.355
				c38.033,0.002,76.071,0.123,113.832,0.363c37.761,0.24,75.246,0.599,112.175,1.074c-36.938,0.476-74.426,0.834-112.186,1.074
				c-37.76,0.24-75.792,0.362-113.821,0.364c-38.028,0.002-76.052-0.116-113.795-0.355
				C494.436,431.887,456.975,431.526,420.071,431.044L420.071,431.044L420.071,431.044L420.071,431.044L420.071,431.044z"/>
			<path fill="#EEF2F8" d="M420.071,522.722c36.894-0.483,74.353-0.843,112.098-1.082c37.744-0.239,75.773-0.357,113.806-0.355
				c38.033,0.002,76.071,0.123,113.832,0.363c37.761,0.24,75.246,0.599,112.175,1.074c-36.938,0.476-74.426,0.834-112.186,1.074
				c-37.76,0.24-75.793,0.362-113.821,0.364c-38.028,0.002-76.052-0.116-113.795-0.355
				C494.436,523.565,456.975,523.205,420.071,522.722L420.071,522.722L420.071,522.722L420.071,522.722L420.071,522.722z"/>
			<path fill="#EEF2F8" d="M420.071,614.4c36.894-0.483,74.353-0.843,112.098-1.082c37.744-0.239,75.773-0.357,113.806-0.355
				c38.033,0.002,76.071,0.123,113.832,0.363c37.761,0.24,75.246,0.599,112.175,1.074c-36.938,0.476-74.426,0.834-112.186,1.074
				c-37.76,0.24-75.793,0.362-113.821,0.364c-38.028,0.002-76.052-0.116-113.795-0.355
				C494.436,615.243,456.975,614.883,420.071,614.4L420.071,614.4L420.071,614.4L420.071,614.4L420.071,614.4z"/>
			<path fill="#EEF2F8" d="M420.071,706.078c36.894-0.483,74.353-0.843,112.098-1.082c37.744-0.239,75.773-0.357,113.806-0.355
				c38.033,0.002,76.071,0.123,113.832,0.363c37.761,0.24,75.246,0.598,112.175,1.074c-36.938,0.476-74.426,0.834-112.186,1.075
				c-37.76,0.24-75.793,0.362-113.821,0.364c-38.028,0.002-76.052-0.116-113.795-0.355
				C494.436,706.921,456.975,706.561,420.071,706.078L420.071,706.078L420.071,706.078L420.071,706.078L420.071,706.078z"/>
			<path fill="#EEF2F8" d="M420.071,797.756c66.671-0.469,135.372-0.822,205.088-1.058c69.716-0.236,140.448-0.355,211.179-0.356
				c70.731-0.001,141.463,0.116,211.179,0.351c69.716,0.235,138.417,0.589,205.088,1.063c-66.671,0.474-135.372,0.828-205.088,1.063
				c-69.716,0.236-140.448,0.352-211.179,0.351c-70.731-0.001-141.463-0.12-211.179-0.356
				C555.442,798.579,486.741,798.226,420.071,797.756L420.071,797.756L420.071,797.756L420.071,797.756L420.071,797.756z"/>
			<path fill="#EEF2F8" d="M420.071,889.435c66.671-0.47,135.372-0.823,205.088-1.059c69.716-0.236,140.448-0.355,211.179-0.356
				c70.731-0.001,141.463,0.116,211.179,0.351c69.716,0.236,138.417,0.59,205.088,1.063c-66.671,0.473-135.372,0.828-205.088,1.063
				c-69.716,0.235-140.448,0.352-211.179,0.351c-70.731-0.001-141.463-0.12-211.179-0.356
				C555.442,890.257,486.741,889.904,420.071,889.435L420.071,889.435L420.071,889.435L420.071,889.435L420.071,889.435z"/>
		</g>
	</g>
	<g>
		<path fill="#343766" d="M2091.414,390.888c0,0,1.065,4.037,3.08,10.682c2.015,6.645,4.98,15.898,8.778,26.33
			c3.799,10.432,8.431,22.043,13.782,33.405c5.351,11.361,11.42,22.472,18.091,31.904c6.671,9.432,8.877,19.084,8.433,28.257
			c-0.444,9.173-3.539,17.866-7.467,25.381c-3.928,7.514-8.691,13.85-12.471,18.307c-3.78,4.457-6.578,7.035-6.578,7.035
			l-34.082-19.66l-34.081-19.66l-34.081-19.66l-34.081-19.66c0,0,1.925-1.412,4.796-3.683c2.871-2.272,6.687-5.404,10.47-8.845
			c3.783-3.441,7.533-7.192,10.27-10.7c2.737-3.508,4.462-6.775,4.195-9.248c-0.267-2.473-0.241-9.341-0.052-18.251
			c0.189-8.91,0.541-19.863,0.926-30.507s0.804-20.978,1.127-28.652c0.323-7.674,0.549-12.687,0.549-12.687l19.6,4.978l19.599,4.978
			l19.599,4.978L2091.414,390.888z"/>
		<path fill="#343766" d="M2039.664,359.73c0,0,2.475-1.312,6.359-2.558c3.884-1.245,9.176-2.423,14.812-2.155
			c5.636,0.268,11.614,1.984,16.87,6.525c5.256,4.541,9.789,11.909,12.533,23.482c2.744,11.573,2.729,21.655,1.163,30.267
			c-1.566,8.612-4.684,15.754-8.144,21.45c-3.46,5.696-7.264,9.945-10.202,12.77c-2.938,2.825-5.012,4.227-5.012,4.227
			s-1.922-4.444-4.768-11.467s-6.615-16.627-10.311-26.946c-3.696-10.319-7.317-21.354-9.866-31.241
			C2040.548,374.196,2039.071,365.457,2039.664,359.73z"/>
		<g>
			<path fill="#DA8C8D" d="M2086.45,1185.593l0.093,0.361l0.093,0.361l0.093,0.361l0.093,0.361c0.564,2.191,0.955,4.412,1.173,6.644
				c0.218,2.232,0.264,4.473,0.138,6.705c-0.126,2.232-0.423,4.455-0.89,6.648c-0.468,2.193-1.105,4.356-1.912,6.47l-0.925,2.423
				l-0.925,2.423l-0.925,2.423l-0.925,2.423c0,0,1.418-0.432,3.624-1.139c2.205-0.707,5.197-1.688,8.345-2.786
				s6.45-2.312,9.277-3.485c2.827-1.173,5.178-2.305,6.421-3.237c1.243-0.932,2.408-2.437,3.456-4.17
				c1.048-1.733,1.979-3.694,2.754-5.538c0.776-1.844,1.396-3.572,1.822-4.839c0.426-1.267,0.659-2.072,0.659-2.072l-1.329-1.307
				l-1.329-1.307l-1.329-1.307l-1.329-1.307l-0.274-3.371l-0.274-3.371l-0.274-3.371l-0.274-3.371l-6.282,2.094l-6.282,2.094
				l-6.282,2.094L2086.45,1185.593z"/>
			<path fill="#1F1949" d="M2117.99,1195.929c-2.123,4.395-5.457,8.297-9.263,11.677c-3.807,3.38-8.086,6.239-12.1,8.549
				c-4.014,2.31-7.762,4.07-10.508,5.253c-2.745,1.183-4.487,1.788-4.487,1.788c-4.313,5.65-8.032,10.665-11.184,15.01
				c-3.152,4.344-5.738,8.018-7.784,10.986c-2.046,2.968-3.553,5.229-4.549,6.748c-0.996,1.519-1.479,2.297-1.479,2.297l6.717-2.239
				l6.717-2.239l6.717-2.239l6.717-2.239l8.165-6.174l8.165-6.174l8.165-6.174l8.165-6.174l1.146,2.806l1.146,2.806l1.147,2.806
				l1.146,2.806c0.053,0.131,0.13,0.246,0.223,0.342c0.093,0.096,0.203,0.173,0.323,0.228c0.12,0.055,0.25,0.088,0.383,0.096
				s0.271-0.009,0.405-0.053l1.638-0.546l1.638-0.546l1.638-0.546l1.638-0.546c0.113-0.038,0.216-0.093,0.307-0.161
				c0.091-0.069,0.17-0.151,0.235-0.244s0.114-0.196,0.147-0.305c0.033-0.109,0.048-0.225,0.044-0.344l-0.154-4.53l-0.154-4.53
				l-0.154-4.53l-0.154-4.53c-0.418-3.349-1.3-6.219-2.388-8.641c-1.087-2.422-2.381-4.395-3.621-5.95
				c-1.241-1.555-2.429-2.691-3.308-3.439C2118.558,1196.287,2117.99,1195.929,2117.99,1195.929z"/>
		</g>
		<g>
			<g>
				<defs>
					<path id="XMLID_00000141448707802131435110000016762261888079743661_" d="M1918.214,657.368
						c-10.053-3.766-21.79-9.827-33.74-16.8c-11.951-6.972-24.115-14.857-35.022-22.27c-10.907-7.413-20.558-14.356-27.482-19.445
						c-6.924-5.089-11.121-8.325-11.121-8.325l-2.233-4.706l-2.233-4.706l-2.233-4.706l-2.233-4.707l28.414,8.854l28.414,8.854
						l28.414,8.854l28.414,8.854l3.806-10.871l3.806-10.871l3.806-10.871l3.806-10.871l7.025,8.008l7.025,8.008l7.025,8.008
						l7.025,8.007l-2.428,14.055l-2.428,14.055l-2.428,14.054l-2.428,14.055l0,0l0,0l0,0l0,0c-2.146,1.45-4.548,2.745-7.095,3.815
						c-2.548,1.07-5.242,1.915-7.97,2.466c-2.729,0.55-5.492,0.806-8.18,0.697C1923.25,658.751,1920.639,658.277,1918.214,657.368z"
						/>
				</defs>
				<use xlink:href="#XMLID_00000141448707802131435110000016762261888079743661_"  overflow="visible" fill="#DA8C8D"/>
				<clipPath id="XMLID_00000163787457941937765460000012338490027357979827_">
					<use xlink:href="#XMLID_00000141448707802131435110000016762261888079743661_"  overflow="visible"/>
				</clipPath>
				<path clip-path="url(#XMLID_00000163787457941937765460000012338490027357979827_)" fill="#C17276" d="M1920.519,570.132
					c0,0,1.005,3.636,2.904,9.198c1.898,5.561,4.69,13.047,8.262,20.748c3.572,7.7,7.925,15.614,12.946,22.031
					c5.021,6.417,10.711,11.336,16.957,13.047l1.369-11.294l1.369-11.294l1.369-11.294l1.369-11.293l-7.101-8.812l-7.101-8.812
					l-7.101-8.812l-7.101-8.812l-4.535,3.85l-4.535,3.85l-4.535,3.85L1920.519,570.132z"/>
			</g>
			<path fill="#343766" d="M1896.756,580.018l-16.64,5.307l-16.641,5.307l-16.64,5.307l-16.64,5.307
				c-0.317,0.101-0.641,0.15-0.962,0.15s-0.638-0.048-0.942-0.142c-0.303-0.094-0.593-0.233-0.858-0.414
				c-0.265-0.181-0.505-0.405-0.709-0.667l-20.504-26.289l-20.504-26.289l-20.504-26.289l-20.504-26.289
				c-0.34-0.436-0.545-0.923-0.629-1.419c-0.084-0.496-0.046-1.001,0.099-1.473c0.146-0.471,0.4-0.91,0.749-1.272
				c0.349-0.362,0.794-0.648,1.32-0.816l17.073-5.444l17.073-5.445l17.072-5.444l17.073-5.445c0.562-0.179,1.137-0.266,1.706-0.267
				c0.569-0.001,1.132,0.085,1.67,0.252c0.538,0.166,1.051,0.413,1.521,0.735c0.469,0.322,0.895,0.718,1.257,1.183l19.699,25.257
				l19.699,25.256l19.699,25.257l19.699,25.257c0.603,0.773,0.967,1.637,1.116,2.517c0.149,0.88,0.083,1.775-0.176,2.612
				c-0.259,0.836-0.709,1.613-1.329,2.255C1898.479,579.213,1897.69,579.721,1896.756,580.018z"/>
			<path fill="#DA8C8D" d="M1810.885,591.31c-3.036-0.763-5.948-1.88-8.672-3.312c-2.724-1.432-5.26-3.178-7.544-5.199
				c-2.284-2.021-4.317-4.316-6.035-6.846c-1.718-2.53-3.12-5.294-4.145-8.252c-0.088-0.253-0.172-0.505-0.251-0.756
				c-0.079-0.25-0.154-0.499-0.224-0.747s-0.136-0.493-0.197-0.736c-0.061-0.243-0.117-0.484-0.167-0.723
				c-0.096-0.453-0.179-0.876-0.246-1.262c-0.067-0.386-0.119-0.735-0.152-1.039s-0.049-0.563-0.045-0.771
				c0.005-0.207,0.03-0.362,0.078-0.458l2.072-4.097l2.072-4.097l2.072-4.097l2.072-4.097c0.425-0.841,1.023-1.519,1.724-2.022
				s1.504-0.832,2.339-0.974c0.835-0.142,1.701-0.097,2.529,0.147c0.828,0.244,1.616,0.686,2.295,1.34l1.134,1.092l1.135,1.092
				l1.135,1.091l1.134,1.092c0.868,0.835,1.654,1.742,2.352,2.707c0.698,0.965,1.307,1.988,1.821,3.056
				c0.514,1.069,0.934,2.183,1.254,3.33s0.538,2.327,0.649,3.526l0.517,5.557l0.517,5.557l0.517,5.557l0.517,5.557l2.247,2.902
				l2.247,2.902l2.247,2.902l2.247,2.902l-2.812-0.706l-2.812-0.706l-2.812-0.706L1810.885,591.31z"/>
		</g>
		<path fill="#39548B" d="M2081.46,972.236c-1.361-11.048,1.175-26.794,5.086-45.385s9.2-40.026,13.346-62.454
			c4.145-22.428,7.147-45.847,6.487-68.405c-0.661-22.558-4.984-44.256-15.49-63.239l-37.354,0.113l-37.354,0.113l-37.354,0.113
			l-37.354,0.113c0,0-2.397,9.566-5.998,24.817s-8.404,36.187-13.217,58.927c-4.813,22.74-9.635,47.284-13.271,69.751
			c-3.637,22.467-6.088,42.858-6.16,57.29c-0.072,14.433,0.293,37.257,0.882,63.374s1.401,55.528,2.222,83.135
			s1.651,53.41,2.276,72.311c0.625,18.901,1.045,30.9,1.045,30.9h8.055h8.056h8.055h8.056c0,0,2.051-11.677,5.282-29.871
			c3.231-18.194,7.641-42.905,12.359-68.973c4.718-26.068,9.745-53.492,14.208-77.114c4.463-23.621,8.362-43.44,10.827-54.295
			c0.25-1.103,0.551-2.249,0.899-3.434c0.348-1.186,0.743-2.412,1.181-3.676c0.439-1.265,0.921-2.568,1.444-3.908
			c0.523-1.34,1.087-2.717,1.688-4.129c0.718,3.247,1.445,6.397,2.18,9.431c0.735,3.035,1.478,5.954,2.229,8.741
			c0.75,2.787,1.508,5.442,2.272,7.948c0.764,2.505,1.535,4.862,2.311,7.051c4.824,13.603,12.582,33.556,21.505,55.833
			c8.923,22.278,19.011,46.88,28.497,69.782c9.485,22.902,18.368,44.104,24.879,59.58s10.651,25.227,10.651,25.227l7.579-2.73
			l7.579-2.73l7.579-2.73l7.579-2.73c0,0-1.706-10.285-4.35-26.402s-6.226-38.068-9.978-61.399s-7.674-48.044-10.999-69.685
			C2085.548,1001.855,2082.821,983.284,2081.46,972.236z"/>
		<g>
			<defs>
				<path id="XMLID_00000121239655641888619740000002221795278087398790_" d="M2044.117,481.619h6.481h6.481h6.481h6.481
					c0,0,2.443,1.93,6.267,5.265c3.824,3.335,9.03,8.076,14.556,13.696c5.526,5.621,11.372,12.121,16.478,18.977
					c5.105,6.856,9.47,14.066,12.032,21.107c2.562,7.041,4.679,15.132,6.413,23.309c1.733,8.177,3.084,16.438,4.114,23.82
					c1.03,7.382,1.74,13.883,2.192,18.54c0.452,4.656,0.647,7.467,0.647,7.467l-13.829-0.079l-13.828-0.079l-13.829-0.079
					l-13.829-0.079c0,0,0.904,4.689,2.411,12.646c1.508,7.956,3.619,19.18,6.036,32.248c2.417,13.068,5.138,27.981,7.865,43.317
					c2.727,15.336,5.46,31.094,7.898,45.853c0,0-7.848,1.081-20.291,2.466c-12.443,1.385-29.482,3.073-47.864,4.288
					c-18.383,1.214-38.109,1.955-55.927,1.444c-17.818-0.511-33.728-2.273-44.478-6.064l5.844-38.528l5.844-38.527l5.844-38.528
					l5.844-38.527l-7.257-9.033l-7.257-9.032l-7.257-9.033l-7.257-9.032c0,0,1.632-3.258,4.225-8.247
					c2.593-4.989,6.148-11.71,9.993-18.637c3.845-6.926,7.98-14.058,11.734-19.869s7.128-10.301,9.449-11.945
					c2.322-1.643,7.331-3.66,13.54-5.761s13.615-4.286,20.732-6.265c7.117-1.979,13.944-3.754,18.991-5.033
					c5.047-1.279,8.316-2.063,8.316-2.063h4.928h4.928h4.928H2044.117z"/>
			</defs>
			<use xlink:href="#XMLID_00000121239655641888619740000002221795278087398790_"  overflow="visible" fill="#F9DD89"/>
			<clipPath id="XMLID_00000129180744036614945150000001642808256808156603_">
				<use xlink:href="#XMLID_00000121239655641888619740000002221795278087398790_"  overflow="visible"/>
			</clipPath>
			<polygon clip-path="url(#XMLID_00000129180744036614945150000001642808256808156603_)" fill="#F4C54E" points="2092.465,675.951 
				2083.831,662.993 2075.198,650.035 2066.564,637.077 2057.93,624.12 2061.19,609.429 2064.449,594.738 2067.709,580.046 
				2070.969,565.355 2072.583,577.387 2074.197,589.419 2075.811,601.451 2077.425,613.483 2081.185,629.1 2084.945,644.717 
				2088.705,660.334 			"/>
			<path clip-path="url(#XMLID_00000129180744036614945150000001642808256808156603_)" fill="#F4C54E" d="M2054.139,665.453
				c0,0-0.741,2.518-0.929,6.564c-0.188,4.045,0.178,9.616,2.393,15.723c2.215,6.106,6.278,12.747,13.485,18.931
				c7.207,6.184,17.557,11.911,32.346,16.188l-1.1-12.467l-1.1-12.467l-1.1-12.467l-1.1-12.467l-10.724-1.885l-10.724-1.885
				l-10.724-1.885L2054.139,665.453z"/>
			<polyline clip-path="url(#XMLID_00000129180744036614945150000001642808256808156603_)" fill="#F4C54E" points="
				1946.283,588.039 1952.939,573.979 1959.594,559.919 1966.249,545.859 1972.905,531.798 1968.571,549.198 1964.237,566.597 
				1959.903,583.996 1955.569,601.396 1953.248,598.056 1950.926,594.717 1948.605,591.378 1946.283,588.039 			"/>
		</g>
		<g>
			<g>
				<g>
					<defs>
						<path id="XMLID_00000132784010161287489050000005809346068597133443_" d="M2006.88,396.808c0,0-1.567,4.167-3.362,10.436
							c-1.794,6.268-3.817,14.637-4.727,23.04c-0.91,8.403-0.709,16.839,1.944,23.243c2.653,6.404,7.757,10.774,16.652,11.045
							c8.895,0.271,17.126-1.955,24.315-5.864c7.189-3.909,13.335-9.503,18.059-15.968c4.724-6.465,8.027-13.802,9.529-21.198
							c1.502-7.397,1.203-14.853-1.276-21.556c-2.479-6.704-6.688-13.028-11.819-18.05c-5.132-5.022-11.186-8.742-17.357-10.237
							c-6.171-1.495-12.457-0.765-18.052,3.112C2015.19,378.688,2010.286,385.713,2006.88,396.808z"/>
					</defs>
					<use xlink:href="#XMLID_00000132784010161287489050000005809346068597133443_"  overflow="visible" fill="#DA8C8D"/>
					<clipPath id="XMLID_00000168833220363544511940000010900834033585119132_">
						<use xlink:href="#XMLID_00000132784010161287489050000005809346068597133443_"  overflow="visible"/>
					</clipPath>
					<path clip-path="url(#XMLID_00000168833220363544511940000010900834033585119132_)" fill="#C17276" d="M2067.784,403.642
						c0,0-2.538,0.264-6.735,0.451s-10.055,0.296-16.694-0.012c-6.639-0.309-14.06-1.036-21.385-2.523
						c-7.325-1.487-14.554-3.733-20.809-7.08c0,0,0.486-1.385,1.384-3.512c0.898-2.126,2.209-4.993,3.857-7.956
						c1.648-2.963,3.635-6.022,5.885-8.532c2.25-2.51,4.764-4.472,7.468-5.24c2.704-0.768,6.611-0.631,11.05,0.168
						c4.439,0.799,9.411,2.26,14.243,4.139s9.526,4.177,13.408,6.65c3.883,2.473,6.956,5.12,8.547,7.699
						c1.591,2.579,2.373,4.853,2.651,6.812c0.278,1.96,0.052,3.606-0.374,4.93c-0.425,1.324-1.049,2.325-1.567,2.996
						S2067.784,403.642,2067.784,403.642"/>
				</g>
				<path fill="#DA8C8D" d="M2070.255,414.354c0,0-0.305,2.172-0.689,5.939c-0.385,3.766-0.848,9.127-1.167,15.503
					c-0.318,6.376-0.491,13.769-0.292,21.599c0.199,7.83,0.768,16.097,1.934,24.224c0.261,1.819,0.23,3.631-0.067,5.375
					c-0.297,1.744-0.859,3.421-1.66,4.971c-0.801,1.55-1.841,2.974-3.094,4.213c-1.252,1.239-2.717,2.292-4.367,3.102
					c-2.263,1.11-4.759,2.255-7.386,3.332c-2.627,1.077-5.385,2.085-8.171,2.921c-2.786,0.836-5.599,1.499-8.338,1.885
					c-2.738,0.387-5.402,0.496-7.887,0.225c-4.311-0.47-5.933-5.377-5.942-12.471c-0.008-7.095,1.597-16.378,3.742-25.602
					c2.145-9.225,4.828-18.39,6.975-25.25c2.147-6.859,3.758-11.413,3.758-11.413l8.162-4.638l8.162-4.638l8.162-4.638
					L2070.255,414.354z"/>
				<path fill="#C17276" d="M2028.331,463.623c0,0,0.725-0.118,2.035-0.489c1.309-0.371,3.203-0.995,5.542-2.008
					c2.338-1.012,5.12-2.413,8.206-4.336c3.086-1.923,6.475-4.37,10.027-7.475c0,0-0.512,1.53-1.604,3.883
					c-1.092,2.353-2.765,5.528-5.086,8.819c-2.322,3.29-5.292,6.696-8.979,9.509c-3.687,2.813-8.091,5.033-13.281,5.953
					c0,0,0.131-0.617,0.344-1.605c0.213-0.988,0.508-2.347,0.836-3.831c0.328-1.483,0.688-3.091,1.031-4.577
					C2027.744,465.982,2028.07,464.618,2028.331,463.623z"/>
			</g>
		</g>
		<path fill="#FFFFFF" d="M2070.041,481.619c0,0,0.671,0.213,1.683,0.609s2.365,0.973,3.73,1.702c1.365,0.728,2.742,1.608,3.8,2.607
			c1.058,0.999,1.799,2.118,1.892,3.325c0.093,1.207,0.238,3.451-0.092,6.31c-0.33,2.859-1.134,6.332-2.938,9.997
			c-1.805,3.665-4.61,7.522-8.941,11.149c-4.332,3.627-10.19,7.023-18.101,9.766l-5.5-4.86l-5.5-4.86l-5.5-4.86l-5.5-4.86
			c0,0,2.421-0.671,6.087-1.915c3.666-1.245,8.577-3.064,13.559-5.361c4.981-2.297,10.032-5.072,13.978-8.229
			C2066.641,488.981,2069.481,485.443,2070.041,481.619z"/>
		<path fill="#FFFFFF" d="M2025.931,506.113l-5.405,2.035l-5.405,2.035l-5.405,2.035l-5.405,2.035c0,0-0.303-1.254-0.512-3.323
			c-0.208-2.069-0.322-4.954,0.058-8.217c0.38-3.262,1.253-6.901,3.018-10.48c1.765-3.578,4.422-7.095,8.369-10.113
			c0.425-0.325,0.867-0.627,1.323-0.905c0.456-0.279,0.927-0.534,1.409-0.765c0.482-0.232,0.975-0.44,1.478-0.625
			c0.502-0.185,1.013-0.346,1.531-0.483l1.012-0.269l1.012-0.269l1.012-0.269l1.012-0.269c0,0-0.285,1.297-0.628,3.354
			c-0.343,2.057-0.743,4.873-0.972,7.91c-0.229,3.038-0.288,6.297,0.053,9.239S2024.565,504.341,2025.931,506.113z"/>
		<g>
			<g>
				<path fill="#343766" d="M2034.749,423.411c-0.202,0-0.405-0.006-0.608-0.018c-0.203-0.012-0.406-0.031-0.608-0.055
					c-0.203-0.025-0.406-0.056-0.608-0.093c-0.203-0.037-0.405-0.081-0.607-0.132c-1.597-0.399-3.023-1.169-4.233-2.221
					c-1.21-1.052-2.204-2.384-2.939-3.907c-0.735-1.523-1.21-3.236-1.381-5.048c-0.172-1.812-0.04-3.724,0.44-5.644
					c0.23-0.923,0.531-1.814,0.897-2.664c0.366-0.85,0.797-1.659,1.287-2.417c0.49-0.759,1.039-1.467,1.641-2.116
					c0.602-0.649,1.257-1.239,1.96-1.76c0.715-0.53,1.457-0.974,2.216-1.33c0.76-0.355,1.537-0.622,2.323-0.798
					c0.786-0.176,1.58-0.262,2.374-0.254c0.793,0.007,1.585,0.108,2.367,0.303c0.781,0.195,1.528,0.479,2.231,0.845
					c0.704,0.366,1.365,0.815,1.976,1.34c0.611,0.525,1.172,1.125,1.676,1.796s0.95,1.411,1.332,2.215
					c0.375,0.79,0.677,1.618,0.903,2.474c0.227,0.856,0.378,1.739,0.455,2.639c0.076,0.9,0.076,1.816,0,2.739
					c-0.076,0.922-0.229,1.85-0.46,2.773c-0.418,1.677-1.068,3.224-1.893,4.602c-0.826,1.377-1.829,2.584-2.954,3.582
					c-1.125,0.998-2.373,1.786-3.688,2.324C2037.531,423.122,2036.147,423.411,2034.749,423.411z M2036.816,396.608
					c-0.5,0-1.001,0.044-1.5,0.131c-0.499,0.087-0.995,0.217-1.487,0.389c-0.491,0.172-0.977,0.387-1.454,0.643
					c-0.477,0.256-0.945,0.554-1.402,0.893c-0.626,0.464-1.21,0.991-1.746,1.571c-0.537,0.58-1.027,1.215-1.464,1.895
					s-0.823,1.406-1.15,2.169c-0.328,0.763-0.598,1.564-0.805,2.395c-0.424,1.699-0.548,3.389-0.41,4.989
					c0.138,1.6,0.539,3.111,1.164,4.453s1.476,2.513,2.515,3.436c1.038,0.922,2.264,1.595,3.641,1.939
					c1.377,0.344,2.776,0.326,4.126-0.001s2.651-0.962,3.834-1.852c1.182-0.89,2.245-2.036,3.119-3.384
					c0.874-1.348,1.558-2.897,1.982-4.596c0.207-0.83,0.345-1.664,0.414-2.492c0.069-0.828,0.07-1.65,0.004-2.456
					c-0.067-0.806-0.201-1.596-0.402-2.361c-0.201-0.764-0.469-1.503-0.804-2.207c-0.328-0.69-0.709-1.325-1.139-1.9
					s-0.906-1.09-1.425-1.538c-0.519-0.449-1.078-0.832-1.674-1.144c-0.595-0.312-1.226-0.553-1.885-0.717
					c-0.169-0.042-0.339-0.079-0.509-0.111c-0.17-0.031-0.341-0.058-0.512-0.079c-0.171-0.021-0.343-0.037-0.515-0.047
					C2037.16,396.613,2036.988,396.608,2036.816,396.608z"/>
				<path fill="#343766" d="M2009.451,413.56c-0.206,0-0.412-0.006-0.618-0.019c-0.206-0.013-0.411-0.031-0.617-0.057
					c-0.205-0.025-0.41-0.057-0.614-0.094c-0.204-0.038-0.408-0.082-0.611-0.133c-0.781-0.195-1.528-0.479-2.231-0.845
					c-0.704-0.366-1.365-0.815-1.976-1.34c-0.611-0.525-1.172-1.126-1.676-1.796c-0.504-0.671-0.95-1.411-1.332-2.215
					c-0.375-0.79-0.677-1.618-0.903-2.474c-0.227-0.856-0.379-1.739-0.455-2.639c-0.076-0.9-0.077-1.816,0-2.739
					c0.076-0.922,0.229-1.85,0.46-2.773l0,0l0,0l0,0l0,0c0.23-0.923,0.531-1.814,0.897-2.664c0.366-0.85,0.797-1.659,1.287-2.418
					s1.039-1.467,1.641-2.116c0.602-0.649,1.257-1.239,1.96-1.76c0.715-0.53,1.456-0.974,2.216-1.329
					c0.76-0.355,1.537-0.622,2.323-0.798c0.786-0.176,1.58-0.262,2.374-0.255c0.793,0.007,1.585,0.107,2.367,0.302
					c1.597,0.399,3.023,1.169,4.233,2.221c1.21,1.052,2.204,2.384,2.938,3.907c0.735,1.523,1.21,3.236,1.381,5.048
					c0.172,1.812,0.04,3.724-0.439,5.644c-0.23,0.923-0.531,1.814-0.897,2.664c-0.366,0.85-0.797,1.659-1.287,2.418
					s-1.039,1.467-1.641,2.116c-0.602,0.649-1.257,1.239-1.96,1.76c-0.529,0.393-1.073,0.738-1.628,1.035s-1.121,0.546-1.695,0.746
					c-0.573,0.2-1.154,0.35-1.738,0.451C2010.626,413.509,2010.039,413.56,2009.451,413.56z M2011.49,386.752
					c-0.5,0-1.001,0.044-1.5,0.131c-0.499,0.087-0.996,0.217-1.487,0.389c-0.491,0.172-0.977,0.387-1.454,0.643
					c-0.477,0.256-0.945,0.554-1.402,0.892c-0.626,0.464-1.21,0.991-1.746,1.571c-0.537,0.58-1.027,1.215-1.464,1.895
					c-0.438,0.68-0.823,1.406-1.15,2.169c-0.328,0.763-0.598,1.564-0.805,2.395l0,0l0,0l0,0l0,0
					c-0.207,0.83-0.345,1.664-0.414,2.492c-0.069,0.828-0.07,1.65-0.004,2.455c0.067,0.806,0.201,1.596,0.402,2.361
					c0.201,0.765,0.469,1.504,0.804,2.207c0.328,0.69,0.709,1.325,1.139,1.9s0.906,1.09,1.425,1.539
					c0.519,0.449,1.079,0.832,1.674,1.144c0.595,0.312,1.225,0.553,1.885,0.718c0.66,0.165,1.33,0.248,2.002,0.253
					c0.672,0.004,1.347-0.071,2.015-0.224c0.669-0.153,1.331-0.383,1.98-0.689c0.649-0.306,1.284-0.687,1.897-1.142
					c0.626-0.464,1.21-0.991,1.746-1.571c0.537-0.58,1.027-1.215,1.464-1.895c0.438-0.68,0.823-1.406,1.15-2.169
					c0.328-0.763,0.598-1.564,0.805-2.395c0.424-1.699,0.548-3.388,0.41-4.989c-0.138-1.6-0.539-3.111-1.164-4.452
					s-1.476-2.513-2.515-3.436c-1.038-0.922-2.264-1.595-3.641-1.939c-0.169-0.042-0.339-0.079-0.509-0.111
					c-0.17-0.031-0.341-0.058-0.512-0.079c-0.171-0.021-0.343-0.036-0.515-0.047C2011.835,386.757,2011.663,386.752,2011.49,386.752
					z"/>
				<polygon fill="#343766" points="2024.911,406.003 2023.803,405.607 2022.694,405.212 2021.585,404.816 2020.477,404.421 
					2020.615,404.032 2020.754,403.642 2020.893,403.253 2021.031,402.863 2022.14,403.259 2023.249,403.654 2024.357,404.05 
					2025.466,404.445 2025.327,404.834 2025.189,405.224 2025.05,405.613 				"/>
			</g>
			<polygon fill="#343766" points="2057.797,416.148 2054.933,415.277 2052.069,414.407 2049.204,413.537 2046.34,412.667 
				2046.46,412.271 2046.58,411.876 2046.7,411.48 2046.821,411.085 2049.685,411.955 2052.549,412.825 2055.413,413.695 
				2058.278,414.566 2058.157,414.961 2058.037,415.357 2057.917,415.752 			"/>
		</g>
		<path fill="#343766" d="M1989.361,948.312l-0.145-1.264l-0.145-1.264l-0.145-1.264l-0.145-1.264
			c-0.808-7.021-1.418-14.059-1.83-21.106c-0.412-7.047-0.627-14.103-0.645-21.159c-0.017-7.056,0.163-14.113,0.541-21.162
			c0.378-7.049,0.954-14.09,1.727-21.115l1.169-10.621l1.169-10.621l1.169-10.621l1.169-10.621l-5.219,18.503l-5.219,18.502
			l-5.219,18.502l-5.219,18.503c-2.168,7.687-3.715,15.497-4.644,23.355c-0.928,7.859-1.238,15.766-0.933,23.65
			c0.306,7.884,1.227,15.744,2.761,23.507c1.534,7.763,3.681,15.429,6.438,22.926l0.636,1.729l0.636,1.729l0.636,1.729l0.636,1.729
			l2.705-10.571l2.705-10.571l2.705-10.571L1989.361,948.312z"/>
		<g>
			<path fill="#343766" d="M1931.868,592.849l-4.074,0.114l-4.074,0.113l-4.074,0.114l-4.074,0.114l3.326-2.356l3.326-2.356
				l3.326-2.356l3.326-2.356l19.479-6.5l19.479-6.5l19.479-6.5l19.479-6.5c0.619-0.207,1.251-0.278,1.863-0.23
				s1.205,0.215,1.746,0.485c0.541,0.27,1.031,0.644,1.437,1.105s0.728,1.009,0.935,1.628l0,0h0l0,0l0,0
				c0.207,0.619,0.278,1.251,0.23,1.863c-0.048,0.612-0.215,1.205-0.485,1.746c-0.27,0.541-0.644,1.031-1.105,1.437
				c-0.461,0.406-1.009,0.728-1.628,0.935l-19.479,6.5l-19.479,6.5l-19.479,6.5L1931.868,592.849z"/>
			<g>
				<defs>
					<path id="XMLID_00000085248754331082856650000017518411150444574902_" d="M2126.191,651.392l-0.202-9.408l-0.202-9.409
						l-0.202-9.409l-0.202-9.409l-11.99-0.069l-11.99-0.069l-11.99-0.069l-11.99-0.069l1.085,6.389l1.085,6.389l1.086,6.389
						l1.085,6.389l-21.716-13.592l-21.716-13.592l-21.716-13.592l-21.716-13.592l0,0l0,0l0,0l0,0c0,0-1.219-1.409-3.087-3.528
						c-1.868-2.118-4.387-4.946-6.987-7.781c-2.6-2.835-5.28-5.679-7.473-7.83c-2.193-2.151-3.898-3.609-4.547-3.674
						c-0.649-0.065-2.45,0.339-4.786,1.042c-2.336,0.703-5.208,1.705-7.999,2.838c-2.791,1.133-5.5,2.396-7.512,3.62
						c-2.012,1.224-3.326,2.41-3.326,3.387c0,0.977,0.156,2.91,0.459,5.292c0.303,2.382,0.753,5.213,1.342,7.986
						c0.588,2.773,1.314,5.49,2.169,7.642s1.839,3.742,2.942,4.261c1.103,0.519,3.219,1.376,5.772,2.37
						c2.553,0.994,5.543,2.124,8.395,3.19c2.852,1.066,5.566,2.066,7.567,2.801c2.001,0.734,3.289,1.202,3.289,1.202l0,0l0,0l0,0
						l0,0c4.048,3.908,9.723,9.345,16.316,15.549c6.593,6.203,14.105,13.172,21.827,20.143c7.723,6.971,15.656,13.944,23.092,20.156
						c7.436,6.212,14.375,11.662,20.109,15.586c0.092,0.079,0.293,0.221,0.544,0.392c0.251,0.171,0.553,0.37,0.848,0.563
						c0.295,0.192,0.583,0.378,0.806,0.522c0.223,0.144,0.382,0.246,0.418,0.27c1.578,1.068,3.159,2.132,4.762,3.15
						c1.603,1.018,3.228,1.99,4.893,2.874c1.666,0.884,3.372,1.68,5.139,2.346s3.593,1.203,5.499,1.568
						c2.154,0.413,4.344,0.641,6.531,0.671s4.37-0.137,6.511-0.515c2.141-0.378,4.241-0.968,6.26-1.782
						c2.019-0.814,3.957-1.852,5.776-3.127c0.194-0.136,0.392-0.282,0.596-0.439c0.203-0.157,0.412-0.324,0.624-0.5
						c0.212-0.176,0.429-0.362,0.649-0.557c0.22-0.195,0.444-0.398,0.671-0.61c2.225-2.075,4.185-4.375,5.868-6.847
						c1.683-2.472,3.089-5.117,4.206-7.882c1.116-2.766,1.944-5.652,2.469-8.607
						C2126.058,657.457,2126.281,654.433,2126.191,651.392z"/>
				</defs>
				<use xlink:href="#XMLID_00000085248754331082856650000017518411150444574902_"  overflow="visible" fill="#DA8C8D"/>
				<clipPath id="XMLID_00000126308778012996040390000014412852520718654373_">
					<use xlink:href="#XMLID_00000085248754331082856650000017518411150444574902_"  overflow="visible"/>
				</clipPath>
				<path clip-path="url(#XMLID_00000126308778012996040390000014412852520718654373_)" fill="#C17276" d="M2073.172,623.419
					c0,0,1.377,1.133,4.005,2.797c2.628,1.664,6.508,3.858,11.513,5.981c5.006,2.123,11.137,4.173,18.268,5.55
					c7.132,1.377,15.263,2.08,24.27,1.506l0.297-7.354l0.297-7.354l0.297-7.354l0.297-7.354l-14.41-0.792l-14.409-0.792
					l-14.409-0.792l-14.409-0.792l-0.402,4.188l-0.402,4.188l-0.402,4.188L2073.172,623.419z"/>
			</g>
		</g>
		<g>
			<path fill="#DA8C8D" d="M1911.688,1193.713l-0.026,0.372l-0.026,0.372l-0.026,0.372l-0.026,0.372
				c-0.157,2.257-0.489,4.488-0.988,6.673c-0.499,2.186-1.164,4.327-1.989,6.405c-0.825,2.078-1.81,4.092-2.947,6.025
				c-1.137,1.932-2.426,3.783-3.859,5.533l-1.643,2.006l-1.643,2.006l-1.643,2.006l-1.643,2.006c0,0,1.482,0.038,3.798,0.065
				c2.316,0.027,5.464,0.042,8.797-0.004c3.333-0.046,6.851-0.154,9.903-0.373c3.053-0.219,5.641-0.549,7.115-1.041
				s3.055-1.551,4.597-2.863c1.542-1.313,3.045-2.879,4.364-4.383c1.319-1.504,2.454-2.947,3.259-4.014s1.28-1.758,1.28-1.758
				l-0.848-1.66l-0.848-1.66l-0.848-1.66l-0.848-1.66l0.806-3.284l0.806-3.284l0.806-3.284l0.806-3.284h-6.622h-6.622h-6.622
				H1911.688z"/>
			<path fill="#1F1949" d="M1938.341,1213.49c-3.404,3.498-7.8,6.146-12.48,8.149c-4.68,2.003-9.644,3.362-14.182,4.284
				c-4.538,0.922-8.651,1.406-11.63,1.661c-2.978,0.254-4.822,0.278-4.822,0.278c-5.878,3.996-10.992,7.578-15.356,10.703
				s-7.979,5.793-10.858,7.961c-2.88,2.168-5.024,3.837-6.449,4.964c-1.425,1.127-2.13,1.711-2.13,1.711h7.08h7.08h7.08h7.08
				l9.698-3.276l9.698-3.276l9.698-3.276l9.698-3.276l0.2,3.025l0.2,3.025l0.2,3.025l0.2,3.025c0.009,0.141,0.046,0.274,0.104,0.395
				c0.058,0.12,0.138,0.228,0.234,0.318c0.096,0.09,0.209,0.163,0.333,0.212c0.124,0.05,0.259,0.077,0.401,0.077h1.727h1.727h1.727
				h1.727c0.119,0,0.234-0.02,0.343-0.056c0.108-0.036,0.209-0.09,0.3-0.157c0.091-0.068,0.17-0.15,0.236-0.243
				c0.066-0.094,0.117-0.199,0.151-0.313l1.286-4.346l1.286-4.346l1.286-4.346l1.286-4.346c0.662-3.309,0.733-6.311,0.467-8.952
				s-0.869-4.922-1.554-6.79c-0.686-1.867-1.454-3.321-2.051-4.308C1938.766,1214.01,1938.341,1213.49,1938.341,1213.49z"/>
		</g>
		<path fill="#343766" d="M2041.259,383.187c0,0,0.143,2.941,0.741,7.582c0.598,4.64,1.651,10.979,3.471,17.772
			c1.82,6.794,4.406,14.043,8.071,20.505c3.665,6.462,8.408,12.136,14.542,15.779c0,0,1.294-1.781,3.117-4.847
			c1.823-3.066,4.176-7.415,6.293-12.552c2.117-5.137,4-11.06,4.882-17.274c0.882-6.213,0.765-12.717-1.117-19.012
			c-1.882-6.296-4.99-11.1-8.594-14.766c-3.604-3.666-7.704-6.192-11.568-7.932c-3.865-1.74-7.493-2.692-10.156-3.21
			c-2.663-0.518-4.36-0.601-4.36-0.601s-0.357-1.092-1.247-2.608c-0.89-1.516-2.314-3.455-4.447-5.148
			c-2.133-1.693-4.976-3.141-8.704-3.674c-3.729-0.533-8.343-0.152-14.02,1.813c-5.677,1.965-9.22,5.56-11.343,9.846
			c-2.122,4.287-2.823,9.265-2.814,13.998c0.009,4.733,0.727,9.22,1.444,12.524c0.716,3.304,1.43,5.425,1.43,5.425
			s0.924-1.684,2.473-4.19c1.549-2.506,3.724-5.833,6.226-9.12c2.502-3.286,5.332-6.532,8.191-8.874
			c2.859-2.342,5.748-3.781,8.368-3.453c2.62,0.327,4.5,1.242,5.847,2.43c1.346,1.188,2.159,2.649,2.645,4.069
			c0.485,1.42,0.643,2.799,0.68,3.823C2041.344,382.518,2041.259,383.187,2041.259,383.187z"/>
	</g>
	<g>
		<g>
			<defs>
				<polygon id="XMLID_00000016042364318282337230000011864164136667488170_" points="247.341,1258.62 233.209,1258.62 
					219.077,1258.62 204.946,1258.62 190.814,1258.62 183.619,1232.346 176.425,1206.072 169.231,1179.798 162.036,1153.524 
					189.488,1153.524 216.939,1153.524 244.391,1153.524 271.842,1153.524 265.717,1179.798 259.592,1206.072 253.466,1232.346 				
					"/>
			</defs>
			<use xlink:href="#XMLID_00000016042364318282337230000011864164136667488170_"  overflow="visible" fill="#39548B"/>
			<clipPath id="XMLID_00000071559875461457093730000016521572084370158013_">
				<use xlink:href="#XMLID_00000016042364318282337230000011864164136667488170_"  overflow="visible"/>
			</clipPath>
			<path clip-path="url(#XMLID_00000071559875461457093730000016521572084370158013_)" fill="#343766" d="M244.029,1144.858
				c0,0-0.426,5.365-1.895,13.701c-1.469,8.336-3.982,19.642-8.155,31.522c-4.173,11.881-10.007,24.337-18.119,34.972
				c-8.112,10.635-18.503,19.45-31.789,24.049l0.681,4.088l0.681,4.088l0.681,4.088l0.681,4.088h17.033h17.033h17.033h17.033
				l6.984-30.49l6.984-30.49l6.984-30.49l6.984-30.49l-9.709,0.341l-9.709,0.341l-9.709,0.341L244.029,1144.858z"/>
		</g>
		<g>
			<path fill="#82B379" d="M226.392,1153.642l-0.444-0.059l-0.444-0.059l-0.444-0.059l-0.444-0.059
				c0.011-0.086,0.311-2.301,0.951-6.188c0.64-3.886,1.62-9.443,2.993-16.213c1.372-6.769,3.137-14.751,5.346-23.486
				c2.209-8.735,4.862-18.223,8.011-28.006c2.912-9.046,6.41-18.815,10.55-28.722c4.14-9.907,8.921-19.953,14.401-29.555
				c5.48-9.602,11.657-18.758,18.589-26.887c6.932-8.129,14.618-15.229,23.114-20.718l0.243,0.376l0.243,0.376l0.243,0.377
				l0.243,0.377c-8.384,5.416-15.972,12.437-22.82,20.482s-12.955,17.115-18.376,26.63c-5.42,9.515-10.154,19.474-14.255,29.298
				c-4.101,9.824-7.569,19.513-10.459,28.487c-3.138,9.745-5.782,19.197-7.982,27.898c-2.201,8.701-3.959,16.652-5.327,23.395
				c-1.368,6.743-2.344,12.279-2.982,16.15C226.702,1151.349,226.404,1153.556,226.392,1153.642z"/>
			<path fill="#97C197" d="M230.924,1122.61c0,0,1.546-2.256,4.823-5.318s8.283-6.927,15.203-10.147
				c6.92-3.22,15.754-5.793,26.684-6.269c10.931-0.475,23.958,1.147,39.266,6.318c0,0-2.86,2.366-7.779,5.565
				c-4.919,3.199-11.896,7.23-20.13,10.56c-8.234,3.33-17.724,5.958-27.669,6.351
				C251.376,1130.065,240.976,1128.222,230.924,1122.61z"/>
			<path fill="#97C197" d="M234.532,1104.778c0,0-2.503-1.103-6.117-3.757c-3.614-2.654-8.339-6.86-12.782-13.066
				c-4.443-6.206-8.605-14.412-11.092-25.066c-2.487-10.654-3.3-23.757-1.047-39.757c0,0,2.854,2.374,6.907,6.617
				c4.053,4.243,9.304,10.355,14.098,17.832c4.794,7.477,9.131,16.318,11.355,26.019S238.19,1093.861,234.532,1104.778z"/>
			<path fill="#97C197" d="M243.089,1080.242c0,0,0.873-2.04,2.995-4.995c2.122-2.955,5.493-6.824,10.49-10.481
				c4.996-3.658,11.617-7.104,20.239-9.213c8.622-2.109,19.244-2.881,32.243-1.191c0,0-1.901,2.336-5.308,5.66
				c-3.407,3.324-8.32,7.637-14.344,11.59c-6.024,3.953-13.159,7.548-21.01,9.435S251.976,1083.115,243.089,1080.242z"/>
			<path fill="#97C197" d="M251.701,1053.439c0,0-1.724-1.182-4.064-3.686c-2.34-2.504-5.294-6.33-7.755-11.619
				c-2.461-5.289-4.428-12.04-4.791-20.394c-0.363-8.354,0.877-18.31,4.829-30.01c0,0,1.809,2.186,4.254,5.945
				c2.445,3.759,5.526,9.092,8.071,15.385c2.545,6.293,4.554,13.546,4.854,21.147
				C257.399,1037.808,255.99,1045.756,251.701,1053.439z"/>
			<path fill="#97C197" d="M267.279,1023.094c0,0,0.962-1.403,2.999-3.307s5.151-4.308,9.453-6.31
				c4.303-2.002,9.796-3.602,16.592-3.898c6.797-0.296,14.897,0.713,24.416,3.929c0,0-1.778,1.471-4.837,3.461
				c-3.058,1.989-7.397,4.496-12.517,6.566c-5.12,2.071-11.021,3.705-17.205,3.949
				C279.997,1027.729,273.53,1026.584,267.279,1023.094z"/>
			<path fill="#97C197" d="M275.519,1007.508c0,0-1.403-0.962-3.306-2.999c-1.904-2.037-4.308-5.151-6.31-9.453
				c-2.002-4.303-3.602-9.796-3.898-16.592c-0.296-6.797,0.713-14.897,3.929-24.416c0,0,1.471,1.779,3.461,4.837
				c1.989,3.059,4.496,7.397,6.566,12.517c2.071,5.12,3.705,11.021,3.949,17.205C280.155,994.791,279.009,1001.257,275.519,1007.508
				z"/>
			<path fill="#97C197" d="M295.835,984.247c0,0,0.465-1.29,1.667-3.19c1.203-1.899,3.142-4.408,6.092-6.845
				c2.95-2.437,6.91-4.803,12.153-6.416c5.243-1.613,11.768-2.473,19.849-1.9c0,0-1.088,1.51-3.07,3.684s-4.857,5.012-8.431,7.669
				c-3.573,2.657-7.845,5.132-12.621,6.58C306.7,985.277,301.422,985.698,295.835,984.247z"/>
		</g>
		<g>
			<path fill="#82B379" d="M204.416,1153.656c-0.03-0.2-0.848-5.36-3.194-14.064c-2.345-8.704-6.217-20.951-12.355-35.327
				c-6.138-14.376-14.541-30.88-25.948-48.097c-11.407-17.217-25.818-35.147-43.971-52.374l0.309-0.325l0.309-0.325l0.309-0.325
				l0.309-0.325c9.546,9.059,18.04,18.296,25.586,27.468c7.546,9.172,14.143,18.279,19.897,27.079
				c5.754,8.8,10.664,17.293,14.835,25.235c4.171,7.943,7.602,15.336,10.398,21.937c3.031,7.156,5.501,13.795,7.5,19.732
				c2,5.936,3.529,11.17,4.681,15.516c1.152,4.345,1.925,7.803,2.413,10.186c0.488,2.384,0.689,3.693,0.697,3.744l-0.443,0.066
				l-0.443,0.066l-0.443,0.066L204.416,1153.656z"/>
			<path fill="#82B379" d="M194.358,1115.26c0,0-0.164-2.285,0.392-6.065c0.557-3.78,1.834-9.056,4.717-15.038
				c2.883-5.982,7.372-12.671,14.352-19.276c6.98-6.605,16.451-13.128,29.298-18.779c0,0-0.32,3.217-1.482,8.163
				s-3.166,11.62-6.533,18.534c-3.368,6.914-8.099,14.069-14.716,19.975C213.77,1108.681,205.268,1113.339,194.358,1115.26z"/>
			<path fill="#82B379" d="M199.719,1130.533c0,0-1.92,1.249-5.497,2.592c-3.577,1.342-8.813,2.778-15.443,3.149
				c-6.63,0.372-14.656-0.32-23.814-3.232c-9.158-2.912-19.45-8.044-30.612-16.552c0,0,2.97-1.277,7.86-2.653
				c4.89-1.376,11.701-2.853,19.381-3.251c7.68-0.399,16.231,0.279,24.602,3.212
				C184.567,1116.729,192.758,1121.915,199.719,1130.533z"/>
			<path fill="#82B379" d="M182.977,1089.157c0,0-0.822-2.32-1.737-6.133c-0.915-3.813-1.922-9.119-2.291-15.089
				c-0.369-5.97-0.101-12.606,1.536-19.079c1.637-6.473,4.641-12.783,9.743-18.102c0,0,1.25,2.822,2.698,7.261
				c1.449,4.44,3.096,10.497,3.893,16.969c0.796,6.472,0.741,13.358-1.215,19.455
				C193.647,1080.536,189.789,1085.843,182.977,1089.157z"/>
			<path fill="#82B379" d="M134.256,1082.3c0,0,2.442-0.315,6.362-0.404c3.92-0.09,9.319,0.045,15.233,0.943
				c5.914,0.898,12.344,2.56,18.326,5.525c5.982,2.965,11.516,7.233,15.64,13.342c0,0-3.022,0.626-7.667,1.106
				c-4.645,0.48-10.914,0.813-17.408,0.226c-6.494-0.587-13.214-2.093-18.761-5.292
				C140.433,1094.548,136.059,1089.657,134.256,1082.3z"/>
			<path fill="#82B379" d="M170.476,1066.87c0,0-1.847,0.639-4.913,1.293c-3.066,0.655-7.353,1.325-12.232,1.39
				c-4.879,0.064-10.35-0.479-15.787-2.251c-5.437-1.772-10.839-4.773-15.58-9.627c0,0,1.817-0.882,4.847-1.842
				s7.271-1.995,12.12-2.303c4.849-0.308,10.306,0.113,15.765,2.068C160.155,1057.553,165.617,1061.042,170.476,1066.87z"/>
			<path fill="#82B379" d="M148.609,1035.362c0,0-1.541,0.533-4.099,1.079c-2.559,0.546-6.135,1.106-10.205,1.159
				c-4.07,0.053-8.635-0.399-13.171-1.878c-4.536-1.478-9.043-3.983-12.998-8.032c0,0,1.516-0.736,4.044-1.536
				c2.528-0.8,6.066-1.665,10.112-1.922c4.046-0.257,8.598,0.094,13.153,1.725C139.998,1027.589,144.555,1030.499,148.609,1035.362z
				"/>
			<path fill="#82B379" d="M139.171,1023.741c0,0-0.818-1.41-1.844-3.817c-1.026-2.407-2.259-5.81-3.091-9.794
				s-1.261-8.552-0.678-13.287c0.583-4.735,2.178-9.638,5.396-14.295c0,0,1.013,1.347,2.282,3.675
				c1.269,2.328,2.795,5.636,3.821,9.558c1.026,3.922,1.553,8.457,0.824,13.24C145.152,1013.802,143.167,1018.831,139.171,1023.741z
				"/>
			<path fill="#82B379" d="M127.019,1010.248c0,0-1.337-0.213-3.424-0.816c-2.087-0.602-4.925-1.593-7.926-3.149
				c-3.001-1.555-6.166-3.675-8.908-6.534c-2.742-2.859-5.061-6.458-6.371-10.972c0,0,1.398,0.055,3.563,0.459
				c2.164,0.404,5.094,1.157,8.157,2.554c3.063,1.397,6.259,3.437,8.955,6.415C123.759,1001.184,125.955,1005.1,127.019,1010.248z"
				/>
			<path fill="#82B379" d="M164.71,1057.492c0,0-1.054-1.646-2.409-4.474c-1.355-2.828-3.011-6.838-4.217-11.566
				c-1.205-4.728-1.96-10.174-1.511-15.875c0.449-5.701,2.101-11.656,5.708-17.402c0,0,1.283,1.56,2.926,4.28
				c1.642,2.72,3.644,6.601,5.079,11.243c1.435,4.642,2.305,10.045,1.684,15.81C171.349,1045.275,169.237,1051.402,164.71,1057.492z
				"/>
		</g>
	</g>
	<g>
		<path fill="#EEF2F8" d="M2198.134,165.168c-12.683,0-24.766,2.57-35.756,7.219c-10.99,4.648-20.887,11.375-29.199,19.687
			s-15.038,18.209-19.687,29.199c-4.648,10.99-7.219,23.073-7.219,35.756c0,5.627,0.506,11.136,1.476,16.483
			c0.969,5.347,2.402,10.533,4.254,15.515c1.852,4.982,4.125,9.76,6.774,14.29c2.649,4.531,5.675,8.814,9.034,12.808l-2.632,12.042
			l-2.632,12.042l-2.632,12.042l-2.632,12.042l12.409-5.212l12.409-5.212l12.409-5.212l12.409-5.211
			c2.437,0.88,4.921,1.661,7.448,2.336c2.527,0.675,5.097,1.246,7.705,1.706c2.608,0.46,5.254,0.811,7.933,1.046
			c2.679,0.235,5.391,0.355,8.131,0.355c12.683,0,24.766-2.57,35.757-7.219c10.99-4.648,20.887-11.375,29.199-19.687
			s15.038-18.209,19.687-29.199c4.648-10.99,7.219-23.073,7.219-35.756c0-12.683-2.571-24.766-7.219-35.756
			c-4.648-10.99-11.375-20.887-19.687-29.199s-18.209-15.038-29.199-19.687C2222.9,167.738,2210.817,165.168,2198.134,165.168z"/>
		<path fill="#CAD2EA" d="M2285.074,257.029c-0.705-22.454-8.257-41.44-19.997-56.136s-27.667-25.101-45.12-30.393
			s-36.434-5.471-54.279,0.285c-17.846,5.757-34.557,17.449-47.474,35.9c-5.537,8.24-9.549,17.293-12.045,26.708
			c-2.496,9.415-3.474,19.192-2.942,28.881c0.532,9.689,2.573,19.289,6.119,28.35c3.545,9.061,8.594,17.583,15.139,25.115
			c0,0-0.01,0.044-0.024,0.109c-0.015,0.066-0.034,0.153-0.053,0.241c-0.019,0.087-0.039,0.175-0.053,0.241
			c-0.015,0.066-0.024,0.109-0.024,0.109l-2.661,12.035l-2.661,12.035l-2.661,12.035l-2.661,12.035l-0.459-0.382l-0.459-0.382
			l-0.459-0.382l-0.459-0.382l12.442-5.132l12.442-5.132l12.442-5.132l12.442-5.132l0.092-0.038l0.092-0.038l0.092-0.038
			l0.092-0.038l0.09,0.033l0.09,0.033l0.09,0.033l0.09,0.033c7.893,2.976,16.166,4.74,24.521,5.351
			c8.354,0.611,16.791,0.07,25.012-1.564c8.221-1.634,16.228-4.36,23.721-8.118c7.494-3.759,14.475-8.55,20.646-14.313
			c-0.763,0.729-1.538,1.447-2.323,2.153c-0.785,0.706-1.581,1.4-2.387,2.082c-0.807,0.682-1.624,1.352-2.451,2.009
			s-1.666,1.302-2.514,1.933c-4.283,3.142-8.844,5.888-13.607,8.221c-4.763,2.332-9.729,4.249-14.822,5.732
			c-5.093,1.482-10.314,2.529-15.588,3.121c-5.274,0.592-10.6,0.728-15.905,0.388c-2.125-0.135-4.247-0.344-6.359-0.626
			s-4.215-0.637-6.303-1.064c-2.089-0.427-4.163-0.926-6.218-1.496c-2.055-0.57-4.091-1.211-6.103-1.922l0.182-0.005l0.182-0.005
			l0.182-0.005l0.182-0.005l-12.375,5.291l-12.376,5.291l-12.375,5.291l-12.375,5.291l-0.597,0.255l-0.597,0.255l-0.597,0.255
			l-0.597,0.255l0.138-0.638l0.138-0.637l0.138-0.637l0.138-0.637l2.603-12.048l2.603-12.048l2.603-12.048l2.604-12.048l0.077,0.314
			l0.077,0.314l0.077,0.314l0.077,0.314c-2.408-2.852-4.643-5.851-6.691-8.973c-2.048-3.121-3.909-6.366-5.572-9.709
			c-1.663-3.343-3.126-6.786-4.379-10.305c-1.252-3.519-2.294-7.114-3.111-10.761c-1.028-4.56-1.692-9.197-2.002-13.857
			c-0.31-4.66-0.266-9.344,0.123-13.999c0.389-4.655,1.122-9.282,2.191-13.827c1.069-4.546,2.473-9.011,4.203-13.343
			c2.424-6.058,5.518-11.844,9.18-17.251c3.662-5.407,7.894-10.435,12.592-14.978s9.865-8.6,15.399-12.065
			c5.533-3.465,11.434-6.339,17.6-8.514c14.951-5.546,30.231-6.83,44.724-4.64s28.198,7.853,40,16.2
			c11.802,8.347,21.701,19.379,28.581,32.306C2281.488,226.279,2285.349,241.101,2285.074,257.029L2285.074,257.029
			L2285.074,257.029L2285.074,257.029L2285.074,257.029z"/>
		<g>
			<path fill="#CAD2EA" d="M2149.974,254.655c0,1.373-0.278,2.681-0.781,3.871s-1.231,2.261-2.131,3.161
				c-0.9,0.9-1.971,1.628-3.161,2.131s-2.498,0.781-3.871,0.781s-2.681-0.278-3.871-0.781s-2.261-1.231-3.161-2.131
				c-0.9-0.9-1.628-1.971-2.131-3.161s-0.781-2.498-0.781-3.871c0-1.373,0.278-2.681,0.781-3.871
				c0.503-1.19,1.231-2.261,2.131-3.161c0.9-0.9,1.971-1.628,3.161-2.131c1.19-0.503,2.498-0.781,3.871-0.781
				s2.681,0.278,3.871,0.781c1.19,0.503,2.261,1.231,3.161,2.131c0.9,0.9,1.628,1.971,2.131,3.161
				C2149.696,251.974,2149.974,253.282,2149.974,254.655z"/>
			<path fill="#CAD2EA" d="M2208.078,254.655c0,1.373-0.278,2.681-0.781,3.871s-1.231,2.261-2.131,3.161
				c-0.9,0.9-1.971,1.628-3.161,2.131s-2.498,0.781-3.871,0.781c-1.373,0-2.681-0.278-3.871-0.781s-2.261-1.231-3.161-2.131
				c-0.9-0.9-1.628-1.971-2.131-3.161s-0.781-2.498-0.781-3.871c0-1.373,0.278-2.681,0.781-3.871
				c0.503-1.19,1.231-2.261,2.131-3.161c0.9-0.9,1.971-1.628,3.161-2.131c1.19-0.503,2.498-0.781,3.871-0.781
				c1.373,0,2.681,0.278,3.871,0.781c1.19,0.503,2.261,1.231,3.161,2.131c0.9,0.9,1.628,1.971,2.131,3.161
				C2207.8,251.974,2208.078,253.282,2208.078,254.655z"/>
			<path fill="#CAD2EA" d="M2266.183,254.655c0,1.373-0.278,2.681-0.781,3.871s-1.231,2.261-2.131,3.161
				c-0.9,0.9-1.971,1.628-3.161,2.131c-1.189,0.503-2.498,0.781-3.871,0.781s-2.681-0.278-3.871-0.781s-2.261-1.231-3.161-2.131
				c-0.9-0.9-1.628-1.971-2.131-3.161s-0.781-2.498-0.781-3.871c0-1.373,0.278-2.681,0.781-3.871
				c0.503-1.19,1.231-2.261,2.131-3.161c0.9-0.9,1.971-1.628,3.161-2.131c1.19-0.503,2.498-0.781,3.871-0.781
				s2.681,0.278,3.871,0.781c1.19,0.503,2.261,1.231,3.161,2.131c0.9,0.9,1.628,1.971,2.131,3.161
				C2265.904,251.974,2266.183,253.282,2266.183,254.655z"/>
		</g>
	</g>
	<path fill="#343766" d="M0,1258.62c199.318-1.428,399.844-2.502,600.973-3.22c201.13-0.718,402.864-1.079,604.598-1.082
		c201.734-0.003,403.468,0.353,604.598,1.069s401.656,1.793,600.974,3.232c-199.318,1.44-399.843,2.517-600.973,3.234
		s-402.864,1.072-604.597,1.069c-201.734-0.003-403.468-0.364-604.598-1.082C399.844,1261.122,199.318,1260.048,0,1258.62L0,1258.62
		L0,1258.62L0,1258.62L0,1258.62z"/>
</g>
</svg>
