<?xml version="1.0" encoding="utf-8"?>
<!-- Generator: Adobe Illustrator 26.0.1, SVG Export Plug-In . SVG Version: 6.00 Build 0)  -->
<svg version="1.1" id="Layer_1" xmlns="http://www.w3.org/2000/svg" xmlns:xlink="http://www.w3.org/1999/xlink" x="0px" y="0px"
	 viewBox="0 0 994.27 853.063" enable-background="new 0 0 994.27 853.063" xml:space="preserve">
<g>
	<defs>
		<filter id="Adobe_OpacityMaskFilter" filterUnits="userSpaceOnUse" x="0" y="284.303" width="937.386" height="568.76">
			<feFlood  style="flood-color:white;flood-opacity:1" result="back"/>
			<feBlend  in="SourceGraphic" in2="back" mode="normal"/>
		</filter>
	</defs>
	<mask maskUnits="userSpaceOnUse" x="0" y="284.303" width="937.386" height="568.76" id="SVGID_1_">
		<g filter="url(#Adobe_OpacityMaskFilter)">
			<defs>
				
					<filter id="Adobe_OpacityMaskFilter_00000026152416635326993910000010257358212972941441_" filterUnits="userSpaceOnUse" x="0" y="284.303" width="937.386" height="568.76">
					<feFlood  style="flood-color:white;flood-opacity:1" result="back"/>
					<feBlend  in="SourceGraphic" in2="back" mode="normal"/>
				</filter>
			</defs>
			<mask maskUnits="userSpaceOnUse" x="0" y="284.303" width="937.386" height="568.76" id="SVGID_1_">
				<g filter="url(#Adobe_OpacityMaskFilter_00000026152416635326993910000010257358212972941441_)">
				</g>
			</mask>
			
				<linearGradient id="SVGID_00000080191662819950782100000015737679570533557429_" gradientUnits="userSpaceOnUse" x1="910.5112" y1="277.2603" x2="399.6844" y2="788.087">
				<stop  offset="0" style="stop-color:#000000"/>
				<stop  offset="1" style="stop-color:#FFFFFF"/>
			</linearGradient>
			<path mask="url(#SVGID_1_)" fill="url(#SVGID_00000080191662819950782100000015737679570533557429_)" d="M886.417,853.063H1.35
				c-2.336-95.652-8.502-197.809,53.398-270.77c62.798-74.019,168.042-91.223,255.446-133.449
				c59.519-28.754,111.928-70.091,168.387-104.466c56.459-34.374,119.959-62.423,186.012-59.92
				c66.858,2.534,129.111,36.339,180.39,79.315c28.486,23.873,54.888,51.444,70.643,85.106
				c16.791,35.877,20.481,76.391,21.574,115.988C939.916,663.236,912.325,758.129,886.417,853.063z"/>
		</g>
	</mask>
	
		<linearGradient id="SVGID_00000142874234111936425270000012890557476360976003_" gradientUnits="userSpaceOnUse" x1="910.5112" y1="277.2603" x2="399.6844" y2="788.087">
		<stop  offset="0" style="stop-color:#F2F3F7"/>
		<stop  offset="1" style="stop-color:#E1E5EF"/>
	</linearGradient>
	<path fill="url(#SVGID_00000142874234111936425270000012890557476360976003_)" d="M886.417,853.063H1.35
		c-2.336-95.652-8.502-197.809,53.398-270.77c62.798-74.019,168.042-91.223,255.446-133.449
		c59.519-28.754,111.928-70.091,168.387-104.466c56.459-34.374,119.959-62.423,186.012-59.92
		c66.858,2.534,129.111,36.339,180.39,79.315c28.486,23.873,54.888,51.444,70.643,85.106
		c16.791,35.877,20.481,76.391,21.574,115.988C939.916,663.236,912.325,758.129,886.417,853.063z"/>
	<g>
		<g>
			<g>
				<g>
					<defs>
						<circle id="XMLID_245_" cx="485.914" cy="413.149" r="291.892"/>
					</defs>
					<use xlink:href="#XMLID_245_"  overflow="visible" fill="#CAD2EA"/>
					<clipPath id="XMLID_00000037661759923703476820000008499734837829943952_">
						<use xlink:href="#XMLID_245_"  overflow="visible"/>
					</clipPath>
					<path clip-path="url(#XMLID_00000037661759923703476820000008499734837829943952_)" fill="#8296C9" d="M652.057,208.661
						c-12.304,1.328-24.608,2.656-36.911,3.984c-2.557,0.276-5.363,0.494-7.485-0.96c-1.908-1.307-2.769-3.632-3.897-5.652
						c-5.337-9.561-17.95-13.036-28.707-10.991s-20.115,8.415-29.126,14.636l-21.427,14.794c-1.101,0.76-2.103,1.666-2.895,2.743
						c-5.176,7.035,1.474,13.644,7.036,18.305c4.823,4.043,9.811,10.593,6.541,15.971c-10.086,7.11-26.804,0.721-34.664,10.235
						c-5.354,6.48-3.147,16.976-8.567,23.401c-3.769,4.468-10.048,5.603-15.479,7.766c-6.401,2.549-13,8.96-8.321,15.923
						c0.359,0.534,0.775,1.029,1.228,1.486c10.208,10.3,27.806,11.752,39.719,3.649c7.299-4.965,12.316-12.865,19.91-17.366
						c16.63-9.856,37.577-0.071,54.301,9.626c9.988,5.791,21.107,13.209,21.802,24.984c0.075,1.278-0.007,2.57-0.351,3.803
						c-2.045,7.324-10.222,8.197-16.932,7.697c-35.211-2.62-70.714-22.27-104.084-10.733c-3.609,1.248-7.219,2.936-9.691,5.847
						c-2.686,3.163-3.714,7.378-4.52,11.449c-2.778,14.027-3.908,28.379-3.359,42.668c0.66,17.184,6.18,37.326,22.44,42.923
						c11.727,4.036,26.847-0.544,35.496,8.344c6.162,6.332,5.634,16.362,5.032,25.177c-2.667,39.031,1.768,80.018,22.69,113.147
						c0.641,1.015,1.624,1.799,2.787,2.098c2.225,0.574,3.368-0.993,4.381-2.401c20.106-27.944,55.647-42.983,71.961-73.297
						c12.166-22.606,11.424-49.681,10.373-75.332c-0.131-3.207-0.302-6.556-1.903-9.338c-1.733-3.012-4.861-4.886-7.687-6.908
						c-18.28-13.075-27.235-37.911-21.505-59.643c4.561,12.976,9.122,25.951,13.682,38.927c1.562,4.444,3.864,9.559,8.491,10.444
						c3.075,0.589,6.109-0.977,8.85-2.491c7.908-4.368,15.816-8.736,23.723-13.105c5.712-3.155,11.616-6.478,15.422-11.778
						c3.806-5.3,4.856-13.184,0.617-18.145c-4.049-4.738-11.161-5.207-17.362-4.579c-6.201,0.628-12.719,1.944-18.477-0.443
						c-5.758-2.387-9.52-10.527-5.162-14.983c19.166,7.621,38.331,15.241,57.497,22.862c2.068,0.822,4.231,1.713,5.625,3.447
						c1.365,1.698,1.783,3.944,2.158,6.09c2.419,13.867,4.839,27.733,7.258,41.6c1.403,8.04,6.572,18.536,14.302,15.919
						c4.3-1.456,6.121-6.398,7.589-10.694c4.712-13.792,11.389-26.91,19.765-38.838c1.862-2.652,4.055-5.417,7.196-6.214
						c5.005-1.27,9.592,2.918,13.065,6.739c8.281,9.111,16.563,18.222,24.845,27.333c3.204,3.525,6.669,7.214,11.271,8.446
						c5.687,1.523,11.673-1.115,16.486-4.506c14.268-10.053,22.646-26.699,26.901-43.626c5.139-20.446,5.031-41.823,4.024-62.881
						c-0.953-19.939-2.901-40.575-12.799-57.91c-8.756-15.336-22.999-26.735-37.677-36.554
						c-19.706-13.184-41.239-24.314-64.396-29.913c-9.81-2.372-21.393-4.899-31.535-3.543c-8.532,1.141-15,8.716-22.644,12.163
						C677.402,205.674,664.542,207.314,652.057,208.661z"/>
					<path clip-path="url(#XMLID_00000037661759923703476820000008499734837829943952_)" fill="#8296C9" d="M278.088,501.008
						c15.323,8.503,25.059,24.478,39.348,34.622c13.695,9.723,31.357,13.954,42.607,26.424
						c15.303,16.961,13.581,42.759,10.936,65.45c-1.331,11.418-2.67,22.882-5.595,33.999c-1.914,7.275-4.689,14.664-10.199,19.785
						c-7.548,7.014-19.039,8.42-29.053,5.996c-10.015-2.423-18.88-8.142-27.337-14.028c-29.217-20.33-56.582-44.247-75.881-74.154
						c-13.676-21.193-23.041-45.565-25.272-70.786c-0.553-6.25-0.66-12.542-0.277-18.806c0.222-3.618-0.442-11.173,3.44-13.085
						c2.228-1.098,6.22-0.494,8.669-0.654c3.206-0.209,6.408-0.477,9.61-0.747c6.275-0.528,12.55-1.1,18.844-1.345
						C251.657,493.146,265.843,494.213,278.088,501.008z"/>
					<path clip-path="url(#XMLID_00000037661759923703476820000008499734837829943952_)" fill="#8296C9" d="M369.831,181.881
						c-3.217,3.378-5.396,7.622-7.014,11.997c-6.455,17.458-4.383,36.779-6.947,55.215c-2.564,18.436-12.62,38.545-30.871,42.198
						c-5.379,1.077-10.933,0.58-16.395,0.08c-21.289-1.951-42.578-3.902-63.867-5.852c-3.23-0.296-6.573-0.626-9.393-2.229
						c-2.463-1.401-4.323-3.67-5.796-6.09c-5.465-8.981-6.08-20.018-6.086-30.531c-0.013-23.59,2.9-48.744,17.808-67.027
						c7.014-8.601,16.253-15.095,25.727-20.876c23.29-14.21,49.107-24.669,76.032-29.393c13.09-2.297,26.666-3.424,39.945-2.419
						c7.821,0.592,15.141,2.585,19.672,9.434c6.465,9.774,11.218,25.826,9.871,37.403
						C397.805,173.74,381.416,169.718,369.831,181.881z"/>
					<path clip-path="url(#XMLID_00000037661759923703476820000008499734837829943952_)" fill="#CAD2EA" d="M230.048,345.56
						c0.155,4.395,1.01,9.635,5.028,11.425c4.235,1.886,8.893-1.411,12.159-4.701c9.843-9.914,17.683-21.808,22.916-34.761
						c-3.783-5.878-11.82-6.87-18.799-7.275c-4.908-0.285-10.255-1.229-15.153-0.813c-3.654,0.31-4.446,2.433-4.905,5.773
						C229.906,325.293,230.048,335.415,230.048,345.56z"/>
					<path clip-path="url(#XMLID_00000037661759923703476820000008499734837829943952_)" fill="#CAD2EA" d="M444.2,290.545
						c-3.154,2.139-6.367,4.367-8.539,7.498c-2.173,3.131-3.116,7.403-1.375,10.792c1.493,2.906,4.642,4.624,7.815,5.401
						c4.645,1.138,9.854,0.508,13.684-2.356c3.83-2.864,5.938-8.129,4.464-12.679c-1.474-4.55-6.858-7.644-11.36-6.029"/>
					<path clip-path="url(#XMLID_00000037661759923703476820000008499734837829943952_)" fill="#CAD2EA" d="M596.315,570.45
						c-3.915,2.697-7.886,5.445-10.893,9.126c-3.008,3.682-4.975,8.49-4.205,13.181c0.287,1.749,1.026,3.536,2.493,4.53
						c1.639,1.111,3.792,1.003,5.757,0.755c6.136-0.774,12.274-2.556,17.292-6.172c5.017-3.616,8.797-9.254,9.188-15.426
						c0.283-4.47-1.628-10.594-5.697-13.064c-2.344-1.423-4.179,0.347-6.124,1.689C601.523,566.864,598.918,568.657,596.315,570.45z
						"/>
					<path clip-path="url(#XMLID_00000037661759923703476820000008499734837829943952_)" fill="#8296C9" d="M764.792,457.853
						c-2.544,6.746-5.908,13.56-11.758,17.774c-2.037,1.467-4.445,2.706-5.543,4.963c-0.919,1.888-0.719,4.113-0.377,6.185
						c1.973,11.972,8.089,23.221,17.065,31.386c14.022-10.115,22.42-26.567,26.219-43.434c3.799-16.867,3.474-34.353,3.13-51.639
						c-0.159-7.975-0.396-37.362-15.508-30.378c-5.929,2.74-5.792,7.887-5.457,13.537c0.493,8.305,0.161,16.659-0.987,24.899
						C770.306,440.262,768.04,449.241,764.792,457.853z"/>
				</g>
			</g>
			<g>
				<defs>
					<circle id="SVGID_00000087384280967011865750000010121454644871263679_" cx="479.13" cy="705.041" r="111.703"/>
				</defs>
				<clipPath id="SVGID_00000170237826694577133070000014120762717914490784_">
					<use xlink:href="#SVGID_00000087384280967011865750000010121454644871263679_"  overflow="visible"/>
				</clipPath>
				
					<circle clip-path="url(#SVGID_00000170237826694577133070000014120762717914490784_)" fill="#A6C4A8" cx="479.13" cy="705.041" r="111.703"/>
				<g clip-path="url(#SVGID_00000170237826694577133070000014120762717914490784_)">
					<g>
						<defs>
							<path id="XMLID_244_" d="M554.752,946.446l-19.959-65.687c24.408-122.958-21.246-141.417-21.246-141.417
								s-47.514-14.918-73.589,28.126c-35.751,59.017-23.856,145.875-17.484,178.978L554.752,946.446z"/>
						</defs>
						<use xlink:href="#XMLID_244_"  overflow="visible" fill="#F9DD89"/>
						<clipPath id="XMLID_00000063627006465501080800000004187764052706708158_">
							<use xlink:href="#XMLID_244_"  overflow="visible"/>
						</clipPath>
					</g>
					<g>
						<g>
							<g>
								<g>
									<g>
										<defs>
											<path id="XMLID_243_" d="M451.246,676.398c0,0-13.855,56.527,15.723,53.501c29.578-3.026,46.226-37.098,35.237-57.638
												C491.215,651.721,457.931,639.112,451.246,676.398z"/>
										</defs>
										<use xlink:href="#XMLID_243_"  overflow="visible" fill="#DA8C8D"/>
										<clipPath id="XMLID_00000057868353207627216020000001421067111502542992_">
											<use xlink:href="#XMLID_243_"  overflow="visible"/>
										</clipPath>
										<path clip-path="url(#XMLID_00000057868353207627216020000001421067111502542992_)" fill="#C17276" d="M487.803,685.136
											c4.102-1.674,8.206-3.755,11.025-7.174c2.818-3.419,4.055-8.47,1.959-12.373c-1.531-2.852-4.5-4.614-7.445-5.956
											c-11.706-5.332-25.41-6.125-37.652-2.179c-6.947,2.239-13.971,6.635-15.965,13.656c-1.301,4.581-0.071,9.106,1.685,13.37
											c0.977,2.373,2.116,4.922,4.531,6.128c3.259,1.628,7.645,1.168,11.147,1.054c4.945-0.162,9.876-0.735,14.727-1.711
											C477.279,688.852,482.642,687.243,487.803,685.136z"/>
										<path clip-path="url(#XMLID_00000057868353207627216020000001421067111502542992_)" fill="#EAEDF7" d="M453.396,715.643
											c0,0,9.972,4.411,15.917-3.452C469.313,712.191,462.601,727.916,453.396,715.643z"/>
									</g>
									<path fill="#DA8C8D" d="M505.549,683.605c0,0-2.856,28.872,7.406,56.378c0,0-16.816,14.462-31.292,14.835
										c-14.477,0.372-1.23-52.672-1.23-52.672L505.549,683.605z"/>
								</g>
								<path fill="#C17276" d="M475.688,728.022c0,0,2.091,0.648,12.782-8.637c-0.978,0.383,0.354,13.073-13.569,19.573
									C474.901,738.959,475.238,731.346,475.688,728.022z"/>
							</g>
						</g>
						<path fill="#343766" d="M488.577,669.6c0.768,7.659,3.063,15.162,6.71,21.941c-0.236-1.957-0.02-4.324,1.687-5.309
							c1.327-0.766,3.102-0.31,4.235,0.721c1.133,1.031,1.741,2.513,2.171,3.984c0.589,2.011,0.913,4.155,0.467,6.203
							c-0.446,2.047-1.766,3.985-3.711,4.765c2.312,4.988,4.54,10.14,6.852,15.128c8.883-10.184,14.185-23.431,14.781-36.931
							c0.157-3.552-0.004-7.139-0.805-10.604c-1.313-5.677-4.374-10.937-8.662-14.882c-1.701-1.566-3.624-2.946-5.814-3.69
							c-5.01-1.702-10.859,0.354-14.294,4.379C488.76,659.329,488.049,664.335,488.577,669.6z"/>
					</g>
					<path fill="#343766" d="M477.417,673.707c-2.437,0.539-5.158,0.91-7.285-0.395c-2.127-1.305-2.761-4.976-0.561-6.154
						c-5.066,4.392-11.541,7.262-18.24,7.536c-3.643,0.149-7.671-0.666-9.907-3.547c-2.235-2.881-1.234-8.118,2.339-8.844
						c-3.964-0.256-8.42-0.758-10.876-3.88c-1.764-2.243-2.018-5.368-1.453-8.165c1.042-5.162,4.745-9.712,9.588-11.781
						c4.843-2.068,10.691-1.598,15.14,1.219c11.749-8.962,28.397-11.023,41.977-5.195c5.9,2.532,11.674,7.223,12.279,13.615
						c0.271,2.864-0.728,5.744-2.481,7.994c-1.651,2.12-3.94,3.354-6.19,4.722c-2.251,1.368-3.985,3.386-6.076,4.97
						c-2.497,1.891-5.251,3.428-8.12,4.675C484.294,671.892,480.882,672.94,477.417,673.707z"/>
				</g>
			</g>
			<g>
				<defs>
					<circle id="SVGID_00000088121314071245329540000015127745100051722406_" cx="181.193" cy="282.439" r="111.302"/>
				</defs>
				<clipPath id="SVGID_00000022552593098110241870000004134099487295412364_">
					<use xlink:href="#SVGID_00000088121314071245329540000015127745100051722406_"  overflow="visible"/>
				</clipPath>
				
					<circle clip-path="url(#SVGID_00000022552593098110241870000004134099487295412364_)" fill="#A6C4A8" cx="181.193" cy="282.439" r="111.302"/>
				<g clip-path="url(#SVGID_00000022552593098110241870000004134099487295412364_)">
					<path fill="#F9DD89" d="M261.579,475.545l-11.016-41.88c0,0,26.723-38.591,26.101-57.227
						c-0.621-18.636-60.12-60.981-60.12-60.981l-31.145-3.52c0,0-64.421,17.404-80.769,61.776c-0.175,0.474-0.34,1.003-0.502,1.556
						l-17.276,37.84c-20.91,12.727-16.263,61.636,0.47,62.436h14.516H261.579"/>
					<path fill="#343766" d="M213.398,320.979c1.953-0.072,3.615-1.445,4.097-3.339l9.56-37.591
						c2.763-10.864,5.548-22.008,4.36-33.155c-1.188-11.146-7.199-22.477-17.528-26.831c-2.77-1.168-5.739-1.798-8.718-2.203
						c-7.841-1.066-15.887-0.602-23.553,1.358c-0.68,26.087-8.279,51.849-5.624,77.81c0.261,2.554,0.655,5.181,1.998,7.37
						c1.186,1.932,3.018,3.367,4.858,4.691c5.518,3.971,11.471,7.337,17.718,10.019
						C204.379,320.746,209.037,321.139,213.398,320.979z"/>
					<g>
						<g>
							<g>
								<defs>
									<path id="XMLID_242_" d="M218.611,263.103c0,0-3.54,49.492-30.378,37.698c-26.837-11.795-39.039-45.624-22.128-62.118
										S224.271,225.166,218.611,263.103z"/>
								</defs>
								<use xlink:href="#XMLID_242_"  overflow="visible" fill="#F1A29F"/>
								<clipPath id="XMLID_00000146472190122797138630000014621375543602229685_">
									<use xlink:href="#XMLID_242_"  overflow="visible"/>
								</clipPath>
								<path clip-path="url(#XMLID_00000146472190122797138630000014621375543602229685_)" fill="#EA857C" d="M188.172,260.362
									c-10.881-4.855-21.74-12.148-25.694-23.389c-0.661-1.88-1.113-3.921-0.642-5.857c0.361-1.482,1.233-2.783,2.132-4.016
									c4.093-5.616,9.45-10.797,16.216-12.383c4.361-1.023,8.971-0.455,13.253,0.86c15.122,4.647,26.616,19.285,27.542,35.078
									c0.174,2.973-0.064,6.012-0.936,8.87c-0.66,2.163-1.922,5.574-4.253,6.442c-0.993,0.37-2.143,0.242-3.18,0.238
									c-1.6-0.005-3.189-0.016-4.784-0.163c-3.186-0.293-6.332-0.952-9.402-1.846C194.917,263.176,191.505,261.85,188.172,260.362
									z"/>
								<path clip-path="url(#XMLID_00000146472190122797138630000014621375543602229685_)" fill="#EAEDF7" d="M207.534,290.754
									c0,0-6.758,3.212-13.144-0.902c0,0,3.004,6.666,6.886,5.855C205.158,294.896,207.534,290.754,207.534,290.754z"/>
							</g>
							<path fill="#F1A29F" d="M157.391,275.542c0,0,5.392,19.442,8.891,48.234c0.554,4.56,3.666,7.503,7.593,9.866
								c5.635,3.391,18.877,6.016,27.608,3.288c13.637-4.261-16.829-60.097-16.829-60.097L157.391,275.542z"/>
							<path fill="#EA857C" d="M197.07,302.654c0,0-5.232,1.048-16.381-5.708c0,0,6.104,14.518,20.226,15.208
								C200.915,312.154,197.302,303.146,197.07,302.654z"/>
						</g>
					</g>
					<path fill="#343766" d="M192.7,258.97c-7.204,9.723-15.659,19.345-17.666,31.278c-1.668,9.919,1.407,19.926,3.508,29.763
						c0.374,1.752,0.684,3.713-0.276,5.226c-0.955,1.503-2.848,2.06-4.585,2.448c-14.53,3.25-29.883,2.754-44.173-1.428
						c-2.385-0.698-4.827-1.548-6.611-3.279c-1.789-1.736-2.713-4.167-3.388-6.567c-3.029-10.772-2.035-22.305,0.458-33.213
						c3.572-15.628,10.282-30.699,20.651-42.925c10.37-12.226,24.536-21.473,40.243-24.68c4.131-0.844,8.509-1.269,12.642-0.21
						c4.339,1.112,7.788,4.15,10.063,7.962c1.816,3.043,1.444,6.234,0.866,9.583c-0.783,4.535-1.81,8.825-3.754,13.02
						C198.534,250.575,195.732,254.878,192.7,258.97z"/>
				</g>
			</g>
			<g>
				<defs>
					<circle id="SVGID_00000054955448286996718630000000342593731385845634_" cx="761.644" cy="282.439" r="111.302"/>
				</defs>
				<clipPath id="SVGID_00000178891476525939584530000002231547536821571207_">
					<use xlink:href="#SVGID_00000054955448286996718630000000342593731385845634_"  overflow="visible"/>
				</clipPath>
				
					<circle clip-path="url(#SVGID_00000178891476525939584530000002231547536821571207_)" fill="#A6C4A8" cx="761.644" cy="282.439" r="111.302"/>
				<g clip-path="url(#SVGID_00000178891476525939584530000002231547536821571207_)">
					<g>
						<g>
							<path fill="#DA8C8D" d="M788.872,256.287c0,0,18.988,56.713-10.895,56.529c-29.883-0.184-49.634-33.548-40.492-55.74
								C746.626,234.884,778.803,218.635,788.872,256.287z"/>
							<path fill="#DA8C8D" d="M735.164,269.063c0,0,3.789,36.701-3.993,65.979c0,0,21.156,14.601,35.682,13.552
								c14.526-1.049-4.866-62.964-4.866-62.964L735.164,269.063z"/>
						</g>
						<path fill="#C17276" d="M768.825,311.685c0,0-4.579-1.069-16.121-9.552c0,0,1.663,12.935,17.88,18.732
							C770.584,320.865,769.577,315.056,768.825,311.685z"/>
					</g>
					<path fill="#343766" d="M752.404,255.76c11.674,1.787,23.498-1.395,34.741-5.01c4.816-1.549,9.717-3.242,13.65-6.423
						c6.508-5.263,9.461-14.711,6.633-22.589c-1.246-3.472-3.796-6.759-7.379-7.638c-3.583-0.879-7.973,1.656-8.004,5.345
						c-20.059-1.12-40.283,6.488-54.638,20.543c-3.402,3.33-6.51,7.053-8.494,11.381c-3.179,6.935-3.236,14.978-1.617,22.433
						c1.619,7.455,4.811,14.461,7.981,21.401c0.276,0.574,6.891-1.262,7.557-1.422c1.062-0.256,2.134-0.674,2.864-1.486
						c0.932-1.036,1.151-2.538,1.051-3.928c-0.172-2.372-0.569-4.916-1.542-7.099c-1.098-2.463-3.091-4.381-4.307-6.776
						c-2.19-4.313,0.631-8.013,5.223-8.139c1.172-0.032,8.61,0.468,8.801,2.335C754.505,264.612,753.4,259.734,752.404,255.76z"/>
				</g>
				<path clip-path="url(#SVGID_00000178891476525939584530000002231547536821571207_)" fill="#F9DD89" d="M818.283,526.655
					c0,0,1.617-155.685-33.412-185.549c-35.028-29.865-51.885-27.342-51.885-27.342s-57.726,33.169-34.344,131.873
					c5.127,21.643-25.732,80.716-15.878,87.989C709.382,553.273,801.911,549.188,818.283,526.655z"/>
			</g>
			<g>
				
					<path fill="none" stroke="#B4C0DF" stroke-width="4.8067" stroke-linecap="round" stroke-miterlimit="10" stroke-dasharray="11.5361" d="
					M358.282,731.111C232.32,680.501,143.384,557.211,143.384,413.149"/>
				
					<path fill="none" stroke="#B4C0DF" stroke-width="4.8067" stroke-linecap="round" stroke-miterlimit="10" stroke-dasharray="11.5361" d="
					M828.154,398.906c0.193,4.724,0.291,9.472,0.291,14.243c0,146.538-92.019,271.584-221.425,320.506"/>
				
					<path fill="none" stroke="#B4C0DF" stroke-width="4.8067" stroke-linecap="round" stroke-miterlimit="10" stroke-dasharray="11.5361" d="
					M243.517,171.137c62.001-62.099,147.713-100.517,242.398-100.517c90.03,0,171.947,34.733,233.083,91.531"/>
			</g>
		</g>
		<g>
			<path fill="#FFFFFF" d="M42.772,658.547h227.732c-11.252-19.215-39.804-27.638-61.297-21.82c3.325-3.51,6.68-7.059,9.128-11.228
				c9.525-16.219,1.642-39.281-14.794-48.425c-16.437-9.144-38.37-5.027-52.299,7.612c-9.841,8.93-16.214,22.755-13.022,35.655
				c-2.152-14.591-18.022-25.591-32.441-22.486c-14.418,3.105-24.354,19.662-20.311,33.845
				C65.213,631.901,51.175,640.116,42.772,658.547z"/>
			<path fill="#FFFFFF" d="M507.297,62.814c-12.528-2.734-25.548-0.943-38.243,0.857c11.314-3.99,15.204-19.399,10.2-30.302
				c-5.005-10.903-16.165-17.693-27.444-21.78c-13.741-4.98-29.931-6.642-42.318,1.116c-8.145,5.101-13.044,15.387-12.359,24.617
				c-2.096-1.787-4.568-3.185-7.151-4.021c-7.265-2.351-15.134-1.359-22.702-0.345c-9.242,1.24-19.598,3.138-24.836,10.852
				c-2.062,3.035-2.262,7.038-1.221,10.581c-27.581,1.788-50.18,13.21-67.948,36.04H531.91
				C528.259,78.137,519.825,65.548,507.297,62.814z"/>
			<path fill="#FFFFFF" d="M748.677,615.861H994.27c3.423-11.753-6.163-27.31-17.579-31.731
				c-11.415-4.421-24.591-1.691-35.303,4.232c15.046-8.341,17.107-31.343,6.621-44.98c-10.486-13.638-29.518-18.413-46.555-16.029
				c-9.528,1.334-19.251,4.942-25.274,12.444c-6.023,7.502-6.99,19.537-0.207,26.361c-1.064-6.28-7.664-10.401-14.02-10.807
				c-6.356-0.407-12.514,2.013-18.423,4.39c-7.075,2.846-14.318,5.796-19.933,10.956c-5.615,5.16-9.34,13.087-7.419,20.466
				c-12.002-8.473-28.207-10.644-42.016-5.627C760.353,590.554,752.441,601.66,748.677,615.861z"/>
		</g>
	</g>
</g>
</svg>
