<?xml version="1.0" encoding="utf-8"?>
<!-- Generator: Adobe Illustrator 26.0.1, SVG Export Plug-In . SVG Version: 6.00 Build 0)  -->
<svg version="1.1" id="Layer_1" xmlns="http://www.w3.org/2000/svg" xmlns:xlink="http://www.w3.org/1999/xlink" x="0px" y="0px"
	 viewBox="0 0 922.501 796.581" enable-background="new 0 0 922.501 796.581" xml:space="preserve">
<g>
	<g>
		<defs>
			<path id="XMLID_9_" d="M13.451,796.581h904.65c14.193-62.617-7.05-144.268-47.86-193.835
				c-10.238-12.435-22.03-23.89-29.332-38.247c-10.979-21.587-10.509-46.973-9.812-71.182
				c2.945-102.289-0.619-219.173-78.305-285.78c-52.965-45.411-127.299-54.723-189.634-86.057
				c-45.169-22.705-83.62-56.819-127.502-81.92C384.467,10.28,324.393-6.399,266.067,2.31
				c-58.326,8.709-113.898,45.567-136.375,100.088c-21.405,51.922-11.336,111.016-20.05,166.496
				c-10.198,64.931-45.65,122.64-70.363,183.544C-3.548,557.978-10.057,685.136,13.451,796.581z"/>
		</defs>
		<use xlink:href="#XMLID_9_"  overflow="visible" fill="#D7E9F1"/>
		<clipPath id="XMLID_00000150072687458872871420000011248757377518079927_">
			<use xlink:href="#XMLID_9_"  overflow="visible"/>
		</clipPath>
		<path clip-path="url(#XMLID_00000150072687458872871420000011248757377518079927_)" fill="#39548B" d="M279.606,522.718
			c0,19.76,0,39.52,0,59.28c0,4.2,6.527,4.207,6.527,0c0-19.76,0-39.52,0-59.28C286.133,518.518,279.606,518.511,279.606,522.718
			L279.606,522.718z"/>
		<path clip-path="url(#XMLID_00000150072687458872871420000011248757377518079927_)" fill="#A4CADE" d="M268.671,570.444
			c66.541-1.999,131.586,18.279,194.408,40.306c162.361,56.928,320.079,127.092,471.075,209.567
			c-282.176,35.156-567.263,46.921-851.376,35.135c-22.715-0.942-45.467-2.039-67.97-5.278
			c-10.428-1.501-21.587-3.887-28.645-11.708c-5.371-5.952-7.458-14.103-9.062-21.959c-6.601-32.325-8.039-65.692-4.311-98.471
			c1.058-9.3,1.671-20.238,7.33-28.124c6.057-8.442,16.869-13.566,25.466-18.871c26.207-16.169,52.704-31.916,80.042-46.11
			c26.88-13.956,54.605-26.434,83.38-35.96c28.563-9.456,58.175-15.938,88.231-17.968
			C261.045,570.745,264.857,570.558,268.671,570.444z"/>
		<path clip-path="url(#XMLID_00000150072687458872871420000011248757377518079927_)" fill="#C4DCE8" d="M455.306,732.684
			c-22.655,12.85-45.021,26.462-64.98,43.196c-8.941,7.496-18.171,18.74-13.83,29.569c2.029,5.061,6.647,8.573,11.26,11.481
			c25.467,16.057,56.13,21.275,86.005,24.997c75.612,9.419,151.929,11.406,228.1,13.383c90.282,2.343,181.807,4.562,269.59-16.666
			c7.593-1.836,15.376-3.957,21.535-8.76c7.717-6.018,11.894-15.472,14.814-24.812c15.939-50.986,2.525-106.677-18.592-155.745
			c-6.196-14.398-13.284-28.845-24.591-39.699c-12.43-11.932-28.344-17.744-44.637-22.241c-11.953-3.299-23.44-6.376-35.928-5.185
			c-35.431,3.38-71.267,12.803-105.726,21.414c-36.143,9.032-71.893,19.634-107.119,31.757
			c-35.226,12.123-69.929,25.77-103.975,40.894c-34.046,15.123-67.435,31.725-100.034,49.757
			C463.222,728.222,459.258,730.443,455.306,732.684z"/>
		<path clip-path="url(#XMLID_00000150072687458872871420000011248757377518079927_)" fill="#E7F2F7" d="M856.762,337.135H416.611
			c11.562-30.395,47.09-42.26,78.189-32.756c-5.786-16.761,3.013-37.216,19.161-44.543c16.147-7.327,37.335-0.477,46.138,14.915
			c0.722-34.69,33.434-65.429,68.102-63.994c34.668,1.435,64.728,34.771,62.582,69.402c3.432-14.598,23.37-20.018,36.768-13.283
			c13.398,6.735,20.977,21.243,25.739,35.463c4.034-17.831,26.227-23.871,44.492-24.664c18.911-0.822,39.714,1.06,53.322,14.219
			S875.691,337.135,856.762,337.135z"/>
		<path clip-path="url(#XMLID_00000150072687458872871420000011248757377518079927_)" fill="#E7F2F7" d="M214.874,211.215h230.699
			c-6.33-20.324-30.534-31.161-50.823-24.721c4.384-10.863-0.437-23.975-9.435-31.475c-8.998-7.5-21.272-10.075-32.978-9.627
			c-9.135,0.35-18.564,2.569-25.558,8.456c-6.994,5.886-10.881,16.055-7.498,24.547c-1.355-10.031-15.086-12.43-24.885-9.893
			c-6.305,1.632-12.589,4.398-16.767,9.394c-4.177,4.996-5.698,12.613-2.249,18.137c-12.318-6.566-26.128-11.847-39.957-9.952
			C221.594,187.976,214.955,197.256,214.874,211.215z"/>
		<g clip-path="url(#XMLID_00000150072687458872871420000011248757377518079927_)">
			<defs>
				<path id="XMLID_10_" d="M250.097,522.282c-2.375-5.409-0.206-12.821,5.315-14.922c0.049,1.372,0.098,2.745,0.148,4.118
					c-6.779-0.994-12.304-7.48-12.206-14.331c0.098-6.851,5.806-13.177,12.61-13.977c2.097-0.246,4.942,2.146,3.146,3.255
					c-5.557-5.171-9.986-12.64-8.421-20.067c1.565-7.427,11.6-12.601,17.244-7.526c-4.1-1.147-6.938-5.08-7.996-9.203
					c-1.058-4.123-0.649-8.463-0.234-12.7c0.291-2.962,0.649-6.1,2.482-8.444c2.111-2.701,5.749-3.743,9.175-3.875
					c7.529-0.289,15.106,3.271,19.69,9.251c4.583,5.98,6.052,14.222,3.815,21.417c2.253-3.191,7.187-0.128,9.495,3.024
					c3.015,4.118,5.814,8.7,6.147,13.793c0.332,5.093-2.583,10.722-7.557,11.867c6.15-2.414,13.966,1.437,15.798,7.785
					c1.832,6.348-2.729,13.772-9.219,15.007c6.342,1.353,10.516,8.381,9.703,14.815c-0.813,6.433-5.809,11.852-11.799,14.335
					c-8.718,3.614-17.553,0.845-26.236-1.295c-6.883-1.696-14.525-1.286-21.141-3.686
					C255.834,529.391,251.94,526.479,250.097,522.282z"/>
			</defs>
			<use xlink:href="#XMLID_10_"  overflow="visible" fill="#93C9B3"/>
			<clipPath id="XMLID_00000041990675788157248800000010409721196708050060_">
				<use xlink:href="#XMLID_10_"  overflow="visible"/>
			</clipPath>
			<path clip-path="url(#XMLID_00000041990675788157248800000010409721196708050060_)" fill="#6E9786" d="M289.451,508.653
				c-2.342,0.332-4.785,0.011-7.039,0.726c-4.61,1.462-7.122,6.775-11.684,8.379c-2.093,0.736-4.379,0.597-6.592,0.45
				c-3.135-0.209-6.271-0.419-9.406-0.628c-3.243-0.216-7.403,0.143-8.419,3.231c-1.007,3.061,2.07,5.816,4.777,7.563
				c9.865,6.365,20.136,12.561,31.589,15.147c11.452,2.586,24.436,1.023,33.24-6.743c8.298-7.32,11.611-18.848,12.395-29.886
				c0.311-4.378,0.266-9.043-1.742-13.056c-1.64-3.277-5.524-6.908-9.499-6.152c-3.71,0.705-7.073,4.323-9.627,6.877
				c-2.663,2.663-5.02,5.615-7.714,8.248C296.87,505.605,293.51,508.078,289.451,508.653z"/>
			<path clip-path="url(#XMLID_00000041990675788157248800000010409721196708050060_)" fill="#6E9786" d="M268.661,482.01
				c5.091,1.267,10.937,1.422,14.594,5.183c0.464,0.478,0.895,1.037,0.994,1.696c0.18,1.197-0.832,2.309-1.982,2.684
				c-1.15,0.374-2.398,0.199-3.597,0.04c-5.63-0.75-11.318-1.074-16.997-0.969c-2.822,0.052-5.669,0.208-8.449-0.283
				c-3.628-0.641-6.954-2.521-8.514-5.981c-1.196-2.654-2.347-6.902-0.719-9.603c2.966-4.922,10.13-0.877,13.219,1.569
				C260.573,479.007,264.495,480.973,268.661,482.01z"/>
		</g>
		<path clip-path="url(#XMLID_00000150072687458872871420000011248757377518079927_)" fill="#E7F2F7" d="M-57.06,527.499h236.612
			c-12.38-15.902-36.833-22.766-55.641-15.525c-2.628-16.18-10.61-32.697-25.269-40.033c-14.659-7.336-36.159-1.011-40.235,14.866
			c-4.822-12.899-18.153-22.117-31.924-22.075c-13.771,0.042-27.045,9.341-31.789,22.269
			C-31.519,484.292-49.546,502.24-57.06,527.499z"/>
	</g>
	<g>
		<g>
			<path fill="#C17276" d="M459.631,639.156l-19.333,46.471l-132.97-55.146l12.006,28.095c0,0,76.413,80.329,131.988,78.033
				c55.575-2.296,74.901-63.337,74.901-63.337L459.631,639.156z"/>
			<path fill="#93C9B3" d="M549.186,474.272c0,0-84.922,93.199-99.846,159.612l81.806,41.912l52.851-110.942L549.186,474.272z"/>
			<path fill="#343766" d="M519.531,314.794c-19.212,10.467-30.591,31.757-34.415,53.298c-3.824,21.541-1.146,43.643,1.54,65.356
				c-7.127,4.201-14.794,8.996-19.05,16.091c-4.256,7.095-4.042,17.608,2.701,22.401c5.243,3.727,12.341,2.887,18.696,1.887
				c0.283,8.08,7.782,14.686,15.797,15.748c8.015,1.061,16.08-2.464,22.293-7.637c0.496,4.669,3.88,8.678,8.003,10.926
				c4.122,2.248,8.906,2.965,13.596,3.187c14.913,0.704,31.368-4.363,38.975-17.208c2.608-4.403,4.001-9.409,5.156-14.395
				c4.563-19.698,5.824-40.156,3.714-60.265c-1.437-13.691-4.544-27.51-11.805-39.206c-6.427-10.353-15.772-18.525-25.206-26.237
				C546.785,328.324,534.312,322.031,519.531,314.794z"/>
			<g>
				<defs>
					<path id="XMLID_16_" d="M782.539,784.841l-14.375-24.889c-18.97-32.845-30.839-69.323-34.74-107.051
						c-18.631-180.154-118.531-188.414-118.531-188.414s-73.362-7.093-105.247,79.298c-39.749,107.698,68.17,184.01,95.73,239.196
						L782.539,784.841z"/>
				</defs>
				<use xlink:href="#XMLID_16_"  overflow="visible" fill="#93C9B3"/>
				<clipPath id="XMLID_00000032634456078645050610000011637838607310819509_">
					<use xlink:href="#XMLID_16_"  overflow="visible"/>
				</clipPath>
			</g>
			<g>
				<g>
					<g>
						<g>
							<g>
								<defs>
									<path id="XMLID_24_" d="M505.901,359.796c0,0-25.353,103.435,28.77,97.898c54.122-5.537,84.587-67.884,64.477-105.468
										C579.038,314.642,518.134,291.568,505.901,359.796z"/>
								</defs>
								<use xlink:href="#XMLID_24_"  overflow="visible" fill="#DA8C8D"/>
								<clipPath id="XMLID_00000119119341163114645610000016311425448575747750_">
									<use xlink:href="#XMLID_24_"  overflow="visible"/>
								</clipPath>
								<path clip-path="url(#XMLID_00000119119341163114645610000016311425448575747750_)" fill="#C17276" d="M572.795,375.785
									c7.506-3.064,15.016-6.871,20.173-13.126c5.157-6.256,7.42-15.498,3.585-22.641c-2.802-5.218-8.233-8.443-13.623-10.898
									c-21.419-9.757-46.496-11.208-68.897-3.986c-12.712,4.098-25.565,12.141-29.214,24.989
									c-2.381,8.383-0.13,16.662,3.084,24.465c1.788,4.342,3.872,9.005,8.292,11.213c5.963,2.979,13.99,2.138,20.398,1.928
									c9.049-0.296,18.072-1.346,26.948-3.131C553.539,382.586,563.351,379.64,572.795,375.785z"/>
								<path clip-path="url(#XMLID_00000119119341163114645610000016311425448575747750_)" fill="#EAEDF7" d="M509.836,431.608
									c0,0,18.247,8.071,29.125-6.316C538.961,425.291,526.68,454.066,509.836,431.608z"/>
							</g>
							<path fill="#DA8C8D" d="M605.268,372.983c0,0-5.226,52.831,13.552,103.163c0,0-30.77,26.464-57.26,27.145
								c-26.49,0.681-2.252-96.381-2.252-96.381L605.268,372.983z"/>
						</g>
						<path fill="#C17276" d="M550.627,454.259c0,0,3.827,1.185,23.388-15.804c-1.79,0.7,0.647,23.922-24.829,35.816
							C549.186,474.272,549.802,460.341,550.627,454.259z"/>
					</g>
				</g>
			</g>
			<rect x="154.524" y="767.44" fill="#E7F2F7" width="654.344" height="29.141"/>
			<g>
				<defs>
					<path id="XMLID_8_" d="M587.933,641.649c0,0,72.288,13.494,89.637,6.747c0,0-6.747,94.456-27.951,100.239
						c-21.204,5.783-249.633,8.674-249.633,8.674v-25.06c0,0,137.828-26.987,184.093-32.77L587.933,641.649z"/>
				</defs>
				<use xlink:href="#XMLID_8_"  overflow="visible" fill="#DA8C8D"/>
				<clipPath id="XMLID_00000031902336845528415330000009181948359822956218_">
					<use xlink:href="#XMLID_8_"  overflow="visible"/>
				</clipPath>
				<path clip-path="url(#XMLID_00000031902336845528415330000009181948359822956218_)" fill="#C17276" d="M587.26,651.75
					c0,0,66.464,14.075,90.31-3.354c23.846-17.43,0,0,0,0l-94.964-15.164L587.26,651.75"/>
			</g>
			<path fill="#343766" d="M523.325,326.972c34.268,23.357,50.999,66.807,50.271,108.271c-0.121,6.92-0.656,13.963,1.082,20.663
				c1.738,6.699,6.314,13.165,13.008,14.922c6.694,1.757,14.961-3.172,14.811-10.091c-0.249,2.804,2.897,5.691,5.197,7.315
				c2.3,1.624,5.12,2.325,7.902,2.759c3.579,0.559,7.287,0.723,10.786-0.215c8.372-2.243,14.247-11.406,12.794-19.95
				c5.057,3.699,11.797,4.097,18.027,3.43c5.04-0.539,10.157-1.581,14.459-4.262c4.301-2.681,7.68-7.267,7.786-12.334
				c0.126-6.017-4.236-11.251-9.162-14.708c6.316-1.122,12.482-3.51,17.218-7.837c4.736-4.327,7.567-11.134,5.869-17.32
				c-1.729-6.299-7.727-10.694-14.039-12.373c-6.312-1.679-12.976-1.119-19.483-0.548c-13.235-22.779-26.308-46.521-45.858-64.181
				c-19.55-17.66-45.726-29.682-71.889-26.592c-8.505,1.005-17.288,3.878-22.812,10.422
				C513.766,310.888,516.248,322.148,523.325,326.972z"/>
			<polygon fill="#1F1949" points="359.625,752.865 301.979,617.966 125.611,617.966 197.111,767.44 262.932,767.44 365.853,767.44 
				513.056,767.44 513.056,752.865 			"/>
			<path fill="#6E9786" d="M526.222,673.273c0,0-28.771-36.347-9.948-108.378c0,0-24.03,59.631-9.107,98.615L526.222,673.273z"/>
			<path fill="#6E9786" d="M582.119,640.412c0,0-3.018-73.195,12.02-110.212c0,0-21.551,44.584-20.48,108.738L582.119,640.412z"/>
			<path fill="#DA8C8D" d="M399.985,732.25c0,0-21.486-11.352-25.584-11.352c-4.098,0-24.273,9.743-24.273,9.743l1.573,3.682
				l14.437-3.873l-11.693,10.296l5.179,12.12h50.534L399.985,732.25z"/>
		</g>
		<g>
			<path fill="#FFFFFF" d="M297.825,328.941c0-33.554,36.855-60.755,82.318-60.755c45.463,0,82.318,27.201,82.318,60.755
				c0,20.792-14.159,39.137-35.741,50.09l7.137,26.424c0,0-44.735-2.924-85.891-20.578c-12.976-4.071-24.229-10.539-32.779-18.638
				c-0.036-0.027-0.073-0.054-0.109-0.081l0.023,0.001C304.284,355.875,297.825,342.968,297.825,328.941z"/>
			<g>
				<circle fill="#D7E9F1" cx="416.915" cy="326.673" r="6.524"/>
				<path fill="#D7E9F1" d="M372.885,326.673c0,3.603,2.921,6.524,6.524,6.524c3.603,0,6.524-2.921,6.524-6.524
					c0-3.603-2.921-6.524-6.524-6.524C375.806,320.148,372.885,323.069,372.885,326.673z"/>
				<circle fill="#D7E9F1" cx="343.371" cy="326.673" r="6.524"/>
			</g>
		</g>
	</g>
</g>
</svg>
