<?xml version="1.0" encoding="utf-8"?>
<!-- Generator: Adobe Illustrator 26.0.1, SVG Export Plug-In . SVG Version: 6.00 Build 0)  -->
<svg version="1.1" id="Layer_1" xmlns="http://www.w3.org/2000/svg" xmlns:xlink="http://www.w3.org/1999/xlink" x="0px" y="0px"
	 viewBox="0 0 992.016 745.622" enable-background="new 0 0 992.016 745.622" xml:space="preserve">
<g>
	<g>
		<defs>
			<path id="XMLID_4_" d="M5.05,745.131h970.27c38.03-146.733,4.989-152.998-38.12-205.887
				c-19.289-23.665-38.105-48.359-50.256-76.367c-10.04-23.143-12.18-48.818-14.3-73.956
				c-6.064-71.893-16.124-150.389-68.518-199.989c-35.267-33.386-83.882-47.669-127.075-69.866
				c-49.678-25.529-93.055-62.161-143.073-87.018C478.964,4.71,415.282-7.583,355.124,4.863
				c-60.158,12.445-115.853,51.413-141.828,107.082c-25.339,54.304-21.616,119.336-50.36,171.917
				c-30.477,55.752-94.672,92.219-109.204,154.073c-7.299,31.068-0.511,63.763-4.475,95.43
				C44.707,569.7,26.379,602.59,13.137,636.731C-0.105,670.872-4.315,696.225,5.05,745.131z"/>
		</defs>
		<use xlink:href="#XMLID_4_"  overflow="visible" fill="#D7E9F1"/>
		<clipPath id="XMLID_00000132080969481350961400000003178707310861349034_">
			<use xlink:href="#XMLID_4_"  overflow="visible"/>
		</clipPath>
		<g clip-path="url(#XMLID_00000132080969481350961400000003178707310861349034_)">
			<path fill="#39548B" d="M779.622,618.017c0-18.223,0-36.445,0-54.668c0-17.226,0-34.452,0-51.678c0-10.63,0-21.26,0-31.891
				c0-2.314-2.035-4.531-4.424-4.424c-2.397,0.107-4.424,1.944-4.424,4.424c0,18.223,0,36.445,0,54.668c0,17.226,0,34.452,0,51.678
				c0,10.63,0,21.26,0,31.891c0,2.314,2.035,4.531,4.424,4.424C777.595,622.333,779.622,620.497,779.622,618.017L779.622,618.017z"
				/>
		</g>
		<g clip-path="url(#XMLID_00000132080969481350961400000003178707310861349034_)">
			<defs>
				<path id="XMLID_2_" d="M740.896,504.896c-13.486-22.166-9.201-50.368-4.471-75.88c4.704-25.37,9.409-50.741,14.113-76.111
					c1.352-7.289,2.765-14.747,6.525-21.135c3.761-6.388,10.406-11.599,17.819-11.544c10.982,0.081,18.551,10.839,23.253,20.765
					c20.276,42.802,23.309,73.421,23.745,120.781c0.172,18.639,0.106,47.775-17.188,58.742c-14.113,8.95-28.378,10.987-42.008,4.167
					C753.802,520.237,746.071,513.402,740.896,504.896z"/>
			</defs>
			<use xlink:href="#XMLID_2_"  overflow="visible" fill="#93C9B3"/>
			<clipPath id="XMLID_00000173865230202938841770000004642630536596297619_">
				<use xlink:href="#XMLID_2_"  overflow="visible"/>
			</clipPath>
			<path clip-path="url(#XMLID_00000173865230202938841770000004642630536596297619_)" fill="#6E9786" d="M792.032,475.51
				c-3.535,4.161-5.527,10.116-10.574,12.199c-2.197,0.907-4.648,0.902-7.025,0.864c-6.391-0.1-12.779-0.334-19.16-0.702
				c-6.956-0.4-14.428-0.839-20.362,2.811c-10.208,6.279-10.258,22.382-2.585,31.588c7.673,9.206,20.273,12.691,32.219,13.656
				c16.305,1.317,33.949-1.66,45.883-12.848c9.714-9.106,14.086-22.297,15.281-35.27c0.449-4.87,1.498-11.826-0.916-16.373
				c-2.527-4.759-9.368-4.067-13.897-3.814C803.912,468.011,796.721,469.991,792.032,475.51z"/>
		</g>
		<g clip-path="url(#XMLID_00000132080969481350961400000003178707310861349034_)">
			<defs>
				<path id="XMLID_5_" d="M-29.929,718.929c96.712-88.964,214.48-160.165,344.503-179.186c39.819-5.825,80.212-6.702,120.445-5.84
					c212.272,4.545,421.02,57.154,621.249,127.784v130.962H-43.874C-38.42,766.545-31.447,745.553-29.929,718.929z"/>
			</defs>
			<use xlink:href="#XMLID_5_"  overflow="visible" fill="#C4DCE8"/>
			<clipPath id="XMLID_00000161590741564442632360000006988316771577779118_">
				<use xlink:href="#XMLID_5_"  overflow="visible"/>
			</clipPath>
			<path clip-path="url(#XMLID_00000161590741564442632360000006988316771577779118_)" fill="#A4CADE" d="M508.619,534.44
				c6.398,24.97-12.65,50.56-35.984,61.513c-23.333,10.954-49.996,11.285-75.676,13.521c-19.441,1.693-38.778,4.588-57.862,8.665
				c-16.26,3.473-35.298,10.835-38.122,27.22c-1.805,10.469,4.054,20.731,4.569,31.342c1.072,22.132-20.188,38.268-39.807,48.568
				c-24.05,12.625-49.236,22.93-74.377,33.215c-6.397,2.617-12.795,5.234-19.192,7.851c-1.542,0.631-3.573,1.159-4.657-0.106
				c-1.084-1.264,1.8-3.269,1.966-1.612c-60.176,0.005-121.428,1.548-181.604,1.554c-1.401-46.103-1.977-92.231-1.729-138.355
				c0.018-3.395,0.068-6.916,1.522-9.984c1.626-3.431,4.785-5.84,7.856-8.071c48.856-35.497,104.966-60.965,163.85-74.371
				c32.973-7.507,66.669-11.254,100.28-14.987c48.711-5.41,97.747-10.828,146.632-7.321
				C439.016,515.43,477.423,524.252,508.619,534.44z"/>
		</g>
		<path clip-path="url(#XMLID_00000132080969481350961400000003178707310861349034_)" fill="#E7F2F7" d="M462.641,213.733h188.571
			c-6.173-9.121-13.461-19.266-23.192-24.423c-9.731-5.157-23.325-4.735-30.206,3.864c5.916,5.028,16.086,1.824,19.594-5.103
			c3.507-6.927,1.271-15.733-3.753-21.653c-5.024-5.92-12.327-9.417-19.676-11.924c-12.126-4.137-25.012-6.035-37.816-5.569
			c-7.593,0.276-15.949,1.809-20.637,7.789c-4.492,5.73-4.234,13.729-3.763,20.994c0.141,2.18,0.401,4.608,2.063,6.026
			c1.663,1.417,5.051,0.444,4.781-1.724c-7.284-8.078-19.906-11.52-29.638-6.662c-9.732,4.858-14.404,18.574-8.352,27.612
			C488.156,192.406,468.947,198.67,462.641,213.733z"/>
		<path clip-path="url(#XMLID_00000132080969481350961400000003178707310861349034_)" fill="#E7F2F7" d="M89.385,449.941h188.233
			c3.481-11.094-8.122-24.694-19.137-28.417s-23.06-1.489-34.423,0.977c-1.803,0.98-0.164,4.146,1.884,4.014
			c2.048-0.132,3.465-2.075,4.353-3.925c5.764-12.008,0.812-27.807-10.316-35.127c-11.128-7.32-26.931-5.977-37.275,2.415
			c-10.344,8.392-14.953,22.915-12.291,35.966c4.45-4.858-1.981-12.267-8.195-14.455c-6.479-2.281-13.92-2.903-20.043,0.211
			c-6.123,3.113-10.196,10.724-7.738,17.138C117.212,417.977,95.489,430.571,89.385,449.941z"/>
		<path clip-path="url(#XMLID_00000132080969481350961400000003178707310861349034_)" fill="#E7F2F7" d="M915.409,450.724H679.24
			c5.141-14.35,22.722-23.282,37.628-20.094c5.596-8.016,12.49-16.082,21.989-18.393c9.499-2.311,21.48,4.378,20.876,14.135
			c4.648-9.944,9.461-20.078,17.127-27.935c7.666-7.857,18.843-13.156,29.603-10.985c10.76,2.171,19.645,13.624,16.549,24.155
			c4.662-14.132,22.032-19.602,36.906-19.152c17.197,0.52,34.773,6.637,46.355,19.36
			C917.854,424.538,923.455,435.517,915.409,450.724z"/>
	</g>
	<circle fill="#ECBB49" cx="728.408" cy="151.019" r="61.957"/>
	<g>
		<g>
			<g>
				<polygon fill="#C17276" points="404.657,401.48 445.962,427.138 436.262,446.749 404.657,446.749 				"/>
				<g>
					<path fill="#343766" d="M544.247,497.435c0,0,31.827,140.594,31.827,201.781l-15.913,3.071c0,0-44.119-116.003-63.226-156.732
						L544.247,497.435z"/>
					<path fill="#39548B" d="M303.951,490.827c0,0,212.044-31.461,236.834-0.725s-46.66,233.225-46.66,233.225h-17.082
						c0,0,3.491-124.733,2.501-169.525c0,0-116.888,53.426-155.166,27.74S303.951,490.827,303.951,490.827z"/>
					<path fill="#1F1949" d="M557.096,699.299l19.938-3.277l3.815,7.752c0,0,32.011-0.877,45.539,9.662l-60.183,9.891
						L557.096,699.299z"/>
					<path fill="#1F1949" d="M475.985,720.435h20.372l-1.745,8.141c0,0,28.499,4.453,40.138,17.046h-59.218L475.985,720.435z"/>
				</g>
				<polygon fill="#1F1949" points="430.675,479.933 521.322,464.981 575.513,367.792 468.055,379.006 441.889,436.011 
					375.552,443.858 				"/>
				<g>
					<path fill="#DA8C8D" d="M376.38,242.63c0,0,20.761,48.17-5.285,50.241c-26.046,2.071-45.735-25.626-39.423-45.713
						C337.985,227.071,364.808,210.461,376.38,242.63z"/>
					<path fill="#DA8C8D" d="M330.543,257.812c0,0,5.092,26.85,2.35,51.518c-0.452,4.069,2.267,7.089,5.426,9.679
						c4.533,3.716,15.874,7.737,23.926,6.455c12.576-2.002-7.103-55.169-7.103-55.169L330.543,257.812z"/>
				</g>
				<g>
					<defs>
						<path id="XMLID_6_" d="M297.113,490.827c0,0-1.805-0.697-0.955-32.503s-37.952-165.818,42.368-153.02
							c70.519,11.237,66.106,110.493,66.063,110.103l-2.023,60.318L297.113,490.827z"/>
					</defs>
					<use xlink:href="#XMLID_6_"  overflow="visible" fill="#93C9B3"/>
					<clipPath id="XMLID_00000183212847131811418760000000080608818716648609_">
						<use xlink:href="#XMLID_6_"  overflow="visible"/>
					</clipPath>
					<path clip-path="url(#XMLID_00000183212847131811418760000000080608818716648609_)" fill="#6E9786" d="M321.592,336.646
						c-11.457,6.508-25.133,9.024-38.156,7.018c-3.807-0.586-7.804-1.691-10.342-4.588c-1.514-1.728-2.36-3.939-2.964-6.156
						c-2.214-8.133-1.318-17.407,3.794-24.109c2.793-3.662,6.661-6.375,10.733-8.526c9.628-5.087,20.814-7.292,31.612-5.883
						c9.497,1.239,19.111,5.366,26.181,11.917c1.185,1.098,2.288,2.421,2.436,4.094c0.178,2.011-0.975,3.843-1.976,5.486
						c-2.447,4.016-5.372,7.74-8.688,11.073C330.473,330.744,326.218,334.018,321.592,336.646z"/>
				</g>
				<g>
					<defs>
						<path id="XMLID_7_" d="M421.457,473.86c0,0,17.948,49.153-55.013,65.012c-29.49,6.41-92.558,2.616-70.286-80.547
							C318.43,375.161,421.457,473.86,421.457,473.86z"/>
					</defs>
					<use xlink:href="#XMLID_7_"  overflow="visible" fill="#93C9B3"/>
					<clipPath id="XMLID_00000063605509726313558660000006597434473094837126_">
						<use xlink:href="#XMLID_7_"  overflow="visible"/>
					</clipPath>
					<path clip-path="url(#XMLID_00000063605509726313558660000006597434473094837126_)" fill="#6E9786" d="M425.129,491.214
						c0,0-34.866-0.343-46.603-20.808c-11.737-20.466,16.433-23.656,16.433-23.656l38.689,26.963
						C433.649,473.713,433.08,489.463,425.129,491.214"/>
				</g>
				<path fill="#C17276" d="M377.803,290.811c0,0-14.116-4.716-22.523-11.132c0,0,0.391,9.346,7.055,13.302
					C362.334,292.981,374.177,294.433,377.803,290.811z"/>
				<path fill="#343766" d="M367.645,227.342c-4.348,2.939-6.37,8.309-7.256,13.482c-2.601,15.187,2.356,31.106-1.413,46.046
					c-1.681,6.662-5.022,12.773-8.48,18.71c-4.109,7.055-8.716,14.268-15.791,18.342c-6.415,3.694-14.118,4.356-21.52,4.243
					c-3.892-0.06-7.912-0.344-11.374-2.124c-3.462-1.78-6.241-5.411-5.9-9.288c-3.034,5.144-10.641,6.239-15.818,3.261
					c-5.177-2.978-8.03-8.973-8.724-14.905c-0.264-2.253-0.245-4.623,0.708-6.682c0.953-2.059,3.025-3.726,5.292-3.629
					c0.056,0.728-0.71,1.229-1.395,1.481c-4.285,1.581-9.48-0.1-12.221-3.753c-2.741-3.653-2.96-8.943-0.744-12.937
					c2.216-3.993,6.665-6.576,11.228-6.776c2.268-0.1,5.207,1.185,4.827,3.423c-3.244-1.856-3.887-6.682-1.918-9.859
					c1.969-3.177,5.831-4.781,9.563-4.978c3.733-0.196,7.413,0.805,11.016,1.797c5.762-2.57,9.678-8.255,12.767-13.756
					c4.967-8.844,10.728-17.52,18.833-23.619c8.105-6.099,18.972-9.282,28.619-6.146
					C362.175,221.051,365.604,223.389,367.645,227.342z"/>
				<path fill="#343766" d="M373.03,229.279c1.961,2.528,3.375,5.677,3.031,8.857c-0.269,2.482-1.646,4.822-3.685,6.262
					c-2.039,1.44-4.705,1.956-7.134,1.379c-0.375-0.089-0.76-0.212-1.037-0.48c-0.33-0.321-0.453-0.797-0.514-1.254
					c-0.494-3.694,2.051-7.745,0.2-10.979c-0.579-1.012-1.516-1.758-2.344-2.579c-1.24-1.23-2.311-2.786-2.368-4.531
					c-0.069-2.123,2.023-4.437,4.214-3.689c2.42,0.826,4.698,2.218,6.637,3.873C371.133,227.08,372.141,228.133,373.03,229.279z"/>
				<path fill="#DA8C8D" d="M377.803,342.301c0,0,30.94,96.912,37.844,103.595c6.905,6.684,105.675,19.085,105.675,19.085l0,0
					c-1.911,8.973-9.352,15.708-18.471,16.714c-33.829,3.732-112.907,9.936-125.048-11.909
					c-15.517-27.918-39.331-86.486-41.208-106.013C334.332,340.244,370.985,321.344,377.803,342.301z"/>
			</g>
			<path fill="#39548B" d="M514.75,464.133l12.385-22.672c4.112-7.567,8.307-15.087,12.46-22.631l24.976-45.23l0.392,0.59
				l-23.212,2.625l-23.223,2.52l-46.449,5.025l0.235-0.171l-12.132,26.839l-12.242,26.789l11.865-26.958l11.975-26.909l0.068-0.152
				l0.167-0.019l46.424-5.25l23.213-2.618l23.224-2.513l0.769-0.083l-0.376,0.673l-25.193,45.11
				c-4.208,7.513-8.375,15.049-12.625,22.539L514.75,464.133z"/>
		</g>
		<path fill="#6E9786" d="M296.158,458.324c0,0,17.32,18.818,45.085,18.302c0,0-40.669,12.477-47.856-6.099L296.158,458.324z"/>
	</g>
</g>
</svg>
