<?xml version="1.0" encoding="utf-8"?>
<!-- Generator: Adobe Illustrator 26.0.1, SVG Export Plug-In . SVG Version: 6.00 Build 0)  -->
<svg version="1.1" id="Layer_1" xmlns="http://www.w3.org/2000/svg" xmlns:xlink="http://www.w3.org/1999/xlink" x="0px" y="0px"
	 viewBox="0 0 961.258 727.482" enable-background="new 0 0 961.258 727.482" xml:space="preserve">
<g>
	<g>
		<defs>
			<path id="XMLID_3_" d="M0.353,724.119h960.669c1.658-25.731-5.482-52.076-19.274-73.861
				c-17.678-27.924-46.652-48.948-57.409-80.198c-5.612-16.305-5.668-33.922-5.664-51.165c0.008-36.929,0.016-73.858,0.025-110.788
				c0.011-49.372-1.522-103.226-33.216-141.083c-31.538-37.671-84.196-48.905-124.828-76.524
				c-46.202-31.405-74.828-82.525-115.653-120.66C547.539,16.161,465.009-9.471,387.246,2.208
				c-24.02,3.608-48.4,11.051-66.366,27.397c-30.349,27.611-35.467,73.115-56.92,108.09
				c-26.914,43.878-78.264,69.08-102.725,114.372c-25.406,47.04-16.416,105.163-32.158,156.256
				c-15.765,51.167-54.846,91.256-82.15,137.311C14.742,599.918-2.749,661.085,0.353,724.119z"/>
		</defs>
		<use xlink:href="#XMLID_3_"  overflow="visible" fill="#D7E9F1"/>
		<clipPath id="XMLID_00000128468530704925921210000016021603056771714700_">
			<use xlink:href="#XMLID_3_"  overflow="visible"/>
		</clipPath>
		<path clip-path="url(#XMLID_00000128468530704925921210000016021603056771714700_)" fill="#A4CADE" d="M730.875,627.407
			c39.468-20.749,80.131-41.875,124.458-46.702c27.068-2.948,54.383,0.338,81.412,3.621c28.655,3.48,58.867,7.579,81.641,25.314
			c28.627,22.292,38.758,60.97,41.519,97.148c1.572,20.591,1.167,42.125-7.825,60.715c-10.624,21.967-32.243,37.13-55.408,44.801
			c-23.165,7.67-47.966,8.677-72.368,8.559c-38.221-0.185-76.427-3.011-114.267-8.393c-38.161-5.428-75.953-13.455-113.029-23.995
			c-36.31-10.322-74.17-21.949-108.043-38.84c-10.042-5.007-24.661-16.309-22.666-29.291c1.124-7.314,7.701-10.465,13.606-13.569
			c9.206-4.838,18.411-9.679,27.616-14.518c36.515-19.197,73.029-38.393,109.544-57.59
			C721.669,632.246,726.272,629.827,730.875,627.407z"/>
		<path clip-path="url(#XMLID_00000128468530704925921210000016021603056771714700_)" fill="#C4DCE8" d="M-16.203,728.679
			c34.661-37.075,69.78-74.537,112.352-102.171c78.292-50.819,176.384-64.18,269.176-54.089
			c92.792,10.091,181.715,41.916,268.711,75.739s173.666,70.066,264.921,89.681C730.83,750.58,559.736,766.2,391.172,762.289
			C254.75,759.123,119.53,742.734-16.203,728.679z"/>
		<path clip-path="url(#XMLID_00000128468530704925921210000016021603056771714700_)" fill="#E7F2F7" d="M618.331,355.039h219.848
			c-8.637-18.82-32.33-30.596-52.772-27.293c-2.385,0.385-5.217,3.36-3.081,4.487c5.401-3.932,5.268-12.55,1.431-18.02
			c-3.837-5.47-10.215-8.49-16.39-11.042c-11.371-4.698-24.132-8.638-35.78-4.678c-11.648,3.96-19.811,19.251-12.448,29.107
			c-4.393-12.342-19.127-19.934-31.727-16.348c-12.6,3.586-21.128,17.799-18.362,30.604c-9.435-7.164-21.66-10.55-33.436-9.259
			c-5.542,0.608-11.203,2.347-15.163,6.273C616.492,342.798,615.6,350.178,618.331,355.039z"/>
		<path clip-path="url(#XMLID_00000128468530704925921210000016021603056771714700_)" fill="#E7F2F7" d="M410.533,216.075h167.005
			c-6.738-9.094-18.13-18.155-29.434-18.717c-2.086-0.104-4.985,0.921-4.469,2.944c4.523-7.688,2.018-18.231-4.417-24.407
			c-6.435-6.176-15.917-8.4-24.805-7.651c-6.572,0.554-13.288,2.772-17.777,7.604c-4.489,4.832-6.105,12.653-2.538,18.2
			c-1.23-9.974-11.227-18.016-21.232-17.081c-10.006,0.935-18.34,10.69-17.701,20.719c-6.607-7.996-18.67-10.919-28.204-6.833
			C417.428,194.939,409.299,205.777,410.533,216.075z"/>
		<path clip-path="url(#XMLID_00000128468530704925921210000016021603056771714700_)" fill="#E7F2F7" d="M64.231,478.8h211.447
			c-11.088-11.964-32.086-17.043-47.997-13.452c-0.567-14.631-16.631-24.028-31.231-25.133c-5.996-0.454-12.415,0.117-17.282,3.648
			c-4.867,3.531-7.401,10.761-4.157,15.824c-1.544-10.093-9.275-18.534-18.547-22.81c-9.272-4.276-19.877-4.849-30.022-3.7
			C99.273,436.257,79.455,456.087,64.231,478.8z"/>
	</g>
	<g>
		<g>
			<g>
				<path fill="#FFFFFF" d="M371.98,245.63H84.949c-2.585,0-4.68-2.095-4.68-4.679V134.195c0-2.585,2.095-4.68,4.68-4.68H371.98
					c2.584,0,4.68,2.095,4.68,4.68V240.95C376.66,243.535,374.565,245.63,371.98,245.63z"/>
				<g>
					<rect x="100.138" y="152.953" fill="#E7F2F7" width="256.653" height="10.014"/>
					<rect x="100.138" y="172.047" fill="#E7F2F7" width="256.653" height="10.014"/>
					<rect x="100.138" y="191.141" fill="#E7F2F7" width="256.653" height="10.014"/>
					<rect x="100.138" y="210.236" fill="#E7F2F7" width="129.703" height="10.014"/>
				</g>
			</g>
			<polygon fill="#FFFFFF" points="311.833,245.63 322.594,276.053 244.577,245.63 			"/>
		</g>
		<g>
			<path fill="#343766" d="M460.269,358.307c0.228,4.594-2.061,9.17-5.69,11.996c-3.629,2.827-8.469,3.934-13.023,3.288
				c-2.342-0.332-4.726-1.174-6.293-2.946c-1.567-1.772-2.053-4.635-0.627-6.522c1.657,4.942-3.404,9.687-8.401,11.171
				c-5.842,1.735-13.096,0.681-16.508-4.368c-2.908-4.303-1.88-10.788,2.215-13.982c0.34,1.634-0.908,3.292-2.473,3.874
				c-1.565,0.582-3.323,0.302-4.902-0.239c-6.943-2.382-11.571-10.163-10.35-17.4c1.221-7.237,8.146-13.07,15.485-13.043
				c4.133-17.233,11.837-34.762,26.786-44.28c3.548-2.259,7.512-4.003,11.699-4.406c4.187-0.402,8.62,0.652,11.784,3.423
				c7.122-9.828,21.079-11.958,32.445-7.701c11.366,4.257,20.116,13.464,27.643,22.984c9.767,12.354,18.215,25.75,25.153,39.888
				c5.684-0.611,11.471,1.755,15.102,6.17c3.632,4.415,4.862,10.693,3.165,16.152c-0.584,1.88-1.51,3.684-2.897,5.082
				c-1.521,1.532-3.576,2.522-5.721,2.758c-1.454,0.159-3.025-0.056-4.156-0.984c-1.13-0.928-1.632-2.697-0.826-3.916
				c1.753,2.946-0.858,6.592-3.635,8.602c-3.035,2.197-6.495,3.805-10.13,4.712c-2.663,0.664-5.508,0.944-8.128,0.125
				c-2.619-0.819-4.96-2.915-5.468-5.612c-0.508-2.697,1.291-5.793,4.008-6.178c-0.552,4.996-4.683,9.381-9.637,10.23
				c-4.954,0.85-10.309-1.908-12.495-6.435c-7.233-14.981-6.191-33.071-7.897-49.619c-8.952,0.431-18.342,0.534-27.219-0.698
				c-8.877-1.232-17.708-4.238-24.587-9.982C452.395,326.085,459.404,340.903,460.269,358.307z"/>
			<path fill="#6E9786" d="M407.742,397.304c0,0-26.362,29.694-36.269,63.586c-9.907,33.892-3.633,98.147-3.633,98.147
				s29.182-37.663,42.739-64.255C424.136,468.19,407.742,397.304,407.742,397.304z"/>
			<g>
				<defs>
					<path id="XMLID_1_" d="M415.477,605.944c0,0-40.968-178.384-7.735-208.64s141.163-11.012,161.955,6.635
						c38.508,32.683,43.145,176.411,43.145,176.411s-60.719,78.23-99.254,77.151C475.053,656.422,415.477,605.944,415.477,605.944z"
						/>
				</defs>
				<use xlink:href="#XMLID_1_"  overflow="visible" fill="#93C9B3"/>
				<clipPath id="XMLID_00000086689736599821149770000004248523973029309340_">
					<use xlink:href="#XMLID_1_"  overflow="visible"/>
				</clipPath>
				<path clip-path="url(#XMLID_00000086689736599821149770000004248523973029309340_)" fill="#DA8C8D" d="M427.522,386.756
					c0,0,28.394,44.498,60.04,45.186c31.645,0.688,74.516-32.771,74.516-32.771S495.44,353.954,427.522,386.756"/>
			</g>
			<g>
				<g>
					<g>
						<g>
							<defs>
								<path id="XMLID_13_" d="M445.831,333.067c0,0,13.456,54.246,35.65,35.436s26.842-53.27,7.391-68.035
									C470.197,286.294,435.353,292.147,445.831,333.067z"/>
							</defs>
							<use xlink:href="#XMLID_13_"  overflow="visible" fill="#DA8C8D"/>
							<clipPath id="XMLID_00000168824659883021699790000010610071488082737338_">
								<use xlink:href="#XMLID_13_"  overflow="visible"/>
							</clipPath>
							<path clip-path="url(#XMLID_00000168824659883021699790000010610071488082737338_)" fill="#C17276" d="M465.176,334.923
								c1.904-2.822,3.149-6.195,5.783-8.352c3.506-2.871,8.454-2.832,12.96-3.309c4.17-0.441,8.281-1.444,12.185-2.974
								c3.21-1.257,6.438-3.011,8.216-5.964c1.908-3.167,1.785-7.285,0.294-10.668c-1.492-3.383-4.202-6.103-7.207-8.257
								c-6.169-4.423-13.682-6.705-21.23-7.511c-4.71-0.503-9.521-0.453-14.126,0.656c-11.471,2.761-20.83,12.302-24.192,23.611
								c-2.517,8.467-2.031,18.595,1.794,26.63c1.193,2.505,3.067,4.656,5.871,5.275c2.956,0.652,6.114-0.261,8.896-1.223
								C458.74,341.344,462.594,338.751,465.176,334.923z"/>
						</g>
						<path fill="#DA8C8D" d="M500.193,318.756c0,0,13.671,36.211,18.486,64.593c2.482,14.674-25.869,20.723-35.674,20.586
							c-14.178-0.197-0.988-61.93-0.988-61.93L500.193,318.756z"/>
						<path fill="#C17276" d="M477.51,370.082c0,0,5.273-0.483,13.968-10.063c0,0-1.701,15.537-14.939,20.188
							C476.539,380.206,477.428,370.616,477.51,370.082z"/>
					</g>
				</g>
			</g>
			<polygon fill="#1F1949" points="568.695,657.512 426.661,657.512 407.742,507.884 585.084,507.884 			"/>
			<g>
				<g>
					<path fill="#343766" d="M581.028,713.351l-3.469,4.662c0,0-290.742-0.664-303.525-140.204
						C262.615,453.155,581.028,713.351,581.028,713.351z"/>
				</g>
				<g>
					<path fill="#39548B" d="M415.948,715.125l-3.365,8.646c0,0,305.673-27.571,318.666-145.962
						C744.905,453.38,415.948,715.125,415.948,715.125z"/>
				</g>
			</g>
			<path fill="#93C9B3" d="M376.045,541.794c-1.78,23.834-31.994,33.069-46.712,14.238c-2.285-2.924-4.032-5.964-5.07-9.112
				c-17.368-52.684,41.617-165.469,41.617-165.469l22.871-1.562c-4.138,81.891-10.109,127.132-10.109,127.132L376.045,541.794z"/>
			<path fill="#343766" d="M460.195,307.175c-1.173,6.782-1.357,13.701-2.426,20.499c-1.069,6.799-3.129,13.658-7.513,18.964
				c-1.733,2.098-3.871,3.954-6.441,4.848c-2.57,0.894-5.621,0.694-7.768-0.978c-2.636-2.053-3.35-5.675-3.861-8.977
				c-1.089-7.024-2.099-14.115-1.739-21.213c0.36-7.099,2.176-14.279,6.292-20.074c2.012-2.832,4.584-5.249,7.491-7.146
				c2.939-1.918,6.222-3.31,9.643-4.093c3.229-0.739,7.105-1.204,10.371-0.416c3.174,0.766,1.562,4.332,0.566,6.272
				c-0.833,1.623-1.835,3.148-2.547,4.833c-0.809,1.914-1.364,3.928-1.782,5.961C460.378,306.161,460.283,306.667,460.195,307.175z"
				/>
			<g>
				<path fill="#DA8C8D" d="M367.312,381.354L367.312,381.354c1.306-4.031,0.767-8.432-1.472-12.028l-2.392-3.842l31.862-0.987
					l-4.374,5.622c-1.435,1.845-2.414,4.003-2.855,6.298l-0.668,3.472L367.312,381.354z"/>
				<path fill="#FFFFFF" d="M394.308,370.112h-30.231c-1.989,0-3.602-1.613-3.602-3.602v-44.152c0-1.989,1.612-3.602,3.602-3.602
					h30.231c1.989,0,3.602,1.612,3.602,3.602v44.152C397.91,368.5,396.298,370.112,394.308,370.112z"/>
				<path fill="#DA8C8D" d="M398.243,339.201c0,0-9.845-4.542-10.02-1.59c-0.175,2.953,10.02,12.946,10.02,12.264
					C398.243,349.194,400.746,347.377,398.243,339.201z"/>
				<path fill="#DA8C8D" d="M381.753,334.87c-3.139-2.741-21.277,1.744-21.277,1.744s-3.584,4.229-3.584,10.687
					c0,1.161,0.119,2.278,0.309,3.332c0.001,0.007,0.001,0.012,0.001,0.019c0.31,3.352,3.274,12.475,3.274,12.475
					s14.777-4.318,14.516-5.228c-0.654-2.282-14.516,1.025-14.516,1.025s11.429-2.744,15.627-5.327
					C380.3,351.013,384.892,337.611,381.753,334.87z"/>
			</g>
			<path fill="#1F1949" d="M435.651,722.771l-7.372-18.195l-13.622,7.136c0,0-44.274,1.978-42.447,12.482
				c1.064,6.12,44.641,1.817,44.641,1.817L435.651,722.771z"/>
			<path fill="#1F1949" d="M561.448,719.06l7.372-18.195l16.264,6.899c0,0,41.633,2.216,39.806,12.72
				c-1.064,6.12-44.641,1.817-44.641,1.817L561.448,719.06z"/>
			<path fill="#DA8C8D" d="M509.701,504.275c-3.634,1.303-5.527,5.326-4.385,9.014c2.705,8.737,8.804,24.812,16.624,22.972
				c10.678-2.512,11.252-29.457,11.252-29.457S520.237,500.496,509.701,504.275z"/>
			<path fill="#93C9B3" d="M569.698,403.939c0,0,73.804,79.451,73.804,125.761c0,46.31-42.13,37.901-42.13,37.901L569.698,403.939z"
				/>
			<path fill="#6E9786" d="M612.234,568.068c0,0-20.077-0.371-32.752-9.031c0,0,19.078,20.23,33.293,19.522L612.234,568.068z"/>
			<path fill="#6E9786" d="M576.153,507.884c0,0-9.629-31.157-11.923-53.028c0,0-0.106,26.226,2.628,53.028H576.153z"/>
		</g>
	</g>
</g>
<g>
	<g>
		<defs>
			<path id="XMLID_9_" d="M2136.244,727.482h904.65c14.192-62.617-7.05-144.268-47.86-193.835
				c-10.239-12.435-22.03-23.89-29.332-38.247c-10.979-21.587-10.509-46.973-9.812-71.182
				c2.945-102.289-0.619-219.173-78.305-285.78c-52.965-45.411-127.299-54.723-189.634-86.057
				c-45.168-22.705-83.62-56.819-127.502-81.92c-51.19-29.281-111.264-45.96-169.589-37.251
				c-58.326,8.709-113.898,45.567-136.375,100.088c-21.405,51.922-11.336,111.016-20.051,166.496
				c-10.198,64.931-45.65,122.64-70.363,183.544C2119.246,488.878,2112.737,616.036,2136.244,727.482z"/>
		</defs>
		<use xlink:href="#XMLID_9_"  overflow="visible" fill="#D7E9F1"/>
		<clipPath id="XMLID_00000112592119974065991570000014968071476864113850_">
			<use xlink:href="#XMLID_9_"  overflow="visible"/>
		</clipPath>
		<path clip-path="url(#XMLID_00000112592119974065991570000014968071476864113850_)" fill="#39548B" d="M2402.399,453.618
			c0,19.76,0,39.52,0,59.28c0,4.2,6.527,4.207,6.527,0c0-19.76,0-39.52,0-59.28C2408.926,449.418,2402.399,449.411,2402.399,453.618
			L2402.399,453.618z"/>
		<path clip-path="url(#XMLID_00000112592119974065991570000014968071476864113850_)" fill="#A4CADE" d="M2391.464,501.344
			c66.541-1.999,131.586,18.28,194.407,40.306c162.361,56.928,320.079,127.092,471.075,209.567
			c-282.176,35.156-567.263,46.921-851.376,35.135c-22.716-0.942-45.467-2.039-67.97-5.278
			c-10.428-1.501-21.587-3.887-28.645-11.708c-5.371-5.952-7.458-14.103-9.062-21.959c-6.601-32.325-8.04-65.692-4.311-98.471
			c1.058-9.3,1.671-20.238,7.33-28.125c6.057-8.442,16.869-13.566,25.467-18.871c26.207-16.169,52.704-31.916,80.042-46.11
			c26.88-13.956,54.605-26.434,83.38-35.96c28.563-9.456,58.175-15.938,88.231-17.968
			C2383.839,501.645,2387.65,501.459,2391.464,501.344z"/>
		<path clip-path="url(#XMLID_00000112592119974065991570000014968071476864113850_)" fill="#C4DCE8" d="M2578.1,663.584
			c-22.655,12.851-45.021,26.462-64.98,43.196c-8.941,7.496-18.171,18.74-13.83,29.569c2.029,5.061,6.647,8.573,11.26,11.481
			c25.467,16.057,56.13,21.275,86.005,24.997c75.612,9.419,151.929,11.406,228.1,13.383c90.282,2.343,181.807,4.562,269.59-16.666
			c7.593-1.836,15.375-3.957,21.535-8.76c7.717-6.018,11.894-15.472,14.814-24.812c15.939-50.986,2.525-106.677-18.592-155.745
			c-6.196-14.398-13.283-28.845-24.591-39.699c-12.43-11.932-28.344-17.744-44.637-22.241c-11.953-3.299-23.44-6.376-35.928-5.185
			c-35.431,3.381-71.267,12.803-105.726,21.414c-36.143,9.032-71.893,19.634-107.119,31.757
			c-35.226,12.123-69.928,25.77-103.975,40.894c-34.045,15.123-67.435,31.725-100.034,49.757
			C2586.015,659.123,2582.052,661.343,2578.1,663.584z"/>
		<path clip-path="url(#XMLID_00000112592119974065991570000014968071476864113850_)" fill="#E7F2F7" d="M2979.555,268.036h-440.151
			c11.562-30.395,47.09-42.26,78.189-32.756c-5.786-16.761,3.013-37.216,19.161-44.543c16.147-7.326,37.335-0.477,46.138,14.915
			c0.722-34.69,33.434-65.429,68.102-63.994c34.668,1.435,64.728,34.771,62.582,69.402c3.432-14.598,23.371-20.018,36.768-13.283
			c13.398,6.736,20.977,21.243,25.739,35.463c4.034-17.831,26.227-23.871,44.491-24.664c18.912-0.822,39.714,1.06,53.322,14.219
			S2998.485,268.036,2979.555,268.036z"/>
		<path clip-path="url(#XMLID_00000112592119974065991570000014968071476864113850_)" fill="#E7F2F7" d="M2337.668,142.115h230.699
			c-6.329-20.324-30.534-31.161-50.823-24.721c4.384-10.863-0.437-23.975-9.435-31.476c-8.998-7.5-21.272-10.075-32.978-9.627
			c-9.135,0.35-18.564,2.569-25.558,8.456s-10.881,16.055-7.498,24.547c-1.355-10.031-15.086-12.43-24.885-9.893
			c-6.305,1.632-12.59,4.398-16.767,9.394c-4.177,4.996-5.698,12.613-2.249,18.137c-12.318-6.566-26.128-11.847-39.957-9.952
			C2344.387,118.876,2337.748,128.157,2337.668,142.115z"/>
		<g clip-path="url(#XMLID_00000112592119974065991570000014968071476864113850_)">
			<defs>
				<path id="XMLID_10_" d="M2372.891,453.183c-2.375-5.409-0.206-12.821,5.315-14.922c0.049,1.372,0.098,2.745,0.148,4.118
					c-6.779-0.994-12.304-7.481-12.206-14.331c0.098-6.851,5.806-13.177,12.611-13.977c2.097-0.246,4.942,2.146,3.146,3.255
					c-5.557-5.171-9.986-12.64-8.421-20.067c1.565-7.427,11.6-12.601,17.244-7.526c-4.1-1.147-6.938-5.08-7.996-9.203
					c-1.058-4.123-0.649-8.463-0.234-12.7c0.291-2.962,0.649-6.1,2.482-8.444c2.111-2.701,5.749-3.743,9.175-3.875
					c7.529-0.289,15.106,3.27,19.69,9.251c4.583,5.98,6.052,14.222,3.815,21.417c2.253-3.191,7.187-0.128,9.495,3.024
					c3.015,4.118,5.814,8.7,6.146,13.793s-2.583,10.722-7.557,11.867c6.15-2.414,13.966,1.437,15.798,7.785
					c1.832,6.348-2.729,13.772-9.219,15.007c6.342,1.353,10.516,8.381,9.703,14.815c-0.813,6.433-5.809,11.852-11.799,14.335
					c-8.718,3.614-17.553,0.845-26.236-1.295c-6.883-1.696-14.525-1.286-21.141-3.686
					C2378.628,460.291,2374.734,457.379,2372.891,453.183z"/>
			</defs>
			<use xlink:href="#XMLID_10_"  overflow="visible" fill="#93C9B3"/>
			<clipPath id="XMLID_00000027600818175899162850000013798073794036467842_">
				<use xlink:href="#XMLID_10_"  overflow="visible"/>
			</clipPath>
			<path clip-path="url(#XMLID_00000027600818175899162850000013798073794036467842_)" fill="#6E9786" d="M2412.244,439.553
				c-2.342,0.332-4.785,0.011-7.039,0.726c-4.61,1.462-7.122,6.775-11.684,8.379c-2.093,0.736-4.379,0.597-6.592,0.45
				c-3.135-0.209-6.271-0.418-9.406-0.628c-3.243-0.216-7.403,0.143-8.419,3.231c-1.007,3.061,2.07,5.815,4.777,7.563
				c9.865,6.365,20.136,12.561,31.589,15.147c11.452,2.586,24.436,1.023,33.24-6.743c8.298-7.32,11.611-18.848,12.395-29.886
				c0.311-4.378,0.266-9.043-1.742-13.056c-1.64-3.277-5.524-6.908-9.499-6.152c-3.71,0.705-7.073,4.322-9.627,6.877
				c-2.663,2.663-5.02,5.615-7.713,8.248C2419.664,436.505,2416.304,438.978,2412.244,439.553z"/>
			<path clip-path="url(#XMLID_00000027600818175899162850000013798073794036467842_)" fill="#6E9786" d="M2391.454,412.91
				c5.091,1.267,10.937,1.422,14.594,5.183c0.465,0.478,0.895,1.037,0.994,1.696c0.18,1.197-0.832,2.309-1.982,2.684
				c-1.15,0.374-2.398,0.199-3.597,0.04c-5.63-0.75-11.318-1.074-16.997-0.969c-2.822,0.052-5.669,0.208-8.449-0.283
				c-3.628-0.641-6.954-2.521-8.513-5.981c-1.196-2.654-2.347-6.902-0.719-9.603c2.966-4.922,10.13-0.877,13.219,1.569
				C2383.367,409.907,2387.289,411.873,2391.454,412.91z"/>
		</g>
		<path clip-path="url(#XMLID_00000112592119974065991570000014968071476864113850_)" fill="#E7F2F7" d="M2065.733,458.399h236.612
			c-12.38-15.902-36.833-22.766-55.641-15.525c-2.628-16.18-10.61-32.697-25.269-40.033c-14.659-7.336-36.158-1.011-40.235,14.866
			c-4.822-12.899-18.153-22.117-31.924-22.075c-13.771,0.042-27.045,9.341-31.789,22.269
			C2091.274,415.193,2073.248,433.141,2065.733,458.399z"/>
	</g>
	<g>
		<g>
			<path fill="#C17276" d="M2582.424,570.057l-19.333,46.471l-132.97-55.146l12.006,28.095c0,0,76.413,80.329,131.988,78.033
				s74.9-63.337,74.9-63.337L2582.424,570.057z"/>
			<path fill="#93C9B3" d="M2671.979,405.172c0,0-84.922,93.199-99.846,159.612l81.806,41.912l52.852-110.942L2671.979,405.172z"/>
			<path fill="#343766" d="M2642.325,245.695c-19.212,10.467-30.591,31.757-34.415,53.298c-3.824,21.541-1.146,43.643,1.54,65.356
				c-7.127,4.202-14.793,8.996-19.05,16.091c-4.256,7.095-4.042,17.608,2.701,22.401c5.243,3.727,12.341,2.887,18.696,1.887
				c0.283,8.08,7.782,14.686,15.797,15.748c8.015,1.061,16.08-2.464,22.293-7.637c0.496,4.669,3.88,8.678,8.002,10.926
				c4.123,2.248,8.906,2.966,13.596,3.187c14.913,0.704,31.368-4.363,38.976-17.208c2.608-4.403,4.001-9.409,5.156-14.395
				c4.563-19.698,5.824-40.156,3.714-60.265c-1.437-13.691-4.544-27.51-11.805-39.206c-6.427-10.353-15.772-18.525-25.207-26.237
				C2669.578,259.224,2657.105,252.931,2642.325,245.695z"/>
			<g>
				<defs>
					<path id="XMLID_16_" d="M2905.333,715.741l-14.375-24.89c-18.97-32.845-30.839-69.323-34.74-107.051
						c-18.631-180.154-118.531-188.414-118.531-188.414s-73.362-7.093-105.247,79.298c-39.749,107.699,68.17,184.01,95.729,239.196
						L2905.333,715.741z"/>
				</defs>
				<use xlink:href="#XMLID_16_"  overflow="visible" fill="#93C9B3"/>
				<clipPath id="XMLID_00000054242975270401631270000003611336858668677533_">
					<use xlink:href="#XMLID_16_"  overflow="visible"/>
				</clipPath>
			</g>
			<g>
				<g>
					<g>
						<g>
							<g>
								<defs>
									<path id="XMLID_24_" d="M2628.694,290.696c0,0-25.353,103.435,28.77,97.898c54.122-5.537,84.587-67.884,64.477-105.468
										C2701.832,245.542,2640.928,222.468,2628.694,290.696z"/>
								</defs>
								<use xlink:href="#XMLID_24_"  overflow="visible" fill="#DA8C8D"/>
								<clipPath id="XMLID_00000100344353434575435510000002985052618962681773_">
									<use xlink:href="#XMLID_24_"  overflow="visible"/>
								</clipPath>
								<path clip-path="url(#XMLID_00000100344353434575435510000002985052618962681773_)" fill="#C17276" d="M2695.589,306.686
									c7.506-3.064,15.016-6.871,20.173-13.126c5.157-6.256,7.42-15.498,3.585-22.641c-2.802-5.218-8.233-8.443-13.623-10.898
									c-21.419-9.757-46.496-11.208-68.897-3.986c-12.712,4.098-25.565,12.141-29.214,24.989
									c-2.381,8.383-0.13,16.662,3.084,24.465c1.788,4.342,3.872,9.005,8.292,11.213c5.963,2.979,13.99,2.138,20.397,1.928
									c9.049-0.296,18.072-1.346,26.948-3.131C2676.332,313.486,2686.145,310.54,2695.589,306.686z"/>
								<path clip-path="url(#XMLID_00000100344353434575435510000002985052618962681773_)" fill="#EAEDF7" d="M2632.63,362.508
									c0,0,18.247,8.071,29.125-6.316C2661.755,356.192,2649.473,384.966,2632.63,362.508z"/>
							</g>
							<path fill="#DA8C8D" d="M2728.061,303.883c0,0-5.226,52.831,13.552,103.163c0,0-30.771,26.464-57.26,27.145
								c-26.49,0.681-2.252-96.381-2.252-96.381L2728.061,303.883z"/>
						</g>
						<path fill="#C17276" d="M2673.421,385.16c0,0,3.827,1.185,23.388-15.804c-1.791,0.7,0.647,23.922-24.83,35.816
							C2671.979,405.172,2672.596,391.242,2673.421,385.16z"/>
					</g>
				</g>
			</g>
			<rect x="2277.317" y="698.341" fill="#E7F2F7" width="654.344" height="29.141"/>
			<g>
				<defs>
					<path id="XMLID_8_" d="M2710.727,572.549c0,0,72.288,13.494,89.637,6.747c0,0-6.747,94.456-27.951,100.239
						c-21.204,5.783-249.633,8.674-249.633,8.674v-25.06c0,0,137.828-26.987,184.093-32.77L2710.727,572.549z"/>
				</defs>
				<use xlink:href="#XMLID_8_"  overflow="visible" fill="#DA8C8D"/>
				<clipPath id="XMLID_00000136389181558690634290000010950403141775253682_">
					<use xlink:href="#XMLID_8_"  overflow="visible"/>
				</clipPath>
				<path clip-path="url(#XMLID_00000136389181558690634290000010950403141775253682_)" fill="#C17276" d="M2710.053,582.651
					c0,0,66.464,14.075,90.31-3.354c23.846-17.43,0,0,0,0l-94.963-15.164L2710.053,582.651"/>
			</g>
			<path fill="#343766" d="M2646.118,257.872c34.268,23.357,50.999,66.807,50.271,108.272c-0.121,6.92-0.656,13.963,1.082,20.662
				c1.738,6.699,6.314,13.165,13.008,14.922c6.694,1.757,14.961-3.172,14.811-10.091c-0.25,2.804,2.897,5.691,5.197,7.315
				c2.3,1.624,5.12,2.325,7.902,2.759c3.579,0.559,7.287,0.723,10.786-0.215c8.372-2.243,14.248-11.406,12.794-19.95
				c5.058,3.699,11.797,4.097,18.027,3.43c5.04-0.539,10.157-1.581,14.459-4.262c4.302-2.681,7.68-7.267,7.786-12.334
				c0.126-6.017-4.236-11.251-9.162-14.708c6.316-1.122,12.482-3.51,17.218-7.837c4.736-4.326,7.567-11.134,5.869-17.32
				c-1.729-6.299-7.727-10.694-14.039-12.373c-6.312-1.679-12.976-1.119-19.483-0.548c-13.235-22.779-26.308-46.521-45.858-64.181
				c-19.55-17.66-45.726-29.682-71.889-26.592c-8.505,1.005-17.288,3.878-22.812,10.422
				C2636.56,241.789,2639.042,253.049,2646.118,257.872z"/>
			<polygon fill="#1F1949" points="2482.418,683.765 2424.772,548.866 2248.404,548.866 2319.905,698.341 2385.725,698.341 
				2488.646,698.341 2635.849,698.341 2635.849,683.765 			"/>
			<path fill="#6E9786" d="M2649.015,604.174c0,0-28.771-36.347-9.948-108.378c0,0-24.03,59.631-9.107,98.615L2649.015,604.174z"/>
			<path fill="#6E9786" d="M2704.913,571.312c0,0-3.018-73.195,12.02-110.212c0,0-21.551,44.584-20.479,108.738L2704.913,571.312z"
				/>
			<path fill="#DA8C8D" d="M2522.779,663.15c0,0-21.486-11.352-25.584-11.352c-4.098,0-24.273,9.743-24.273,9.743l1.573,3.682
				l14.438-3.873l-11.693,10.296l5.179,12.12h50.534L2522.779,663.15z"/>
		</g>
		<g>
			<path fill="#FFFFFF" d="M2420.619,259.841c0-33.554,36.855-60.755,82.318-60.755c45.463,0,82.318,27.201,82.318,60.755
				c0,20.792-14.159,39.137-35.741,50.09l7.137,26.424c0,0-44.735-2.924-85.891-20.578c-12.976-4.071-24.229-10.539-32.779-18.638
				c-0.036-0.027-0.073-0.054-0.109-0.081l0.024,0.001C2427.077,286.775,2420.619,273.869,2420.619,259.841z"/>
			<g>
				<circle fill="#D7E9F1" cx="2539.709" cy="257.573" r="6.524"/>
				<path fill="#D7E9F1" d="M2495.678,257.573c0,3.603,2.921,6.524,6.524,6.524s6.524-2.921,6.524-6.524s-2.921-6.524-6.524-6.524
					S2495.678,253.97,2495.678,257.573z"/>
				<circle fill="#D7E9F1" cx="2466.165" cy="257.573" r="6.524"/>
			</g>
		</g>
	</g>
</g>
</svg>
