<?xml version="1.0" encoding="utf-8"?>
<!-- Generator: Adobe Illustrator 26.0.1, SVG Export Plug-In . SVG Version: 6.00 Build 0)  -->
<svg version="1.1" id="Layer_1" xmlns="http://www.w3.org/2000/svg" xmlns:xlink="http://www.w3.org/1999/xlink" x="0px" y="0px"
	 viewBox="0 0 3090.561 946.48" enable-background="new 0 0 3090.561 946.48" xml:space="preserve">
<g>
	<defs>
		<filter id="Adobe_OpacityMaskFilter" filterUnits="userSpaceOnUse" x="2172.718" y="750.091" width="811" height="195.891">
			<feFlood  style="flood-color:white;flood-opacity:1" result="back"/>
			<feBlend  in="SourceGraphic" in2="back" mode="normal"/>
		</filter>
	</defs>
	<mask maskUnits="userSpaceOnUse" x="2172.718" y="750.091" width="811" height="195.891" id="SVGID_1_">
		<g filter="url(#Adobe_OpacityMaskFilter)">
			<defs>
				
					<filter id="Adobe_OpacityMaskFilter_00000158001054914101653900000013340916725185746086_" filterUnits="userSpaceOnUse" x="2172.718" y="750.091" width="811" height="195.891">
					<feFlood  style="flood-color:white;flood-opacity:1" result="back"/>
					<feBlend  in="SourceGraphic" in2="back" mode="normal"/>
				</filter>
			</defs>
			<mask maskUnits="userSpaceOnUse" x="2172.718" y="750.091" width="811" height="195.891" id="SVGID_1_">
				<g filter="url(#Adobe_OpacityMaskFilter_00000158001054914101653900000013340916725185746086_)">
				</g>
			</mask>
			
				<linearGradient id="SVGID_00000075138299985385929140000009810937008919740578_" gradientUnits="userSpaceOnUse" x1="2164.6228" y1="795.2921" x2="2924.4119" y2="1000.8383">
				<stop  offset="5.175100e-04" style="stop-color:#333333"/>
				<stop  offset="0.9995" style="stop-color:#FFFFFF"/>
			</linearGradient>
			<path mask="url(#SVGID_1_)" fill="url(#SVGID_00000075138299985385929140000009810937008919740578_)" d="M2172.718,945.981
				c0,0,810.788,0,811,0c-2.65,0-27.259-34.916-32.236-39.178c-12.336-10.565-26.159-18.524-41.614-23.487
				c-48.051-15.429-98.923,2.461-146.427-18.786c-44.718-20.001-79.024-57.001-121.955-80.065
				c-57.645-30.968-127.662-47.695-190.251-21.182c-31.555,13.367-56.104,38.946-88.272,51.203
				c-38.179,14.548-80.476,13.012-118.7,27.622C2201.021,858.637,2174.471,900.14,2172.718,945.981z"/>
		</g>
	</mask>
	
		<linearGradient id="SVGID_00000147929829596949065820000008387332297484734108_" gradientUnits="userSpaceOnUse" x1="2164.6228" y1="795.2921" x2="2924.4119" y2="1000.8383">
		<stop  offset="5.175100e-04" style="stop-color:#E1E5EF"/>
		<stop  offset="0.9995" style="stop-color:#E1E5EF"/>
	</linearGradient>
	<path fill="url(#SVGID_00000147929829596949065820000008387332297484734108_)" d="M2172.718,945.981c0,0,810.788,0,811,0
		c-2.65,0-27.259-34.916-32.236-39.178c-12.336-10.565-26.159-18.524-41.614-23.487c-48.051-15.429-98.923,2.461-146.427-18.786
		c-44.718-20.001-79.024-57.001-121.955-80.065c-57.645-30.968-127.662-47.695-190.251-21.182
		c-31.555,13.367-56.104,38.946-88.272,51.203c-38.179,14.548-80.476,13.012-118.7,27.622
		C2201.021,858.637,2174.471,900.14,2172.718,945.981z"/>
	<path fill="#E6EAF4" d="M40.887,326.172c19.811-46.663,92.38-45.16,130.123-11.896c37.743,33.264,54.04,84.357,77.971,128.97
		c16.46,30.687,40.355,61.238,74.076,67.79c29.599,5.751,59.953-8.901,82.057-29.762c22.104-20.861,37.904-47.531,55.628-72.354
		c47.07-65.923,121.534-124.123,200.323-109.852c56.765,10.281,100.86,55.684,135.173,102.88
		c34.313,47.197,63.937,99.555,109.607,135.402c29.611,23.242,69.982,38.615,104.32,23.565
		c16.914-7.414,30.202-21.276,42.399-35.327c49.617-57.157,101.54-129.789,176.432-128.544
		c65.138,1.082,113.316,58.55,160.007,104.829c65.714,65.134,154.608,118.091,245.012,102.508
		c62.638-10.797,121.614-53.642,184.098-41.956c77.373,14.47,116.201,103.15,132.058,181.638
		c13.366,66.158,19.664,133.795,18.748,201.333L40.886,945.302L40.887,326.172z"/>
	<g>
		<g>
			<rect x="40.887" y="140.013" fill="#CAD2EA" width="1921.691" height="1.14"/>
		</g>
		<g>
			<rect x="40.887" y="256.026" fill="#CAD2EA" width="1921.691" height="1.14"/>
		</g>
		<g>
			<rect x="40.887" y="372.04" fill="#CAD2EA" width="1921.691" height="1.14"/>
		</g>
		<g>
			<rect x="40.887" y="488.054" fill="#CAD2EA" width="1921.691" height="1.14"/>
		</g>
		<g>
			<rect x="40.887" y="604.067" fill="#CAD2EA" width="1921.691" height="1.14"/>
		</g>
		<g>
			<rect x="40.887" y="720.081" fill="#CAD2EA" width="1921.691" height="1.14"/>
		</g>
		<g>
			<rect x="40.887" y="836.095" fill="#CAD2EA" width="1921.691" height="1.14"/>
		</g>
	</g>
	<g>
		<g>
			<g>
				<defs>
					<path id="XMLID_316_" d="M1250.069,942.118l-72.12-57.483c-4.204-3.351-4.896-9.476-1.545-13.68l325.637-408.552
						c3.351-4.204,9.476-4.896,13.68-1.545l72.12,57.483c4.204,3.351,4.896,9.476,1.545,13.68l-325.638,408.552
						C1260.398,944.777,1254.273,945.469,1250.069,942.118z"/>
				</defs>
				<use xlink:href="#XMLID_316_"  overflow="visible" fill="#CAD2EA"/>
				<clipPath id="XMLID_00000057855590997861216690000013748544786746160795_">
					<use xlink:href="#XMLID_316_"  overflow="visible"/>
				</clipPath>
				<polyline opacity="0.5" clip-path="url(#XMLID_00000057855590997861216690000013748544786746160795_)" fill="#8296C9" points="
					1341.328,663.102 1196.544,899.456 1151.017,885.412 1341.328,663.102 				"/>
			</g>
			<g>
				<defs>
					<path id="XMLID_317_" d="M1499.416,943.849l-82.569-41.085c-4.813-2.395-6.774-8.238-4.379-13.052l295.421-593.718
						c2.395-4.813,8.239-6.774,13.052-4.379l82.569,41.085c4.813,2.395,6.774,8.238,4.379,13.052L1512.468,939.47
						C1510.073,944.283,1504.229,946.243,1499.416,943.849z"/>
				</defs>
				<use xlink:href="#XMLID_317_"  overflow="visible" fill="#CAD2EA"/>
				<clipPath id="XMLID_00000098187121248885735290000007695071678823004350_">
					<use xlink:href="#XMLID_317_"  overflow="visible"/>
				</clipPath>
				<polyline opacity="0.5" clip-path="url(#XMLID_00000098187121248885735290000007695071678823004350_)" fill="#8296C9" points="
					1589.386,532.021 1446.094,933.385 1388.278,895.738 1589.386,532.021 				"/>
			</g>
			<g>
				<defs>
					<path id="XMLID_318_" d="M1807.032,946.514l-90.857-15.829c-5.296-0.923-8.842-5.965-7.919-11.261l134.698-773.132
						c0.923-5.297,5.964-8.842,11.261-7.919l90.857,15.829c5.297,0.923,8.842,5.965,7.919,11.261l-134.698,773.132
						C1817.37,943.891,1812.329,947.437,1807.032,946.514z"/>
				</defs>
				<use xlink:href="#XMLID_318_"  overflow="visible" fill="#8296C9"/>
				<clipPath id="XMLID_00000077295870913607901900000013486803733234616475_">
					<use xlink:href="#XMLID_318_"  overflow="visible"/>
				</clipPath>
				<polyline opacity="0.58" clip-path="url(#XMLID_00000077295870913607901900000013486803733234616475_)" fill="#39548B" points="
					1807.888,345.752 1755.839,946.66 1670.611,944.759 1807.888,345.752 				"/>
			</g>
			<g>
				<path fill="#CAD2EA" d="M909.7,943.162l-67.005-63.371c-3.906-3.694-4.078-9.855-0.384-13.761l183.424-193.942
					c3.694-3.906,9.855-4.078,13.761-0.384l67.005,63.371c3.906,3.694,4.078,9.856,0.384,13.762L923.461,942.779
					C919.767,946.685,913.606,946.857,909.7,943.162z"/>
				<g>
					<defs>
						<path id="XMLID_315_" d="M1064.633,941.496l-67.005-63.371c-3.906-3.694-4.078-9.855-0.383-13.761l262.934-278.011
							c3.694-3.906,9.855-4.078,13.762-0.384l67.005,63.371c3.906,3.694,4.078,9.855,0.384,13.761l-262.934,278.011
							C1074.7,945.019,1068.539,945.19,1064.633,941.496z"/>
					</defs>
					<use xlink:href="#XMLID_315_"  overflow="visible" fill="#CAD2EA"/>
					<clipPath id="XMLID_00000010997409624614741820000003922656613590605210_">
						<use xlink:href="#XMLID_315_"  overflow="visible"/>
					</clipPath>
					<polyline opacity="0.5" clip-path="url(#XMLID_00000010997409624614741820000003922656613590605210_)" fill="#8296C9" points="
						1106.885,748.837 995.333,889.928 952.868,859.223 1113.9,741.018 					"/>
				</g>
			</g>
		</g>
		<g>
			<path fill="#1F1949" d="M2359.429,936.152c6.376-6.011,7.827-7.302,7.827-7.302l-4.872-6.329l14.156-8.603l9.892,17.744
				l-21.862,13.613h-23.419C2345.169,940.251,2353.928,938.116,2359.429,936.152z"/>
			<g>
				<g>
					<defs>
						<path id="XMLID_89_" d="M2151.412,697.696c0,0,70.053,82.653,94.216,113.157c24.163,30.504,117.595,111.158,117.595,111.158
							l12.109-7.358l-80.675-133.819c0,0-56.256-149.242-111.771-145.509L2151.412,697.696z"/>
					</defs>
					<use xlink:href="#XMLID_89_"  overflow="visible" fill="#39548B"/>
					<clipPath id="XMLID_00000063611910989298280080000016885424418971470266_">
						<use xlink:href="#XMLID_89_"  overflow="visible"/>
					</clipPath>
				</g>
				<g>
					<defs>
						<path id="XMLID_100_" d="M2192.1,630.313l-79.246,4.943c0,0-20.594,78.797-37.784,122.38
							c-4.379,11.102-6.145,23.058-5.094,34.946c4.356,49.253,22.436,137.746,22.436,137.746l6.61,1.308l5.798-4.344l18.723-129.695
							c0.366-2.538,1.392-4.935,2.981-6.948C2148.841,762.401,2217.712,669.581,2192.1,630.313z"/>
					</defs>
					<use xlink:href="#XMLID_100_"  overflow="visible" fill="#39548B"/>
					<clipPath id="XMLID_00000147192368288390028050000002777517578222005142_">
						<use xlink:href="#XMLID_100_"  overflow="visible"/>
					</clipPath>
					<path clip-path="url(#XMLID_00000147192368288390028050000002777517578222005142_)" fill="#343766" d="M2134.794,666.068
						c13.11-2.917,25.878-7.11,37.897-13.169c7.145-3.602,21.801-9.892,21.054-19.905c-0.227-3.048-2.485-5.655-5.178-7.1
						c-2.694-1.445-5.789-1.921-8.823-2.294c-22.302-2.741-45.255-1.051-66.596,5.98c-6.859,2.259-13.632,5.115-19.304,9.585
						c-8.975,7.074-14.505,17.817-16.555,28.934c-0.19,1.031-0.621,2.442-0.075,3.433c0.631,1.143,1.99,0.876,3.091,0.832
						C2098.418,671.646,2116.924,670.044,2134.794,666.068z"/>
				</g>
				<path fill="#343766" d="M2172.718,722.924l-21.306-29.598c0,0-10.003,72.213-19.188,89.99
					C2132.224,783.315,2166.795,738.078,2172.718,722.924z"/>
				<g>
					<g>
						<g>
							<g>
								<g>
									<defs>
										<path id="XMLID_91_" d="M2078.96,444.845c0,0-8.431,43.556,13.526,40.506c21.956-3.05,33.226-29.511,24.339-44.939
											C2107.938,424.985,2082.691,416.175,2078.96,444.845z"/>
									</defs>
									<use xlink:href="#XMLID_91_"  overflow="visible" fill="#DA8C8D"/>
									<clipPath id="XMLID_00000093164960824413841240000012093070896194600879_">
										<use xlink:href="#XMLID_91_"  overflow="visible"/>
									</clipPath>
									<path clip-path="url(#XMLID_00000093164960824413841240000012093070896194600879_)" fill="#C17276" d="M2094.937,459.056
										c6.981-1.317,13.844-3.877,19.396-8.309c0.889-0.71,1.779-1.519,2.138-2.599c0.627-1.888-0.579-3.913-2.054-5.248
										c-2.795-2.531-6.57-3.672-10.276-4.367c-7.545-1.414-15.751-1.169-22.371,2.717c-4.661,2.736-8.269,7.576-9.187,12.941
										c-0.292,1.703-0.9,5.444,1.272,6.151c1.159,0.377,2.614,0.169,3.804,0.153c1.77-0.024,3.54-0.067,5.309-0.146
										C2086.979,460.168,2090.988,459.801,2094.937,459.056z"/>
								</g>
								<path fill="#DA8C8D" d="M2119.701,449c0,0,0.634,21.848,6.891,41.32c1.401,4.359-0.082,9.125-3.797,11.802
									c-5.094,3.67-12.423,8.081-18.639,8.453c-10.784,0.645-2.563-46.775-2.563-46.775L2119.701,449z"/>
							</g>
							<path fill="#C17276" d="M2099.105,483.626c0,0,6.924-2.371,14.351-11.479c0,0-2.474,15.887-14.833,20.314
								C2098.623,492.462,2098.881,486.178,2099.105,483.626z"/>
						</g>
						<path fill="#343766" d="M2113.441,431.398c-7.868,6.651-21.465,12.425-31.922,11.877c-5.818-0.305-11.411-3.735-14.774-8.433
							c-4.384-6.123-4.328-14.299,3.011-17.892c7.456-3.65,16.385-3.53,24.453-2.729c6.304,0.626,18.703,0.87,22.256,7.234
							C2118.569,425.222,2116.783,428.572,2113.441,431.398z"/>
						<path fill="#343766" d="M2099.498,439.786c1.547,5.82,3.939,11.415,7.079,16.554c0.126-1.417,0.509-2.897,1.573-3.841
							c1.064-0.944,2.824-1.183,3.897-0.25c0.531,0.462,0.834,1.138,1.003,1.822c0.376,1.523,0.156,3.154-0.416,4.615
							c-0.573,1.461-1.482,2.769-2.493,3.969c1.391,1.732,2.864,3.448,4.361,5.13c1.736,1.95,4.393,2.827,6.941,2.258l0.043-0.009
							c3.722-9.164,6.083-18.398,7.568-28.176c0.426-2.803,0.757-5.648,0.475-8.469c-0.496-4.96-3.02-9.757-7.055-12.684
							c-4.035-2.927-9.564-3.815-14.193-1.966c-3.979,1.589-7.073,5.066-8.564,9.083
							C2098.224,431.839,2098.398,435.645,2099.498,439.786z"/>
					</g>
					<g>
						<defs>
							<path id="XMLID_314_" d="M2185.375,648.021c9.577-1.712,19.845-11.45,16.626-19.114c-1.797-4.278-3.812-10.099-7.014-16.013
								c-16.978-31.352-11.423-43.446-24.963-84.325c-13.657-41.233-49.314-40.752-58.912-37.303
								c-9.597,3.449-29.799,29.351-29.916,45.841c-0.118,16.669,0.662,33.396,1.883,50.015c1.458,19.826,2.363,40.31,9.641,59.052
								c2.67,6.875,6.777,12.224,14.615,12.457c12.003,0.358,23.666-2.817,35.46-4.507c11.375-1.631,22.751-3.261,34.126-4.892
								C2179.733,648.83,2182.578,648.521,2185.375,648.021z"/>
						</defs>
						<use xlink:href="#XMLID_314_"  overflow="visible" fill="#F9DD89"/>
						<clipPath id="XMLID_00000053544867660552096860000015590968666700247940_">
							<use xlink:href="#XMLID_314_"  overflow="visible"/>
						</clipPath>
						<path clip-path="url(#XMLID_00000053544867660552096860000015590968666700247940_)" fill="#F4C54E" d="M2092.721,646.175
							c0,0,11.469-15.239,13.319-20.802c1.849-5.563-5.677-55.953-5.677-55.953s32.067-18.324,39.92-40.901
							c0,0-23.318,12.755-56.16,12.431c-32.842-0.324,0,0,0,0S2083.771,629.674,2092.721,646.175"/>
					</g>
					<path fill="#FFFFFF" d="M2085.044,526.795c0,0-13.473,33.909-15.393,103.518l11.56,25.585l17.384-30.174
						c0,0-5.561-82.709,0-98.93H2085.044z"/>
					<path fill="#F9DD89" d="M2025.312,489.565l-101.262-45.57L1913.7,459.82c0,0,78.777,67.236,98.805,71.4
						c0,0,84.566,20.497,102.6,1.993c18.034-18.504,6.501-43.377,6.501-43.377L2025.312,489.565z"/>
					<path fill="#DA8C8D" d="M1922.557,446.278c0,0-6.617-6.022-7.36-7.261c-0.743-1.238-5.514-24.972-5.514-24.972
						s-7.208,34.342-6.235,35.788c0.973,1.446,11.477,8.113,11.477,8.113L1922.557,446.278z"/>
				</g>
			</g>
			<path fill="#1F1949" d="M2106.292,922.011l-17.063,0.543l1.363,10.503c0,0-24.761,0.328-29.938,11.702h44.629L2106.292,922.011z"
				/>
		</g>
	</g>
	<path fill="#343766" d="M1939.993,240.167c-0.099,0-0.201-0.012-0.302-0.037c-36.137-9.126-106.656-34.998-107.364-35.258
		c-0.637-0.234-0.963-0.94-0.729-1.576c0.234-0.636,0.944-0.964,1.576-0.729c0.708,0.26,71.106,26.088,107.12,35.182
		c0.657,0.166,1.055,0.834,0.89,1.491C1941.043,239.796,1940.542,240.167,1939.993,240.167z"/>
	<path fill="#343766" d="M1850.445,246.373c-0.844,0-1.793-0.152-2.852-0.521c-6.32-2.205-9.1-10.139-10.64-15.914
		c-0.95-3.556-1.704-7.262-2.435-10.846c-0.974-4.78-1.97-9.673-3.456-14.37c-3.589-1.138-7.451-1.406-11.496-1.686
		c-5.966-0.414-12.134-0.841-17.417-4.337c-2.702-1.789-4.467-4.521-4.724-7.309c-0.303-3.305,1.482-6.718,4.548-8.695
		c3.642-2.349,7.62-2.905,11.83-1.658c7.74,2.297,14.362,10.255,17.239,16.678c0.746,1.664,1.397,3.364,1.978,5.087
		c0.496,0.186,0.988,0.388,1.475,0.611c10.275,4.696,18.321,13.165,22.076,23.234l0.001,0.001c0.519,1.396,0.947,2.816,1.272,4.221
		c0.854,3.693,0.446,10.657-3.14,13.874C1853.789,245.565,1852.393,246.373,1850.445,246.373z M1833.98,205.882
		c1.213,4.208,2.088,8.507,2.947,12.719c0.723,3.549,1.47,7.218,2.4,10.703c2.19,8.208,5.158,12.861,9.076,14.228
		c1.928,0.673,3.453,0.47,4.664-0.618c2.461-2.208,3.232-7.829,2.385-11.493c-0.3-1.302-0.698-2.62-1.18-3.917l0,0
		C1850.803,218.206,1843.425,210.353,1833.98,205.882z M1809.548,182.853c-2.185,0-4.275,0.637-6.243,1.906
		c-2.27,1.464-3.649,4.039-3.432,6.407c0.188,2.053,1.547,4.104,3.633,5.485c4.743,3.138,10.323,3.525,16.231,3.935
		c3.446,0.239,6.973,0.483,10.363,1.32c-0.398-1.078-0.829-2.141-1.296-3.187c-2.74-6.115-9.012-13.343-15.698-15.327
		C1811.894,183.032,1810.708,182.853,1809.548,182.853z"/>
	<g>
		<g>
			<g>
				<defs>
					
						<ellipse id="XMLID_140_" transform="matrix(0.7071 -0.7071 0.7071 0.7071 447.5513 2138.0747)" cx="2804.66" cy="528.795" rx="209.525" ry="209.525"/>
				</defs>
				<use xlink:href="#XMLID_140_"  overflow="visible" fill="#FFFFFF"/>
				<clipPath id="XMLID_00000173841090514801000650000001934143977927034299_">
					<use xlink:href="#XMLID_140_"  overflow="visible"/>
				</clipPath>
				<path clip-path="url(#XMLID_00000173841090514801000650000001934143977927034299_)" fill="#CAD2EA" d="M2923.92,382.01
					c-8.832,0.953-17.664,1.907-26.496,2.86c-1.836,0.198-3.85,0.355-5.373-0.689c-1.37-0.939-1.988-2.608-2.797-4.057
					c-3.831-6.863-12.885-9.357-20.607-7.89c-7.722,1.467-14.439,6.04-20.907,10.506l-15.38,10.62
					c-0.79,0.545-1.51,1.196-2.078,1.969c-3.715,5.05,1.058,9.794,5.051,13.14c3.462,2.902,7.042,7.604,4.696,11.464
					c-7.24,5.104-19.24,0.518-24.883,7.347c-3.843,4.652-2.259,12.186-6.15,16.798c-2.706,3.207-7.212,4.022-11.111,5.575
					c-4.595,1.83-9.332,6.432-5.973,11.43c0.258,0.383,0.557,0.738,0.882,1.066c7.328,7.394,19.959,8.436,28.511,2.619
					c5.24-3.564,8.841-9.235,14.292-12.465c11.938-7.075,26.974-0.051,38.978,6.91c7.169,4.157,15.151,9.481,15.65,17.934
					c0.054,0.917-0.005,1.845-0.252,2.73c-1.468,5.257-7.338,5.883-12.155,5.525c-25.275-1.881-50.76-15.986-74.714-7.704
					c-2.591,0.896-5.182,2.108-6.956,4.197c-1.928,2.271-2.666,5.296-3.245,8.218c-1.994,10.069-2.805,20.371-2.411,30.628
					c0.474,12.335,4.436,26.794,16.108,30.811c8.417,2.897,19.271-0.391,25.479,5.989c4.423,4.546,4.045,11.745,3.612,18.072
					c-1.915,28.017,1.269,57.438,16.287,81.219c0.46,0.729,1.166,1.291,2,1.506c1.597,0.412,2.417-0.713,3.145-1.723
					c14.433-20.059,39.944-30.854,51.655-52.614c8.733-16.227,8.2-35.662,7.446-54.074c-0.094-2.302-0.217-4.706-1.366-6.703
					c-1.244-2.162-3.49-3.507-5.518-4.958c-13.122-9.386-19.55-27.213-15.437-42.813c3.274,9.314,6.548,18.628,9.822,27.942
					c1.121,3.19,2.774,6.862,6.095,7.497c2.208,0.422,4.385-0.701,6.353-1.788c5.677-3.136,11.353-6.271,17.029-9.407
					c4.1-2.265,8.338-4.65,11.071-8.454c2.732-3.805,3.486-9.464,0.443-13.025c-2.907-3.401-8.012-3.738-12.463-3.287
					c-4.451,0.451-9.13,1.396-13.263-0.318c-4.133-1.713-6.834-7.557-3.705-10.755c13.758,5.47,27.515,10.94,41.272,16.411
					c1.484,0.59,3.037,1.23,4.038,2.474c0.979,1.219,1.28,2.831,1.549,4.372c1.737,9.954,3.473,19.907,5.21,29.861
					c1.007,5.771,4.717,13.305,10.267,11.427c3.087-1.045,4.394-4.593,5.447-7.676c3.383-9.9,8.175-19.317,14.188-27.878
					c1.337-1.904,2.911-3.889,5.165-4.461c3.593-0.911,6.885,2.095,9.379,4.838c5.945,6.54,11.889,13.08,17.834,19.62
					c2.3,2.53,4.788,5.178,8.091,6.062c4.082,1.093,8.379-0.8,11.834-3.234c10.242-7.216,16.256-19.165,19.31-31.316
					c3.689-14.676,3.611-30.022,2.889-45.137c-0.684-14.312-2.083-29.126-9.187-41.569c-6.285-11.008-16.509-19.191-27.045-26.239
					c-14.146-9.464-29.602-17.453-46.225-21.473c-7.042-1.703-15.356-3.517-22.636-2.543c-6.125,0.819-10.767,6.257-16.255,8.731
					C2942.114,379.865,2932.882,381.042,2923.92,382.01z"/>
				<path clip-path="url(#XMLID_00000173841090514801000650000001934143977927034299_)" fill="#CAD2EA" d="M2655.479,591.862
					c10.999,6.104,17.988,17.571,28.245,24.853c9.83,6.979,22.509,10.016,30.584,18.967c10.985,12.175,9.749,30.694,7.85,46.982
					c-0.955,8.196-1.917,16.425-4.016,24.405c-1.374,5.222-3.366,10.526-7.321,14.202c-5.418,5.035-13.667,6.044-20.855,4.304
					c-7.188-1.739-13.552-5.845-19.623-10.069c-20.972-14.593-40.615-31.761-54.469-53.229
					c-9.817-15.213-16.539-32.707-18.141-50.812c-0.397-4.487-0.474-9.003-0.198-13.499c0.159-2.597-0.318-8.02,2.469-9.393
					c1.599-0.788,4.465-0.354,6.223-0.469c2.301-0.15,4.6-0.343,6.898-0.536c4.504-0.379,9.009-0.79,13.527-0.966
					C2636.506,586.218,2646.688,586.984,2655.479,591.862z"/>
				<path clip-path="url(#XMLID_00000173841090514801000650000001934143977927034299_)" fill="#CAD2EA" d="M2721.333,362.786
					c-2.31,2.425-3.874,5.471-5.035,8.612c-4.634,12.532-3.146,26.401-4.987,39.634c-1.84,13.234-9.058,27.669-22.16,30.291
					c-3.861,0.773-7.848,0.417-11.769,0.057c-15.282-1.4-30.563-2.801-45.845-4.201c-2.319-0.213-4.718-0.449-6.742-1.6
					c-1.768-1.005-3.103-2.634-4.16-4.372c-3.923-6.447-4.365-14.369-4.369-21.916c-0.009-16.934,2.082-34.99,12.783-48.113
					c5.034-6.174,11.667-10.836,18.467-14.985c16.718-10.2,35.25-17.708,54.577-21.099c9.396-1.649,19.141-2.458,28.673-1.736
					c5.614,0.425,10.869,1.855,14.121,6.772c4.641,7.016,8.052,18.539,7.085,26.849
					C2741.413,356.942,2729.649,354.056,2721.333,362.786z"/>
				<path clip-path="url(#XMLID_00000173841090514801000650000001934143977927034299_)" fill="#CAD2EA" d="M2620.994,480.278
					c0.111,3.155,0.725,6.917,3.609,8.201c3.04,1.354,6.384-1.013,8.728-3.374c7.065-7.117,12.694-15.654,16.45-24.952
					c-2.716-4.219-8.485-4.931-13.494-5.223c-3.523-0.205-7.361-0.882-10.877-0.584c-2.623,0.223-3.191,1.747-3.521,4.144
					C2620.892,465.73,2620.994,472.996,2620.994,480.278z"/>
				<path clip-path="url(#XMLID_00000173841090514801000650000001934143977927034299_)" fill="#CAD2EA" d="M2774.717,440.787
					c-2.264,1.536-4.57,3.135-6.13,5.382c-1.559,2.247-2.236,5.314-0.987,7.747c1.072,2.086,3.332,3.319,5.61,3.877
					c3.334,0.817,7.073,0.364,9.823-1.691c2.75-2.056,4.263-5.835,3.205-9.101c-1.058-3.266-4.923-5.487-8.155-4.328"/>
				<path clip-path="url(#XMLID_00000173841090514801000650000001934143977927034299_)" fill="#CAD2EA" d="M2883.907,641.709
					c-2.81,1.936-5.66,3.908-7.819,6.551c-2.159,2.643-3.571,6.094-3.018,9.461c0.206,1.256,0.736,2.538,1.789,3.252
					c1.177,0.797,2.722,0.72,4.132,0.542c4.405-0.555,8.811-1.834,12.412-4.43s6.315-6.643,6.595-11.073
					c0.203-3.209-1.168-7.604-4.09-9.378c-1.683-1.021-3,0.25-4.396,1.212C2887.646,639.134,2885.776,640.421,2883.907,641.709z"/>
				<path clip-path="url(#XMLID_00000173841090514801000650000001934143977927034299_)" fill="#CAD2EA" d="M3004.844,560.884
					c-1.826,4.842-4.241,9.734-8.44,12.759c-1.462,1.053-3.19,1.942-3.979,3.563c-0.66,1.355-0.516,2.952-0.271,4.44
					c1.416,8.594,5.807,16.669,12.25,22.529c10.065-7.261,16.093-19.07,18.82-31.177c2.727-12.107,2.494-24.659,2.247-37.067
					c-0.114-5.725-0.284-26.819-11.132-21.806c-4.256,1.967-4.157,5.661-3.917,9.717c0.354,5.961,0.115,11.958-0.708,17.873
					C3008.801,548.257,3007.175,554.702,3004.844,560.884z"/>
			</g>
		</g>
		<g>
			<path fill="#CAD2EA" d="M2378.662,176.443l-15.646-0.009c-0.434,0-0.808-0.301-0.904-0.725
				c-2.831-12.453-7.785-24.097-14.466-34.532c-0.236-0.368-0.185-0.849,0.124-1.158l11.203-11.189
				c1.917-1.915,1.919-5.022,0.004-6.939l-25.727-25.757c-1.915-1.918-5.022-1.92-6.939-0.004l-11.321,11.308
				c-0.308,0.307-0.785,0.358-1.152,0.126c-10.409-6.576-22.008-11.436-34.398-14.201c-0.426-0.095-0.728-0.47-0.728-0.906
				l0.009-16.073c0.001-2.71-2.194-4.908-4.904-4.91l-36.405-0.022c-2.71-0.002-4.908,2.194-4.91,4.904l-0.01,16.073
				c0,0.436-0.304,0.81-0.729,0.905c-12.394,2.749-23.998,7.596-34.415,14.16c-0.368,0.232-0.845,0.18-1.153-0.127l-11.308-11.321
				c-1.915-1.917-5.022-1.919-6.939-0.004l-25.757,25.726c-1.917,1.915-1.919,5.022-0.004,6.94l11.19,11.203
				c0.309,0.309,0.359,0.79,0.122,1.158c-6.693,10.427-11.662,22.066-14.507,34.515c-0.097,0.423-0.47,0.724-0.905,0.724
				l-15.646-0.009c-2.71-0.002-4.908,2.194-4.91,4.904l-0.024,40.38c0,0.514,0.417,0.932,0.931,0.932l19.374,0.011
				c0.438,0,0.813,0.306,0.906,0.734c2.727,12.599,7.623,24.391,14.283,34.961c0.232,0.368,0.18,0.845-0.127,1.152l-10.771,10.758
				c-1.917,1.915-1.919,5.022-0.004,6.94l25.727,25.757c1.915,1.917,5.022,1.919,6.94,0.004l10.652-10.639
				c0.31-0.309,0.79-0.359,1.158-0.122c10.58,6.792,22.406,11.807,35.061,14.63c0.426,0.095,0.729,0.469,0.729,0.905l-0.009,14.972
				c-0.002,2.71,2.194,4.908,4.904,4.91l36.405,0.022c2.71,0.002,4.908-2.194,4.91-4.904l0.009-14.972
				c0-0.436,0.304-0.81,0.729-0.905c12.659-2.808,24.491-7.809,35.079-14.589c0.368-0.236,0.849-0.185,1.157,0.124l10.64,10.652
				c1.915,1.917,5.022,1.919,6.94,0.004l25.757-25.727c1.917-1.915,1.919-5.022,0.004-6.94l-10.757-10.77
				c-0.307-0.308-0.358-0.785-0.126-1.152c6.673-10.562,11.582-22.348,14.324-34.944c0.093-0.428,0.469-0.733,0.906-0.733
				l15.398,0.009c2.71,0.002,4.909-2.194,4.91-4.904l0.022-36.404C2383.568,178.643,2381.372,176.444,2378.662,176.443z
				 M2250.57,267.043c-37.794-2.789-66.247-36.696-62.433-74.4c3.722-36.799,36.342-63.886,73.303-60.653
				c37.273,3.26,64.846,36.118,61.586,73.391C2319.794,242.343,2287.456,269.765,2250.57,267.043z"/>
			<path fill="#CAD2EA" d="M2513.823,124.175l-9.352-2.84c-0.26-0.079-0.428-0.327-0.409-0.597
				c0.564-7.957-0.288-15.816-2.391-23.265c-0.074-0.263,0.043-0.541,0.284-0.67l8.725-4.659c1.493-0.797,2.057-2.654,1.26-4.148
				l-10.713-20.06c-0.797-1.493-2.654-2.057-4.148-1.26l-8.817,4.709c-0.239,0.128-0.534,0.072-0.711-0.133
				c-5.031-5.817-11.084-10.824-17.99-14.722c-0.237-0.134-0.351-0.413-0.271-0.673l2.918-9.607c0.492-1.62-0.422-3.332-2.042-3.824
				l-21.759-6.609c-1.62-0.492-3.332,0.422-3.824,2.042l-2.918,9.607c-0.079,0.261-0.329,0.429-0.6,0.409
				c-7.907-0.602-15.723,0.193-23.139,2.229c-0.262,0.072-0.538-0.046-0.666-0.285l-4.708-8.817
				c-0.797-1.493-2.655-2.058-4.148-1.26l-20.059,10.713c-1.493,0.798-2.057,2.655-1.26,4.148l4.659,8.725
				c0.128,0.241,0.071,0.537-0.137,0.714c-5.891,5.021-10.97,11.078-14.926,18.005c-0.135,0.236-0.412,0.348-0.672,0.269
				l-9.352-2.841c-1.62-0.492-3.332,0.422-3.824,2.042l-7.331,24.135c-0.093,0.308,0.08,0.633,0.388,0.726l11.58,3.517
				c0.262,0.08,0.431,0.33,0.409,0.603c-0.653,8.026,0.137,15.963,2.204,23.488c0.072,0.262-0.045,0.538-0.285,0.666l-8.388,4.48
				c-1.493,0.798-2.057,2.655-1.26,4.148l10.713,20.059c0.797,1.493,2.654,2.057,4.148,1.26l8.296-4.43
				c0.241-0.129,0.537-0.071,0.715,0.137c5.094,5.977,11.255,11.118,18.309,15.099c0.237,0.134,0.351,0.413,0.271,0.673
				l-2.718,8.949c-0.492,1.62,0.422,3.332,2.042,3.824l21.759,6.609c1.62,0.492,3.332-0.422,3.824-2.042l2.718-8.949
				c0.079-0.261,0.328-0.429,0.6-0.409c8.076,0.615,16.056-0.231,23.614-2.365c0.263-0.074,0.541,0.043,0.67,0.284l4.43,8.296
				c0.797,1.493,2.655,2.057,4.148,1.26l20.059-10.713c1.494-0.797,2.058-2.654,1.26-4.148l-4.479-8.388
				c-0.128-0.239-0.072-0.534,0.134-0.712c5.903-5.105,10.973-11.261,14.894-18.294c0.133-0.239,0.413-0.354,0.675-0.274
				l9.204,2.796c1.62,0.492,3.332-0.422,3.824-2.042l6.609-21.759C2516.357,126.379,2515.442,124.667,2513.823,124.175z
				 M2420.832,155.128c-22.088-8.515-32.954-33.941-23.843-55.79c8.893-21.324,33.301-31.607,54.811-22.977
				c21.691,8.702,32.221,33.341,23.519,55.033C2466.69,152.905,2442.389,163.439,2420.832,155.128z"/>
			<path fill="#CAD2EA" d="M2368.211,54.497l-5.289-2.094c-0.147-0.058-0.233-0.21-0.209-0.366
				c0.707-4.589,0.588-9.188-0.277-13.609c-0.031-0.156,0.051-0.312,0.197-0.375l5.283-2.286c0.904-0.391,1.32-1.442,0.929-2.346
				l-5.257-12.146c-0.391-0.904-1.442-1.32-2.346-0.929l-5.339,2.311c-0.145,0.063-0.313,0.016-0.406-0.111
				c-2.641-3.614-5.913-6.807-9.733-9.397c-0.131-0.089-0.184-0.256-0.125-0.404l2.151-5.433c0.363-0.916-0.086-1.953-1.002-2.315
				l-12.306-4.871c-0.916-0.363-1.953,0.086-2.315,1.002l-2.151,5.433c-0.058,0.148-0.211,0.234-0.368,0.209
				c-4.558-0.726-9.129-0.638-13.528,0.189c-0.155,0.029-0.31-0.052-0.373-0.197l-2.311-5.339c-0.392-0.904-1.442-1.32-2.346-0.929
				l-12.146,5.257c-0.904,0.391-1.32,1.442-0.929,2.346l2.287,5.283c0.063,0.146,0.016,0.315-0.114,0.408
				c-3.656,2.631-6.891,5.902-9.516,9.732c-0.089,0.13-0.256,0.182-0.403,0.124l-5.289-2.094c-0.916-0.363-1.953,0.086-2.316,1.002
				l-5.403,13.649c-0.069,0.174,0.016,0.371,0.19,0.44l6.549,2.592c0.148,0.059,0.234,0.212,0.208,0.369
				c-0.761,4.624-0.682,9.265,0.158,13.729c0.029,0.155-0.052,0.31-0.197,0.373l-5.079,2.198c-0.904,0.391-1.32,1.442-0.929,2.346
				l5.257,12.146c0.391,0.904,1.442,1.32,2.346,0.928l5.023-2.174c0.146-0.063,0.315-0.016,0.408,0.113
				c2.669,3.71,5.998,6.986,9.9,9.631c0.131,0.089,0.184,0.256,0.125,0.403l-2.003,5.061c-0.363,0.916,0.086,1.953,1.002,2.315
				l12.306,4.871c0.916,0.363,1.953-0.086,2.315-1.002l2.003-5.061c0.058-0.147,0.211-0.233,0.367-0.209
				c4.655,0.742,9.324,0.632,13.81-0.246c0.156-0.03,0.312,0.051,0.375,0.197l2.174,5.023c0.391,0.904,1.442,1.32,2.346,0.929
				l12.146-5.257c0.904-0.391,1.32-1.442,0.928-2.346l-2.198-5.079c-0.062-0.145-0.016-0.313,0.112-0.407
				c3.667-2.679,6.902-6.008,9.512-9.901c0.088-0.132,0.256-0.185,0.404-0.127l5.205,2.06c0.916,0.363,1.953-0.086,2.315-1.002
				l4.871-12.306C2369.576,55.896,2369.127,54.86,2368.211,54.497z M2312.797,68.016c-12.406-5.993-17.496-21.259-11.168-33.497
				c6.175-11.945,20.823-16.745,32.888-10.713c12.167,6.082,17.099,20.876,11.017,33.043
				C2339.502,68.913,2324.904,73.864,2312.797,68.016z"/>
		</g>
		<g>
			<polygon fill="#E6EAF4" points="2304.766,521.234 2304.766,611.094 2394.921,521.234 			"/>
			<g>
				<g>
					<defs>
						<path id="XMLID_376_" d="M2800.445,528.157h-537.793c-14.772,0-26.748-11.975-26.748-26.748V203.256
							c0-14.772,11.975-26.748,26.748-26.748h537.793c14.772,0,26.748,11.975,26.748,26.748v298.153
							C2827.192,516.181,2815.217,528.157,2800.445,528.157z"/>
					</defs>
					<use xlink:href="#XMLID_376_"  overflow="visible" fill="#E6EAF4"/>
					<clipPath id="XMLID_00000071529683741480581060000002935674790829103269_">
						<use xlink:href="#XMLID_376_"  overflow="visible"/>
					</clipPath>
					<polyline clip-path="url(#XMLID_00000071529683741480581060000002935674790829103269_)" fill="#F2F3F7" points="
						2280.284,500.017 2280.284,443.994 2337.803,393.087 2361.427,420.305 2428.702,352.002 2484.167,360.219 2530.417,319.27 
						2569.689,327.593 2634.104,263.722 2689.006,257.613 2751.323,388.32 2800.745,500.017 2283.197,500.017 					"/>
				</g>
				<g>
					<rect x="2255.536" y="202.292" fill="#F2F3F7" width="549.763" height="1.927"/>
					<rect x="2255.536" y="229.271" fill="#F2F3F7" width="549.763" height="1.927"/>
					<rect x="2255.536" y="256.249" fill="#F2F3F7" width="549.763" height="1.927"/>
					<rect x="2255.536" y="283.227" fill="#F2F3F7" width="549.763" height="1.928"/>
					<rect x="2255.536" y="310.205" fill="#F2F3F7" width="549.763" height="1.928"/>
					<rect x="2255.536" y="337.184" fill="#F2F3F7" width="549.763" height="1.928"/>
					<rect x="2255.536" y="364.162" fill="#F2F3F7" width="549.763" height="1.928"/>
					<rect x="2255.536" y="391.14" fill="#F2F3F7" width="549.763" height="1.928"/>
					<rect x="2255.536" y="418.118" fill="#F2F3F7" width="549.763" height="1.928"/>
					<rect x="2255.536" y="445.097" fill="#F2F3F7" width="549.763" height="1.928"/>
					<rect x="2255.536" y="472.075" fill="#F2F3F7" width="549.763" height="1.928"/>
					<rect x="2255.536" y="499.053" fill="#F2F3F7" width="549.763" height="1.928"/>
				</g>
				<g>
					<polygon fill="#CAD2EA" points="2280.433,448.92 2277.051,445.183 2338.18,389.876 2361.508,416.543 2427.223,349.015 
						2482.842,357.232 2523.537,313.359 2565.957,328.047 2632.378,261.626 2690.961,254.903 2691.732,256.535 2756.814,394.031 
						2752.259,396.188 2687.948,260.322 2634.7,266.433 2567.291,333.842 2524.995,319.198 2484.732,362.606 2429.036,354.378 
						2361.311,423.973 2337.76,397.052 					"/>
					<polygon fill="#CAD2EA" points="2763.472,414.906 2766.604,381.299 2735.934,395.391 					"/>
				</g>
				<path fill="#F2F3F7" d="M2806.263,500.982h-551.691V202.292h551.691V500.982z M2256.5,499.053h547.834V204.22H2256.5V499.053z"
					/>
			</g>
		</g>
		<g>
			<g>
				<g>
					<g>
						<path fill="#8296C9" d="M2486.67,475.496L2486.67,475.496c-3.172-0.834-5.069-4.081-4.235-7.254l28.357-107.92
							c0.834-3.173,4.081-5.069,7.254-4.235l0,0c3.172,0.834,5.068,4.081,4.235,7.254l-28.357,107.92
							C2493.09,474.434,2489.843,476.33,2486.67,475.496z"/>
						
							<ellipse transform="matrix(0.1976 -0.9803 0.9803 0.1976 1702.8328 2739.7524)" fill="#8296C9" cx="2524.976" cy="329.712" rx="47.119" ry="47.118"/>
					</g>
					<g>
						<defs>
							
								<ellipse id="XMLID_321_" transform="matrix(0.6455 -0.7638 0.7638 0.6455 643.2614 2045.3354)" cx="2524.976" cy="329.712" rx="41.678" ry="41.678"/>
						</defs>
						<use xlink:href="#XMLID_321_"  overflow="visible" fill="#CAD2EA"/>
						<clipPath id="XMLID_00000172403050599296044560000004695416116484179126_">
							<use xlink:href="#XMLID_321_"  overflow="visible"/>
						</clipPath>
						<polygon opacity="0.5" clip-path="url(#XMLID_00000172403050599296044560000004695416116484179126_)" fill="#B4C0DF" points="
							2496.949,368.084 2470.284,361.008 2536.911,284.13 2563.575,291.205 						"/>
						
							<polygon opacity="0.28" clip-path="url(#XMLID_00000172403050599296044560000004695416116484179126_)" fill="#B4C0DF" points="
							2506.092,378.211 2494.531,375.144 2561.157,298.265 2571.887,301.112 						"/>
					</g>
				</g>
				<g>
					<g>
						<defs>
							<path id="XMLID_320_" d="M2690.531,781.269l-10.088,143.888h-14.641c0,0-13.948-119.698-14.629-143.888H2690.531z"/>
						</defs>
						<use xlink:href="#XMLID_320_"  overflow="visible" fill="#DA8C8D"/>
						<clipPath id="XMLID_00000163047918158288946220000007879157282894138044_">
							<use xlink:href="#XMLID_320_"  overflow="visible"/>
						</clipPath>
						<path clip-path="url(#XMLID_00000163047918158288946220000007879157282894138044_)" fill="#C17276" d="M2655.531,840.16
							l10.926-27.726c9.552-23.456,12.11-29.424,25.31-40.448l3.079-2.571l-37.52,2.297c0,0-6.882,22.969-0.008,40.851"/>
					</g>
					<path fill="#1F1949" d="M2681.176,923.823h-16.036l1.019,11.501c0,0-14.78,0.664-23.591,10.196h37.794L2681.176,923.823z"/>
				</g>
				<g>
					<g>
						<defs>
							<path id="XMLID_319_" d="M2659.66,781.269l-10.088,143.888h-14.641c0,0-13.948-119.698-14.629-143.888H2659.66z"/>
						</defs>
						<use xlink:href="#XMLID_319_"  overflow="visible" fill="#DA8C8D"/>
						<clipPath id="XMLID_00000029007375197461452880000007566746167422219912_">
							<use xlink:href="#XMLID_319_"  overflow="visible"/>
						</clipPath>
						<path clip-path="url(#XMLID_00000029007375197461452880000007566746167422219912_)" fill="#C17276" d="M2664.437,787.773
							l-4.616,3.202c-13.087,9.079-24.172,20.748-32.566,34.284l-2.81,4.53l-10.763-49.901L2664.437,787.773z"/>
					</g>
					<path fill="#1F1949" d="M2650.304,923.823h-16.037l1.019,11.501c0,0-14.78,0.664-23.591,10.196h37.794L2650.304,923.823z"/>
				</g>
				<g>
					<defs>
						<path id="XMLID_139_" d="M2680.96,461.159c0.08-0.458,0.128-0.714,0.128-0.714l-0.064,0.032
							c0.252-2.801,0.018-5.575-0.801-8.181c-4.828-15.362-25.342-28.066-34.193-3.462c0,0-15.878,36.841,4.042,38.424
							c2.35,0.187,4.629,0.047,6.819-0.353c-3.098,11.366-5.422,24.425-0.05,25.281c6.158,0.98,14.832-2.095,18.298-4.937
							c2.417-1.981,4.496-4.29,4.15-7.403c-1.629-14.659,0.358-30.321,1.326-36.579
							C2680.76,462.565,2680.877,461.862,2680.96,461.159z"/>
					</defs>
					<use xlink:href="#XMLID_139_"  overflow="visible" fill="#DA8C8D"/>
					<clipPath id="XMLID_00000130634471597399715210000005219640579326092733_">
						<use xlink:href="#XMLID_139_"  overflow="visible"/>
					</clipPath>
					<path clip-path="url(#XMLID_00000130634471597399715210000005219640579326092733_)" fill="#C17276" d="M2647.159,486.7
						c0,0,13.48-3.438,16.972-12.435c3.493-8.997,3.096,28.579-1.8,30.961c-4.896,2.382-12.834-0.664-12.834-0.664L2647.159,486.7"
						/>
				</g>
				<path fill="#F9DD89" d="M2674.469,495.186c0,0,32.02,14.186,36.068,29.698c4.048,15.512-9.351,99.086-9.351,99.086h-73.968
					c0,0-14.729-83.574-8.882-97.632C2624.183,512.28,2646.048,492.15,2674.469,495.186z"/>
				<path fill="#343766" d="M2701.29,495.069c-2.15,4.116-6.412,6.802-10.874,8.087c-4.462,1.284-9.173,1.342-13.816,1.391
					c-9.101,0.096-18.276-0.155-26.657-3.704c4.266-4.095,8.241-8.677,10.476-14.152c2.235-5.474,2.522-11.99-0.392-17.135
					c-2.059-3.635-5.483-6.279-8.023-9.596c-3.501-4.571-5.235-10.46-4.771-16.199c0.428-5.286,2.337-9.973,6.819-12.807
					c4.482-2.834,10.114-3.443,15.344-2.564c3.473,0.584,6.841,1.79,9.895,3.544c6.93,3.978,12.032,10.656,15.255,17.969
					c3.223,7.312,4.704,15.27,5.662,23.203C2701.061,480.168,2704.583,488.764,2701.29,495.069z"/>
				<path fill="#F9DD89" d="M2648.734,498.731l-69.379-14.377l-10.833,33.624c0,0,29.492,22.795,47.549,22.413
					C2634.128,540.009,2648.734,498.731,2648.734,498.731z"/>
				<path fill="#F9DD89" d="M2710.763,525.494l21.026,67.662l-32.417,14.038c0,0-25.543-27.146-26.911-45.156
					C2671.094,544.027,2710.763,525.494,2710.763,525.494z"/>
				<g>
					<defs>
						<path id="XMLID_114_" d="M2578.57,487.479l-34.033-16.277l-38.488-65.542l-7.468,12.821c0,0,20.68,68.777,29.871,73.915
							c9.191,5.138,41.09,23.099,41.09,23.099L2578.57,487.479z"/>
					</defs>
					<use xlink:href="#XMLID_114_"  overflow="visible" fill="#DA8C8D"/>
					<clipPath id="XMLID_00000051384093186390470030000000773405660599417276_">
						<use xlink:href="#XMLID_114_"  overflow="visible"/>
					</clipPath>
					<path clip-path="url(#XMLID_00000051384093186390470030000000773405660599417276_)" fill="#C17276" d="M2576.067,484.354
						c0,0-7.863,21.839-22.431,24.152l22.662,11.794l8.325-33.069L2576.067,484.354z"/>
				</g>
				<g>
					<defs>
						<path id="XMLID_377_" d="M2729.442,594.172l7.8,33.154c0.744,2.651,1.287,5.355,1.625,8.088l5.582,69.355l-10.705,1.704
							l-17.264-72.582l-11.125-29.289L2729.442,594.172z"/>
					</defs>
					<use xlink:href="#XMLID_377_"  overflow="visible" fill="#DA8C8D"/>
					<clipPath id="XMLID_00000057830939978031282050000002888481613717580969_">
						<use xlink:href="#XMLID_377_"  overflow="visible"/>
					</clipPath>
					<path clip-path="url(#XMLID_00000057830939978031282050000002888481613717580969_)" fill="#C17276" d="M2729.979,596.451
						c0,0-4.27,20.67-21.468,22.56l-7.559-20.977l29.757-8.355L2729.979,596.451"/>
				</g>
				<g>
					
						<rect x="2691.851" y="704.195" transform="matrix(0.9872 -0.1595 0.1595 0.9872 -82.0069 446.2632)" fill="#343766" width="94.086" height="59.56"/>
					<polygon fill="#CAD2EA" points="2780.584,697.073 2783.241,752.365 2790.084,755.87 					"/>
				</g>
				<path fill="#DA8C8D" d="M2733.324,704.708c0,0-2.287,9.987-1.62,10.644c0.518,0.509,4.802-4.945,7.19-11.544
					C2741.281,697.21,2733.324,704.708,2733.324,704.708z"/>
				<g>
					<defs>
						<path id="XMLID_115_" d="M2701.187,623.97c0,0,22.929,38.38,10.113,81.285s-17.907,83.724-17.907,83.724h-76.428
							c0,0-12.133-145.622,10.255-165.008H2701.187z"/>
					</defs>
					<use xlink:href="#XMLID_115_"  overflow="visible" fill="#39548B"/>
					<clipPath id="XMLID_00000072980766342405293300000005302718197932550558_">
						<use xlink:href="#XMLID_115_"  overflow="visible"/>
					</clipPath>
					<path clip-path="url(#XMLID_00000072980766342405293300000005302718197932550558_)" fill="#343766" d="M2617.737,606.914
						c0,0,10.231,101.707,79.033,99.525c68.802-2.182-0.897-118.892-0.897-118.892S2621.561,587.928,2617.737,606.914"/>
				</g>
			</g>
			<path fill="#F4C54E" d="M2616.982,540.395c0,0,6.339-0.249,16.886-5.415c0,0-1.306,23.938-15.29,28.435
				C2618.579,563.416,2616.885,546.515,2616.982,540.395z"/>
			<path fill="#F4C54E" d="M2704.017,605.182c0,0,4.65-52.643,5.22-64.787c0,0,2.025,52.797,0,62.526L2704.017,605.182z"/>
			<path fill="#DA8C8D" d="M2506.05,405.66c0,0-3.519-15.322-5.369-12.547c-1.85,2.775-9.516,16.281-2.098,25.368
				C2505.999,427.569,2506.05,405.66,2506.05,405.66z"/>
		</g>
	</g>
	<g>
		<path fill="#DA8C8D" d="M812.56,519.374c0,0,24.16,1.606,23.903,3.604c-0.256,1.998-5.447,9.659-10.929,9.037
			c-5.481-0.622-14.779-2.427-14.779-2.427L812.56,519.374z"/>
		<g>
			<defs>
				<path id="XMLID_388_" d="M639.715,508.297l67.963,27.744l107.079-18.707l-3.225,15.481c0,0-91.313,38.396-107.004,38.008
					s-58.958-10.27-58.958-10.27L639.715,508.297z"/>
			</defs>
			<use xlink:href="#XMLID_388_"  overflow="visible" fill="#F9DD89"/>
			<clipPath id="XMLID_00000018937667233418098040000016110001633720948148_">
				<use xlink:href="#XMLID_388_"  overflow="visible"/>
			</clipPath>
			<path clip-path="url(#XMLID_00000018937667233418098040000016110001633720948148_)" fill="#F4C54E" d="M662.993,564.3
				c0,0-6.325-11.586-12.412-24.739c-6.087-13.152,3.065-9.466,3.065-9.466s26.904,28.638,39.845,30.768
				c12.941,2.13,48.816-0.817,48.816-0.817s-15.337,20.662-31.772,19.566C694.099,578.516,662.993,564.3,662.993,564.3"/>
		</g>
		<g>
			<g>
				<g>
					<defs>
						<path id="XMLID_378_" d="M641.724,646.524c0,0,61.935,92.836,85.256,125.413c23.322,32.577,76.148,149.226,76.148,149.226
							l-12.179,8.245L684.052,812.44c0,0-131.103-97.63-112.206-151.919L641.724,646.524z"/>
					</defs>
					<use xlink:href="#XMLID_378_"  overflow="visible" fill="#39548B"/>
					<clipPath id="XMLID_00000033359212364758919130000007332162899500749957_">
						<use xlink:href="#XMLID_378_"  overflow="visible"/>
					</clipPath>
					<path clip-path="url(#XMLID_00000033359212364758919130000007332162899500749957_)" fill="#343766" d="M667.884,799.662
						l-29.946-97.152c0,0,54.453,73.848,46.114,109.93c-8.34,36.082,0,0,0,0L667.884,799.662"/>
				</g>
				<path fill="#1F1949" d="M788.249,928.693l15.005-10.493l6.12,11.547c0,0,23.719,3.435,31.565,15.536h-44.471l-0.945-9.137
					L788.249,928.693z"/>
			</g>
			<g>
				<path fill="#39548B" d="M630.477,654.007l-71.007-6.08c-25.25,35.513,25.299,119.005,51.242,157.334l-47.989,130.253
					l12.918,7.03c0,0,51.738-65.546,81.249-109.566c10.633-15.861,13.804-35.57,8.647-53.956L630.477,654.007z"/>
				<path fill="#1F1949" d="M569.983,915.808l22.449,5.15l-8.721,11.267c0,0,22.253,0.403,28.021,13.077h-49.729l0.188-7.392
					c-0.11-2.487,0.086-4.608,1.213-6.828L569.983,915.808z"/>
			</g>
			<path fill="#343766" d="M553.137,664.811c0,0,28.582,36.556,114.822,20.849l-16.962-26.974L553.137,664.811z"/>
		</g>
		<g>
			<g>
				<g>
					<g>
						<defs>
							<path id="XMLID_389_" d="M660.671,451.166c0,0,8.076,45.253-14.309,41.818c-22.385-3.435-33.57-31.003-24.305-46.883
								C631.321,430.22,657.211,421.402,660.671,451.166z"/>
						</defs>
						<use xlink:href="#XMLID_389_"  overflow="visible" fill="#DA8C8D"/>
						<clipPath id="XMLID_00000173872420783601981520000005310974060991600787_">
							<use xlink:href="#XMLID_389_"  overflow="visible"/>
						</clipPath>
						<path clip-path="url(#XMLID_00000173872420783601981520000005310974060991600787_)" fill="#C17276" d="M623.491,456.81
							c2.135-3.578,4.269-7.156,6.404-10.734c0.641-1.074,1.306-2.176,2.307-2.927c0.933-0.7,2.082-1.037,3.208-1.342
							c9.99-2.7,20.394-3.866,30.735-3.445c0.896,0.037,1.819,0.091,2.63,0.476c1.485,0.704,2.268,2.343,2.766,3.909
							c1.382,4.349,1.341,9.102,0.053,13.468c-0.648,2.198-1.614,4.305-2.877,6.219c-0.797,1.207-1.623,3.058-3.085,3.559
							c-2.085,0.714-4.631,0.743-6.816,0.863c-2.376,0.13-4.76,0.107-7.133-0.066c-4.748-0.346-9.452-1.291-13.966-2.804
							c-4.496-1.507-8.805-3.58-12.77-6.184C624.457,457.479,623.971,457.149,623.491,456.81z"/>
					</g>
					<path fill="#DA8C8D" d="M619.014,454.967c0,0-1.146,28.347-10.161,49.771c0,0,14.276,13.444,25.281,14.247
						c11.005,0.803,3.191-48.452,3.191-48.452L619.014,454.967z"/>
				</g>
			</g>
		</g>
		<path fill="#F9DD89" d="M659.372,673.431c0,0,15.294-123.468-8.539-152.729c-23.833-29.262-37.679-29.62-37.679-29.62
			s-26.875,2.483-49.404,123.199c-3.364,18.024-13.621,21.994-13.746,42.292C549.836,683.859,643.099,689.397,659.372,673.431z"/>
		<g>
			<g>
				<path fill="#39548B" d="M211.498,798.094L118.079,904.6l0.392,6.972l4.994,4.061c0,0,91.416-50.628,125.159-77.266
					c3.537-2.792,5.882-6.847,6.571-11.341c0.789-5.148,1.789-11.731,2.086-13.931C257.792,809.298,211.498,798.094,211.498,798.094
					z"/>
				<path fill="#39548B" d="M202.074,817.374c0,0-27.327-151.217,19.67-175.734l56.158,35.862c0,0-16.514,103.085-21.233,140.289"/>
				<path fill="#1F1949" d="M120.291,900.756l10.26,10.915l-7.086,3.963c0,0,9.095,16.699,7.892,28.938l-27.755-26.09
					L120.291,900.756z"/>
				<path fill="#343766" d="M265.431,757.251c0,0-41.86-19.83-49.801-37.073c0,0,8.678,54.593,43.374,80.423L265.431,757.251z"/>
				<g>
					<path fill="#39548B" d="M273.627,666.965c0,0,57.693,86.478,79.417,116.823c21.724,30.345,70.933,139.006,70.933,139.006
						l-11.345,7.68l-99.577-108.957c0,0-122.124-90.944-104.521-141.514L273.627,666.965z"/>
					<path fill="#1F1949" d="M410.116,929.809l13.978-9.774l5.701,10.757c0,0,22.094,3.199,29.403,14.472h-41.425l-0.881-8.511
						L410.116,929.809z"/>
				</g>
			</g>
			<polygon fill="#F4C54E" points="283.897,548.644 331.319,595.251 323.5,614.727 			"/>
			<g>
				<defs>
					<path id="XMLID_153_" d="M330.2,598.04l37.414,22.69l90.237,12.199l-10.093,8.687c-12.339,0.333-32.652,0.812-44.993,1.045
						c-9.729,0.184-19.458,0.341-29.189,0.414c-5.951,0.045-11.9,0.494-17.853,0.293c-5.762-0.194-10.313-1.725-15.494-4.164
						c-7.288-3.432-14.644-6.721-22.001-10c-0.086-0.039-1.704-0.76-1.705-0.759c0,0,4.034-8.967,7.72-17.162
						C327.344,604.388,330.2,598.04,330.2,598.04z"/>
				</defs>
				<use xlink:href="#XMLID_153_"  overflow="visible" fill="#DA8C8D"/>
				<clipPath id="XMLID_00000057861848358148184560000010236457106862984579_">
					<use xlink:href="#XMLID_153_"  overflow="visible"/>
				</clipPath>
				<path clip-path="url(#XMLID_00000057861848358148184560000010236457106862984579_)" fill="#C17276" d="M322.83,609.572
					c0,0,21.913,26.691,30.645,29.492c8.732,2.801,17.796,4.046,17.796,4.046s-15.654,3.039-27.023,1.556
					s-30.397-19.322-30.397-19.322L322.83,609.572z"/>
				<path clip-path="url(#XMLID_00000057861848358148184560000010236457106862984579_)" fill="#C17276" d="M441.121,641.789
					c0,0,5.121-10.471,16.73-8.861c11.609,1.611,0,0,0,0l-12.245,12.008L441.121,641.789"/>
			</g>
			<path fill="#343766" d="M182.147,927.799c-37.441,0-65.85-26.801-84.315-47.52c-3.078-3.454-6.138-6.979-9.378-10.708
				c-23.775-27.379-50.722-58.411-87.372-62.819c-0.673-0.082-1.153-0.693-1.072-1.366c0.081-0.674,0.694-1.159,1.366-1.074
				c37.59,4.521,64.867,35.934,88.933,63.647c3.234,3.724,6.289,7.242,9.357,10.685c19.204,21.548,49.33,49.799,89.007,46.419
				c28.799-2.457,57.586-19.624,78.979-47.098c26.339-33.828,41.891-74.895,56.93-114.61c1.972-5.208,3.939-10.401,5.923-15.563
				c14.893-38.737,51.609-87.797,90.32-102.419c0.053-0.02,16.421-5.525,43.651-13.979c16.57-5.145,36.952-9.066,60.552-13.607
				c35.653-6.86,80.024-15.397,133.498-32.266c9.537-3.009,44.026-16.736,77.378-30.012c35.143-13.987,71.482-28.451,82.132-31.81
				c423.498-133.594,1015.579-320.343,1015.579-320.343l0.739,2.342c0,0-592.081,186.75-1015.579,320.342
				c-10.564,3.333-46.861,17.78-81.962,31.752c-34.931,13.904-67.925,27.036-77.548,30.073
				c-53.609,16.911-98.058,25.463-133.772,32.335c-23.528,4.527-43.848,8.437-60.288,13.541
				c-27.102,8.414-43.42,13.899-43.536,13.94c-38.017,14.36-74.169,62.754-88.87,100.992c-1.983,5.159-3.948,10.348-5.919,15.552
				c-15.104,39.885-30.723,81.129-57.289,115.249c-21.812,28.014-51.23,45.522-80.709,48.035
				C186.606,927.706,184.359,927.799,182.147,927.799z"/>
			<g>
				<path fill="#DA8C8D" d="M415.179,646.585c0,0,15.917-6.735,19.399-1.675c1.933,2.809-3.741,12.117-19.399,12.118
					C399.521,657.029,415.179,646.585,415.179,646.585z"/>
				<g>
					<g>
						<g>
							<g>
								<g>
									<defs>
										<path id="XMLID_102_" d="M297.215,478.187c0,0,9.888,44.781-12.883,42.222c-22.771-2.559-35.131-29.598-26.364-45.779
											C266.735,458.448,292.585,448.662,297.215,478.187z"/>
									</defs>
									<use xlink:href="#XMLID_102_"  overflow="visible" fill="#DA8C8D"/>
									<clipPath id="XMLID_00000005238597458278278250000018043308047939052456_">
										<use xlink:href="#XMLID_102_"  overflow="visible"/>
									</clipPath>
									<path clip-path="url(#XMLID_00000005238597458278278250000018043308047939052456_)" fill="#C17276" d="M296.903,485.99
										c-0.643,2.511-1.659,5.043-3.602,6.76c-3.527,3.116-9.356,2.93-12.301,6.6c-1.527,1.903-1.921,4.446-2.838,6.707
										c-1.517,3.742-4.62,6.81-8.378,8.286c0.392-4.379,0.493-8.783,0.3-13.175c-0.235-5.36-0.906-10.721-0.544-16.073
										c0.362-5.353,1.869-10.828,5.433-14.838c1.754-1.974,3.936-3.518,6.181-4.906c2.278-1.409,4.829-2.763,7.583-2.722
										c2.249,0.034,4.397,1.357,6.026,2.838c1.076,0.977,1.654,2.183,1.993,3.58c0.557,2.295,0.937,4.692,1.079,7.047
										C298.038,479.413,297.729,482.766,296.903,485.99z"/>
								</g>
								<path fill="#DA8C8D" d="M255.228,483.581c0,0-0.081,28.291-8.385,49.987c0,0,14.95,12.846,26.111,13.221
									c11.161,0.376,1.386-48.404,1.386-48.404L255.228,483.581z"/>
							</g>
						</g>
					</g>
					<g>
						<defs>
							<path id="XMLID_313_" d="M294.658,701.736c0,0,23.573-129.035-1.644-157.274c-25.217-28.239-39.235-28.062-39.235-28.062
								s-50.736,20.598-42.678,103.635c1.767,18.208-22.815,38.504-15.596,45.529C215.007,684.54,278.806,718.274,294.658,701.736z"
								/>
						</defs>
						<use xlink:href="#XMLID_313_"  overflow="visible" fill="#F9DD89"/>
						<clipPath id="XMLID_00000093172373382670897840000012862987470387982767_">
							<use xlink:href="#XMLID_313_"  overflow="visible"/>
						</clipPath>
						<path clip-path="url(#XMLID_00000093172373382670897840000012862987470387982767_)" fill="#F4C54E" d="M211.101,620.036
							c0,0,6.479,34.628,16.351,46.93c9.872,12.301-22.405-1.319-22.61-13.493s0.318-30.253,0.318-30.253L211.101,620.036"/>
					</g>
					<g>
						<g>
							<g>
								<defs>
									<path id="XMLID_101_" d="M285.465,641.99c0,0,15.8,28.264,24.625,32.012c8.825,3.748,105.089-16.974,105.089-16.974
										v-10.443c0,0-76.176-2.674-85.065,1.341l-9.93-31.4L285.465,641.99z"/>
								</defs>
								<use xlink:href="#XMLID_101_"  overflow="visible" fill="#DA8C8D"/>
								<clipPath id="XMLID_00000008122183967788347430000011544405748251571619_">
									<use xlink:href="#XMLID_101_"  overflow="visible"/>
								</clipPath>
								<path clip-path="url(#XMLID_00000008122183967788347430000011544405748251571619_)" fill="#C17276" d="M325.876,619.462
									c-0.356,0.552-26.76,43.123-34.628,42.392c-7.868-0.731-7.99-28.433-7.99-28.433l35.145-25.813L325.876,619.462z"/>
							</g>
						</g>
						<g>
							<path fill="#F9DD89" d="M256.147,584.788c5.586,23.387,16.116,50.924,24.789,65.934c0,0,24.909-21.101,43.828-32.504
								l-26.939-67.23L256.147,584.788z"/>
						</g>
					</g>
					<path fill="#C17276" d="M277.447,518.809l-5.823-4.466c0,0,0.691,9.09,6.437,11.412
						C278.06,525.755,277.538,519.652,277.447,518.809z"/>
					<path fill="#F4C54E" d="M300.173,664.538c0,0-10.208-13.546-12.75-19.164l-6.487,5.349c0,0-15.024-26.558-19.366-40.067
						c0,0,0.625,49.238,35.777,74.543L300.173,664.538z"/>
				</g>
			</g>
			<path fill="#343766" d="M295.404,482.077c-2.768,4.7-8.52,4.578-12.47,7.535c-4.416,3.305-5.906,8.688-6.393,13.974
				c-2.009,21.774-15.084,37.516-38.011,38.905c-14.228,0.862-55.02-7.9-45.231-29.824c6.44-14.423,21.555-22.157,33.631-31.139
				c13.513-10.051,26.956-21.648,44.236-24.217C284.506,455.328,304.368,466.858,295.404,482.077z"/>
			<path fill="#DA8C8D" d="M463.353,638.927c0.922-2.49-0.593-5.225-3.199-5.736c-2.695-0.529-6.061-0.923-8.514-0.31
				c-4.778,1.194-8.48,10.538-8.48,10.538s10.63,3.575,15.169,2.072C460.719,644.7,462.347,641.644,463.353,638.927z"/>
		</g>
		<path fill="#F9DD89" d="M598.615,505.742c0,0-67.704,85.54-68.95,101.742c-1.246,16.202-9.97,30.534,115.905,0v-21.187
			l-64.184,4.362c0,0,49.229-28.665,42.997-57.953S598.615,505.742,598.615,505.742z"/>
		<path fill="#F4C54E" d="M560.69,624.505c0,0,51.573-6.741,73.588-14.316c0,0-41.504,25.657-81.68,31.14
			C552.598,641.329,557.62,628.366,560.69,624.505z"/>
		<path fill="#DA8C8D" d="M645.571,589.016c0,0,24.361-12.1,25.769-7.508c1.409,4.591-1.836,13.893-8.477,16.703
			c-6.64,2.809-17.292,3.32-17.292,3.32V589.016z"/>
		<path fill="#F4C54E" d="M639.715,586.695l-58.329,3.964c0,0,20.103-16.829,34.212-39.671c0,0-13.86,27.398-7.143,28.624
			C615.172,580.838,639.715,586.695,639.715,586.695z"/>
		<path fill="#C17276" d="M828.956,520.968c0,0-7.453-0.636-9.821,4.206c-2.368,4.843,8.078,6.781,8.078,6.781
			s6.744,0.962,9.249-8.977C836.463,522.979,836.772,520.342,828.956,520.968z"/>
		<path fill="#DA8C8D" d="M823.61,520.321c0.306,0.033,5.838,1.888,6.125,3.321c0.287,1.433-10.315-0.788-10.315-0.788
			S821.583,520.101,823.61,520.321z"/>
		<path fill="#C17276" d="M640.015,491.27c-0.392-0.167-7.448-4.233-12.76-9.314c0,0,4.286,14.493,12.742,17.404L640.015,491.27z"/>
		<path fill="#343766" d="M660.949,444.813c-8.786,7.292-19.569,12.151-30.851,13.904c-1.312,3.132-2.996,6.209-4.308,9.341
			c-0.167-1.193-1.036-2.166-1.77-3.121c-0.284-0.369-0.62-0.72-1.055-0.886c-0.722-0.275-1.571,0.044-2.092,0.614
			c-0.521,0.57-0.763,1.342-0.884,2.105c-0.538,3.389,1.258,7.023,4.276,8.655c-1.111,2.549-2.394,5.117-3.687,7.578
			c-1.78,0.603-3.617,0.911-5.496,0.956c-0.386-6.617-2.136-13.045-3.4-19.552s-1.969-13.32-0.167-19.698
			c1.802-6.378,6.574-12.261,13.032-13.755c1.573-2.644,3.205-4.479,5.935-5.897c9.581-4.975,21.063-6.17,31.464-3.274
			c7.056,1.965,14.313,2.328,21.597,1.558c-2.382,3.951-6.442,6.829-10.991,7.597c3.048,0.452,6.144,0.61,9.187,0.126
			c-3.584,5.152-9.654,8.474-15.921,8.811c3.027,1.092,6.489,1.44,9.675,0.988c-1.77,1.821-4.113,3.034-6.579,3.641
			C666.446,445.112,663.462,445.177,660.949,444.813z"/>
	</g>
	<g>
		<polygon fill="#8296C9" points="1968.92,946.535 39.747,946.442 39.747,102.747 42.026,102.747 42.026,944.163 1968.92,944.256 		
			"/>
	</g>
</g>
<rect x="-75.147" y="942.976" fill="#1F1949" width="3165.707" height="2.456"/>
</svg>
